<?xml version="1.0" standalone="no"?>
<!DOCTYPE svg PUBLIC "-//W3C//DTD SVG 1.1//EN" "http://www.w3.org/Graphics/SVG/1.1/DTD/svg11.dtd" >
<svg xmlns="http://www.w3.org/2000/svg" xmlns:xlink="http://www.w3.org/1999/xlink" version="1.1">
<metadata>
Created by FontForge 20170731 at Wed Apr  4 09:37:25 2012
 By Aleksey,,,
Copyright (c) 2011, Johan Aakerlund (aajohan@gmail.com), with Reserved Font Name "Comfortaa"
</metadata>
<defs>
<font id="Comfortaa-Light" horiz-adv-x="1280" >
  <font-face 
    font-family="Comfortaa"
    font-weight="300"
    font-stretch="normal"
    units-per-em="2048"
    panose-1="2 15 3 3 7 2 0 6 0 3"
    ascent="1638"
    descent="-410"
    x-height="1120"
    cap-height="1600"
    bbox="-412 -482 2598 2081"
    underline-thickness="150"
    underline-position="-442"
    unicode-range="U+0020-F002"
  />
<missing-glyph 
d="M369 1046q0 -17 -12 -29t-29 -12t-29.5 12t-12.5 29q0 145 102 246q103 103 247 103q146 0 246 -103q103 -100 103 -246q0 -144 -103 -247v1l-126 -119q-79 -79 -79 -189q0 -17 -12 -29t-29 -12t-29 12t-12 29q0 145 103 247v-1l127 118q78 79 78 190t-78 189t-189 78
q-110 0 -189 -78q-77 -77 -77 -189zM707 277q0 -29 -20.5 -50.5t-51.5 -21.5q-29 0 -50.5 21.5t-21.5 50.5q0 31 21.5 51.5t50.5 20.5q31 0 51.5 -20.5t20.5 -51.5zM163 82h944v1436h-944v-1436zM122 0q-17 0 -29 12t-12 29v1518q0 17 12 29t29 12h1026q17 0 29 -12t12 -29
v-1518q0 -17 -12 -29t-29 -12h-1026z" />
    <glyph glyph-name=".notdef" 
d="M369 1046q0 -17 -12 -29t-29 -12t-29.5 12t-12.5 29q0 145 102 246q103 103 247 103q146 0 246 -103q103 -100 103 -246q0 -144 -103 -247v1l-126 -119q-79 -79 -79 -189q0 -17 -12 -29t-29 -12t-29 12t-12 29q0 145 103 247v-1l127 118q78 79 78 190t-78 189t-189 78
q-110 0 -189 -78q-77 -77 -77 -189zM707 277q0 -29 -20.5 -50.5t-51.5 -21.5q-29 0 -50.5 21.5t-21.5 50.5q0 31 21.5 51.5t50.5 20.5q31 0 51.5 -20.5t20.5 -51.5zM163 82h944v1436h-944v-1436zM122 0q-17 0 -29 12t-12 29v1518q0 17 12 29t29 12h1026q17 0 29 -12t12 -29
v-1518q0 -17 -12 -29t-29 -12h-1026z" />
    <glyph glyph-name=".null" horiz-adv-x="0" 
 />
    <glyph glyph-name="nonmarkingreturn" horiz-adv-x="560" 
 />
    <glyph glyph-name="space" unicode=" " horiz-adv-x="560" 
 />
    <glyph glyph-name="space" unicode="&#xa0;" horiz-adv-x="560" 
 />
    <glyph glyph-name="exclam" unicode="!" horiz-adv-x="400" 
d="M307 104q0 -44 -30 -74q-29 -30 -73 -30t-74 30t-30 74t30 73q30 30 74 30t73 -30q30 -29 30 -73zM141 1539q0 26 18.5 44t44.5 18t44 -18t18 -44v-1146q0 -26 -18 -42q-18 -19 -44 -19t-44 19q-19 17 -19 42v1146z" />
    <glyph glyph-name="quotedbl" unicode="&#x22;" horiz-adv-x="560" 
d="M202 1227q0 -17 -12 -29t-29 -12t-29.5 12t-12.5 29l-20 312q0 26 18 44t44 18t44 -18t18 -44zM451 1227q0 -17 -12 -29t-29 -12t-29.5 12t-12.5 29l-21 312q0 26 18.5 44t44.5 18t44 -18t18 -44z" />
    <glyph glyph-name="numbersign" unicode="#" 
d="M371 65q-5 -26 -27.5 -45.5t-49.5 -19.5q-23 0 -37.5 17t-10.5 41l78 440h-191q-24 0 -36 14t-12 32q1 39 25.5 58.5t51.5 19.5h184l65 374h-190q-25 0 -38.5 17.5t-9.5 41.5v-1q5 27 27.5 46.5t50.5 19.5h183l76 432q5 27 27 46.5t50 19.5q23 0 37 -17.5t10 -41.5
l-76 -439h291l76 432q5 27 27 46.5t49 19.5q24 0 38 -17.5t10 -41.5l-77 -439h191q24 0 36 -15t12 -32q-2 -38 -26.5 -57.5t-51.5 -19.5h-183l-66 -374h191q23 0 37.5 -17t10.5 -41q-6 -27 -28 -46.5t-49 -19.5h-184l-76 -433q-6 -26 -28 -45.5t-49 -19.5q-23 0 -37.5 17
t-10.5 41l78 440h-291zM535 996l-66 -374h292l65 374h-291z" />
    <glyph glyph-name="dollar" unicode="$" horiz-adv-x="1060" 
d="M509 1q-211 -1 -364 168q-20 22 -37 47q-14 18 -14 40q0 26 18 44t44 18q34 0 53 -28q13 -20 31 -40q46 -54 114 -87t155 -40v709q-149 29 -240 135q-45 54 -69 118t-23 169q7 80 42.5 148t95.5 120q18 14 40.5 27.5t48 25.5t52.5 21.5t53 15.5v109q0 26 18 44.5t44 18.5
t44 -18.5t18 -44.5v-110q75 -14 133.5 -48t104.5 -86q23 -24 38 -53q9 -17 9 -34q0 -26 -18 -44.5t-44 -18.5q-25 0 -39 16q-10 11 -21 26.5t-21 26.5q-48 57 -142 89v-546q72 -20 133 -59.5t108 -93.5q53 -66 82.5 -143t29.5 -159q-7 -144 -50 -225.5t-118 -144.5
q-79 -65 -185 -98v-120q0 -26 -18 -44t-44 -18t-44 18t-18 44v105zM509 1486q-35 -11 -64 -26.5t-49 -32.5q-40 -36 -65.5 -83.5t-29.5 -99.5q-4 -54 13 -104t52 -93q23 -28 59 -50.5t84 -38.5v528zM633 145q57 22 104 64q51 46 85.5 108.5t38.5 163.5q0 129 -83 225
q-26 30 -62.5 55.5t-82.5 48.5v-665z" />
    <glyph glyph-name="percent" unicode="%" horiz-adv-x="1760" 
d="M876 1208q0 -165 -116 -279q-114 -115 -279 -115q-164 0 -278 115q-116 114 -116 279q0 163 116 279q115 115 278 115q164 0 279 -115q116 -116 116 -279zM917 394q0 164 115 279t279 115t279 -115t115 -279t-115 -279t-279 -115t-279 115t-115 279zM481 1477
q-110 0 -190 -80q-79 -78 -79 -189q0 -112 79 -191t190 -79t190 79q80 80 80 191t-80 189q-80 80 -190 80zM1311 664q-111 0 -191 -80q-79 -79 -79 -190q0 -112 79 -191t191 -79q111 0 190 79q80 80 80 191q0 110 -80 190t-190 80zM316 0q-26 0 -44.5 18t-18.5 44
q0 24 16 43l1156 1469q12 13 24.5 20t27.5 7q26 0 44 -18t18 -44q0 -22 -12 -38l-1163 -1478q-22 -23 -48 -23z" />
    <glyph glyph-name="ampersand" unicode="&#x26;" horiz-adv-x="1440" 
d="M506 953l137 108q57 45 84 93t27 101q0 91 -67 160q-67 66 -161 66q-95 0 -162 -66q-66 -68 -66 -160q0 -93 66 -160zM904 382l-412 411l-132 -100q-145 -112 -145 -241q0 -147 91 -238q92 -91 220 -91t220 91zM591 869l400 -397l198 210q16 17 42 17t44 -17.5t18 -43.5
q0 -23 -14 -42l-201 -210l282 -283q16 -17 16 -41q0 -26 -18 -44t-44 -18q-25 0 -43 17l-279 278l-159 -168h1q-128 -127 -308 -127t-308 127t-128 325q0 88 49 170.5t139 154.5l129 100l-131 130q-103 105 -103 248q0 145 103 247q103 103 250 103q146 0 249 -103
q104 -101 104 -247q0 -154 -145 -278l1 1z" />
    <glyph glyph-name="quotesingle" unicode="'" horiz-adv-x="320" 
d="M204 1228q0 -17 -12 -29t-29 -12t-29.5 12t-12.5 29l-20 312q0 26 18 44t44 18t44 -18t18 -44z" />
    <glyph glyph-name="parenleft" unicode="(" horiz-adv-x="560" 
d="M345 1565q6 14 15 23q18 18 45 18q25 0 42 -16.5t18 -40.5q-1 -19 -11 -40q-235 -474 -235 -945q0 -240 59.5 -476t177.5 -474q10 -19 10 -36q0 -24 -18 -41t-43 -17q-26 0 -44 18q-9 11 -17 25q-124 253 -184.5 502t-60.5 500t60.5 499t185.5 501z" />
    <glyph glyph-name="parenright" unicode=")" horiz-adv-x="560" 
d="M405 1064q61 -248 61 -499t-61 -500t-185 -502q-8 -14 -17 -25q-17 -18 -43 -18t-43.5 17t-17.5 41q0 17 10 36q118 238 177 474t59 476q0 471 -234 945q-10 21 -11 40q1 24 17.5 40.5t42.5 16.5q27 0 44 -18q9 -9 15 -23q125 -253 186 -501z" />
    <glyph glyph-name="asterisk" unicode="*" horiz-adv-x="780" 
d="M424 1289l162 -140q9 -7 15 -16q6 -8 10 -19t4 -19q0 -14 -6.5 -27t-17.5 -22q-20 -14 -48 -13q-25 3 -40 23q-6 8 -11 18l-93 195l-95 -194q-5 -12 -12 -21q-16 -22 -48 -22q-22 1 -38 14q-23 18 -23 49q0 22 13 38l16 16l162 139l-208 22q-14 1 -23 5q-25 11 -35 31
q-6 14 -6 28q1 11 4 20q8 25 31 35.5t46 2.5q13 -5 21 -11l177 -103l-42 200q-3 10 -3 22q0 26 18 44t44 18t44 -18t18 -44q0 -12 -3 -22l-44 -201l180 105q10 6 19 10q25 8 48 -2.5t32 -35.5q4 -11 4 -21q0 -15 -6 -27q-11 -24 -35 -31q-10 -4 -23 -5z" />
    <glyph glyph-name="plus" unicode="+" horiz-adv-x="1120" 
d="M494 1224q0 26 18 44t44 18t44.5 -18t18.5 -44v-353h352q26 0 44 -18t18 -44t-18 -44t-44 -18h-352v-353q0 -26 -18.5 -44t-44.5 -18t-44 18t-18 44v353h-352q-26 0 -44.5 18t-18.5 44t18.5 44t44.5 18h352v353z" />
    <glyph glyph-name="comma" unicode="," horiz-adv-x="400" 
d="M130 30q-30 30 -30 74t30 73q30 30 74 30t73 -30q30 -29 30 -73q0 -198 -87 -330q-14 -23 -37 -23q-17 0 -29.5 12.5t-12.5 29.5q1 16 12 29q37 41 37 87q0 28 -14.5 58.5t-45.5 62.5z" />
    <glyph glyph-name="hyphen" unicode="-" horiz-adv-x="800" 
d="M142 498q-26 0 -44.5 18t-18.5 44t18.5 44t44.5 18h497q26 0 44.5 -18t18.5 -44t-18.5 -44t-44.5 -18h-497z" />
    <glyph glyph-name="hyphen" unicode="&#xad;" horiz-adv-x="800" 
d="M142 498q-26 0 -44.5 18t-18.5 44t18.5 44t44.5 18h497q26 0 44.5 -18t18.5 -44t-18.5 -44t-44.5 -18h-497z" />
    <glyph glyph-name="period" unicode="." horiz-adv-x="400" 
d="M307 104q0 -44 -30 -74q-29 -30 -73 -30t-74 30t-30 74t30 73q30 30 74 30t73 -30q30 -29 30 -73z" />
    <glyph glyph-name="slash" unicode="/" horiz-adv-x="960" 
d="M763 1601q19 17 45 17t44 -18t18 -44q0 -15 -6 -28l-664 -1660q-4 -10 -10 -16q-20 -18 -46 -18t-44 18t-18 44q0 16 5 27l665 1661q4 10 11 17z" />
    <glyph glyph-name="zero" unicode="0" horiz-adv-x="1120" 
d="M80 803q0 238 52 412t146 276q57 53 128 83.5t151 30.5q81 0 151.5 -30.5t127.5 -83.5q95 -102 146.5 -276t51.5 -412q0 -239 -51.5 -413t-146.5 -276q-57 -53 -127.5 -83.5t-151.5 -30.5q-80 0 -151 30.5t-128 83.5q-94 102 -146 276t-52 413zM557 1481q-112 0 -191 -80
q-161 -180 -161 -598q0 -420 161 -601q78 -79 191 -79q111 0 191 79q162 182 162 601q0 417 -162 598q-81 80 -191 80z" />
    <glyph glyph-name="one" unicode="1" horiz-adv-x="560" 
d="M453 62q0 -26 -18 -44t-44 -18t-44.5 18t-18.5 44v1390l-161 -52q-15 -6 -25 -6q-26 0 -44 18.5t-18 44.5t18 44q8 8 20 14l249 83q14 4 24 4q26 0 44 -18t18 -44v-1478z" />
    <glyph glyph-name="two" unicode="2" horiz-adv-x="1120" 
d="M972 124q26 0 44 -18t18 -44t-18 -44t-44 -18h-829q-26 0 -44.5 18t-18.5 44q0 24 19 45l708 769q49 51 76 114.5t27 134.5q0 146 -104 249q-102 103 -249 103q-146 0 -250 -103q-102 -104 -102 -249q0 -26 -18 -44t-44 -18t-44.5 18t-18.5 44q0 196 139 337
q142 140 338 140q199 0 337 -140q140 -139 140 -337q0 -199 -141 -339l-609 -662h688z" />
    <glyph glyph-name="three" unicode="3" horiz-adv-x="1120" 
d="M557 822q-26 0 -44 17.5t-18 43.5t18 44t44 18q111 0 190 78q80 79 80 189t-80 187q-80 79 -190 79q-112 0 -190 -79q-79 -77 -79 -187q0 -26 -18 -44t-44 -18t-44.5 18t-18.5 44q0 82 29 150.5t86 125.5q58 57 127 85.5t152 28.5q164 0 279 -114t115 -276
q0 -171 -165 -323q35 -21 62 -41.5t47 -40.5q139 -138 139 -335t-140 -334q-139 -138 -337 -138q-196 0 -338 138q-139 139 -139 334q0 26 18.5 44t44.5 18t44 -18t18 -44q0 -142 102 -247q54 -51 115.5 -76.5t134.5 -25.5q146 0 249 102q104 103 104 247q0 145 -104 247
q-102 103 -249 103z" />
    <glyph glyph-name="four" unicode="4" 
d="M827 522v816l-565 -816h565zM142 398q-26 0 -44 18t-18 44q0 20 11 36l747 1080q17 25 51 25q26 0 44 -18t18 -44v-1017h187q26 0 44 -18t18 -44t-18 -44t-44 -18h-187v-336q0 -26 -18 -44t-44 -18t-44 18t-18 44v336h-685z" />
    <glyph glyph-name="five" unicode="5" horiz-adv-x="1200" 
d="M971 1602q26 0 44.5 -18t18.5 -44t-18.5 -44.5t-44.5 -18.5h-684v-440h311q216 0 366 -152q153 -152 153 -366q0 -215 -153 -368q-151 -151 -366 -151q-213 0 -367 151q-151 152 -151 368q0 26 18 44t44 18t44 -18t18 -44q0 -164 115 -279q119 -116 279 -116
q162 0 278 116q116 115 116 279t-116 277q-116 117 -278 117h-373q-26 0 -44 18t-18 44v565q0 26 18 44t44 18h746z" />
    <glyph glyph-name="six" unicode="6" horiz-adv-x="1120" 
d="M424 939q72 15 133 15q199 0 337 -140q140 -137 140 -337q0 -199 -140 -338q-139 -139 -337 -139q-196 0 -338 139q-139 141 -139 338q0 145 77 260l509 829q6 10 12 17q18 18 45 18q26 0 44.5 -18t18.5 -44q0 -17 -9 -33zM910 477q0 146 -104 249q-102 104 -249 104
q-144 0 -250 -104q-102 -104 -102 -249q0 -144 102 -250q54 -51 115.5 -77t134.5 -26q146 0 249 103q104 104 104 250z" />
    <glyph glyph-name="seven" unicode="7" horiz-adv-x="1120" 
d="M188 19q-19 -19 -45 -19t-44.5 18t-18.5 44q0 18 15 42l772 1373h-724q-26 0 -44.5 18.5t-18.5 44.5t18.5 44t44.5 18h829q26 0 44 -18t18 -44q0 -19 -9 -35l-825 -1469q-6 -11 -12 -17z" />
    <glyph glyph-name="eight" unicode="8" horiz-adv-x="1120" 
d="M557 1478q-112 0 -190 -79q-79 -77 -79 -187q0 -111 79 -189q78 -78 190 -78q111 0 190 78q80 79 80 189t-80 187q-80 79 -190 79zM557 822q-144 0 -250 -103q-102 -103 -102 -247q0 -142 102 -247q109 -102 250 -102q146 0 249 102q104 103 104 247q0 145 -104 247
q-102 103 -249 103zM278 936q-115 114 -115 276q0 82 29 150.5t86 125.5q58 57 127 85.5t152 28.5q164 0 279 -114t115 -276q0 -163 -115 -276q-18 -17 -49 -44q34 -24 61 -44.5t47 -40.5q139 -138 139 -335t-140 -334q-139 -138 -337 -138q-196 0 -338 138
q-139 139 -139 334q0 196 140 335q41 41 111 85q-31 23 -53 44z" />
    <glyph glyph-name="nine" unicode="9" horiz-adv-x="1120" 
d="M691 662q-64 -15 -134 -15q-198 0 -338 139q-139 141 -139 338q0 196 139 337q142 140 338 140q199 0 337 -140q140 -139 140 -337q0 -145 -76 -262l-510 -827q-5 -9 -12 -16q-18 -19 -45 -19q-26 0 -44 18t-18 44q0 16 9 32zM205 1124q0 -145 102 -250
q106 -103 250 -103q147 0 249 103q104 103 104 250q0 146 -104 249q-102 103 -249 103q-146 0 -250 -103q-102 -104 -102 -249z" />
    <glyph glyph-name="colon" unicode=":" horiz-adv-x="400" 
d="M307 104q0 -44 -30 -74q-29 -30 -73 -30t-74 30t-30 74t30 73q30 30 74 30t73 -30q30 -29 30 -73zM307 1017q0 -45 -30 -73q-29 -30 -73 -30t-74 30q-30 28 -30 73q0 44 30 74t74 30t73 -30q30 -30 30 -74z" />
    <glyph glyph-name="semicolon" unicode=";" horiz-adv-x="400" 
d="M307 1017q0 -45 -30 -73q-29 -30 -73 -30t-74 30q-30 28 -30 73q0 44 30 74t74 30t73 -30q30 -30 30 -74zM130 30q-30 30 -30 74t30 73q30 30 74 30t73 -30q30 -29 30 -73q0 -197 -87 -329q-15 -24 -37 -24q-17 0 -29.5 12.5t-12.5 29.5q0 16 12 29q37 41 37 87
q0 28 -14.5 58.5t-45.5 62.5z" />
    <glyph glyph-name="semicolon" unicode="&#x37e;" horiz-adv-x="400" 
d="M307 1017q0 -45 -30 -73q-29 -30 -73 -30t-74 30q-30 28 -30 73q0 44 30 74t74 30t73 -30q30 -30 30 -74zM130 30q-30 30 -30 74t30 73q30 30 74 30t73 -30q30 -29 30 -73q0 -197 -87 -329q-15 -24 -37 -24q-17 0 -29.5 12.5t-12.5 29.5q0 16 12 29q37 41 37 87
q0 28 -14.5 58.5t-45.5 62.5z" />
    <glyph glyph-name="less" unicode="&#x3c;" horiz-adv-x="1120" 
d="M940 1279q14 7 31 7q26 0 44 -18t18 -44q0 -34 -33 -55h1l-739 -443l739 -443q32 -21 32 -55q0 -26 -18 -44t-44 -18q-20 0 -31 7l-825 496q-36 23 -36 57q0 32 36 57z" />
    <glyph glyph-name="equal" unicode="=" horiz-adv-x="1040" 
d="M143 913q-26 0 -44 18t-18 44t18 44t44 18h747q26 0 44 -18t18 -44t-18 -44t-44 -18h-747zM890 539q26 0 44 -18t18 -44t-18 -44t-44 -18l-747 -1q-26 1 -44 19t-18 44t18 44t44 18h747z" />
    <glyph glyph-name="greater" unicode="&#x3e;" horiz-adv-x="1120" 
d="M998 783q36 -25 36 -57q0 -34 -36 -57l-825 -496q-11 -7 -31 -7q-26 0 -44 18t-18 44q0 34 32 55l739 443l-739 443h1q-33 21 -33 55q0 26 18 44t44 18q17 0 31 -7z" />
    <glyph glyph-name="question" unicode="?" horiz-adv-x="1120" 
d="M205 1127q0 -26 -18 -43.5t-44 -17.5t-44.5 17.5t-18.5 43.5q0 195 139 336q142 139 338 139q199 0 337 -139q140 -139 140 -336q0 -198 -140 -336v1l-171 -159q-103 -103 -103 -249q0 -26 -18.5 -44t-44.5 -18t-44 18t-18 44q0 197 140 336v-1l171 158q104 103 104 250
q0 146 -104 248q-102 103 -249 103q-146 0 -250 -103q-102 -103 -102 -248zM661 104q0 -44 -30 -74t-74 -30q-45 0 -73 30q-30 30 -30 74t30 73q28 30 73 30q44 0 74 -30q30 -29 30 -73z" />
    <glyph glyph-name="at" unicode="@" horiz-adv-x="2240" 
d="M1123 991q-177 0 -303 -126t-126 -303t126 -303t303 -126t303 126q125 125 125 303t-125 303q-126 126 -303 126zM1551 219q-15 -23 -39 -46q-161 -161 -389 -161q-230 0 -389 161q-161 161 -161 389t161 389q159 161 389 161q228 0 389 -161t161 -389v-408
q0 -102 102 -102q265 0 265 510q0 382 -269 649q-266 268 -648 268q-380 0 -650 -268q-268 -271 -268 -649t268 -649q270 -268 650 -268q102 0 195.5 19.5t181.5 59.5q16 7 33 7q25 0 43 -17.5t18 -43.5q0 -27 -18 -43q-10 -10 -22 -16q-194 -89 -431 -89q-432 0 -736 305
q-304 304 -304 735q0 430 304 735t736 305q430 0 734 -305q306 -305 306 -735q0 -632 -388 -632q-224 0 -224 224v65z" />
    <glyph glyph-name="A" unicode="A" horiz-adv-x="1440" 
d="M408 574l-209 -536q-6 -14 -14 -22q-17 -16 -43 -16t-44 18t-18 44q0 13 6 27l571 1467q6 16 16 27q17 17 43 17t44 -18q10 -10 16 -26l570 -1467q6 -14 6 -27q0 -26 -18 -44t-43 -18q-26 0 -43 15q-9 9 -15 23l-208 536h-617zM977 697l-261 672l-260 -672h521z" />
    <glyph glyph-name="B" unicode="B" horiz-adv-x="1120" 
d="M203 1477v-533h267q111 0 188 78q79 79 79 188t-79 188t-188 79h-267zM203 821v-698h349q145 0 246 102q103 102 103 247q0 144 -103 246q-100 103 -246 103h-349zM470 1600q162 0 276 -114t114 -276t-134 -296q100 -48 161 -108q137 -139 137 -334q0 -196 -138 -335
q-139 -137 -334 -137h-410q-26 0 -44 18t-18 44v1476q0 26 18 44t44 18h328z" />
    <glyph glyph-name="C" unicode="C" horiz-adv-x="1480" 
d="M1337 281q26 0 44 -18t18 -44q0 -25 -15 -41q-112 -87 -238 -132.5t-266 -45.5q-163 0 -306 61t-260 173q-112 117 -173 260t-61 306q0 331 234 565q235 235 566 235q285 0 507 -182q18 -18 18 -44q0 -25 -18 -43t-43 -18q-26 0 -51 24q-173 140 -413 140
q-280 0 -479 -199q-198 -198 -198 -478q0 -281 198 -479t479 -198q242 0 424 149q13 9 33 9z" />
    <glyph glyph-name="D" unicode="D" horiz-adv-x="1360" 
d="M470 123q278 0 478 198q199 199 199 479q0 279 -199 478q-201 199 -478 199h-267v-1354h267zM470 1600q331 0 565 -235q235 -234 235 -565t-235 -566q-234 -234 -565 -234h-329q-25 0 -43 18t-18 44v1476q0 26 18 44t43 18h329z" />
    <glyph glyph-name="E" unicode="E" 
d="M1127 1600q25 0 43 -18t18 -44q0 -25 -18 -43t-43 -18h-924v-615h677q26 0 44 -18t18 -44t-18 -44t-44 -18h-677v-615h924q25 0 43 -18t18 -43q0 -26 -18 -44t-43 -18h-985q-26 0 -44 18t-18 44v1476q0 26 18 44t44 18h985z" />
    <glyph glyph-name="F" unicode="F" 
d="M1127 1600q25 0 43 -18t18 -44q0 -25 -18 -43t-43 -18h-924v-615h677q26 0 44 -18t18 -44t-18 -44t-44 -18h-677v-676q0 -26 -17.5 -44t-43.5 -18t-44 18t-18 44v1476q0 26 18 44t44 18h985z" />
    <glyph glyph-name="G" unicode="G" horiz-adv-x="1500" 
d="M1399 219q0 -27 -15 -41q-112 -87 -238 -132.5t-266 -45.5q-163 0 -306 61t-260 173q-112 117 -173 260t-61 306q0 331 234 565q235 235 566 235q285 0 507 -182q18 -18 18 -44q0 -25 -18 -43t-43 -18q-26 0 -51 24q-173 140 -413 140q-280 0 -479 -199
q-198 -198 -198 -478q0 -281 198 -479t479 -198q220 0 396 127v406h-345q-26 0 -43.5 18t-17.5 44t17.5 43.5t43.5 17.5h407q24 0 44 -18q17 -19 17 -43v-499z" />
    <glyph glyph-name="H" unicode="H" 
d="M80 1538q0 26 18 44t44 18t43.5 -18t17.5 -44v-676h862v676q0 26 18 44t44 18q25 0 43 -18t18 -44v-1476q0 -26 -18 -44t-43 -18q-26 0 -44 18t-18 44v676h-862v-676q0 -26 -17.5 -44t-43.5 -18t-44 18t-18 44v1476z" />
    <glyph glyph-name="I" unicode="I" horiz-adv-x="480" 
d="M178 1538q0 26 17.5 44t43.5 18t44 -18t18 -44v-1476q0 -26 -18 -44t-44 -18t-43.5 18t-17.5 44v1476z" />
    <glyph glyph-name="J" unicode="J" horiz-adv-x="1120" 
d="M80 472q0 26 18 43.5t44 17.5t43.5 -17.5t17.5 -43.5q0 -144 102 -247q105 -102 247 -102q145 0 246 102q103 102 103 247v1066q0 26 18 44t43 18q26 0 44 -18t18 -44v-1066q0 -196 -138 -335q-139 -137 -334 -137t-334 137q-138 141 -138 335z" />
    <glyph glyph-name="K" unicode="K" horiz-adv-x="1200" 
d="M80 1538q0 26 18 44t43 18q26 0 44 -18t18 -44v-752l795 795q19 19 46 19q26 0 44 -18t18 -44q0 -23 -18 -44l-589 -588l595 -808q11 -16 12 -33q0 -33 -25 -53q-17 -12 -35 -12q-34 0 -53 26l-583 790l-207 -207v-547q0 -26 -18 -44t-44 -18q-25 0 -43 18t-18 44v1476z
" />
    <glyph glyph-name="L" unicode="L" horiz-adv-x="1200" 
d="M80 1538q0 26 18 44t43 18q26 0 44 -18t18 -44v-1415h841q26 0 44 -18t18 -43q0 -26 -18 -44t-44 -18h-903q-25 0 -43 18t-18 44v1476z" />
    <glyph glyph-name="M" unicode="M" horiz-adv-x="1760" 
d="M203 1278v-1216q0 -26 -17.5 -44t-43.5 -18t-44 18t-18 44v1476q0 26 18 44t44 18q37 0 54 -32l684 -1369l684 1369q18 32 55 32q26 0 43.5 -18t17.5 -44v-1476q0 -26 -17.5 -44t-43.5 -18t-44 18t-18 44v1216l-624 -1249q-18 -29 -53 -29q-40 0 -57 39z" />
    <glyph glyph-name="N" unicode="N" horiz-adv-x="1440" 
d="M203 62q0 -26 -17.5 -44t-43.5 -18t-44 18t-18 44v1476q0 26 18 44t44 18q29 0 47 -22l1040 -1337v1297q0 26 18 44t44 18q25 0 43 -18t18 -44v-1476q0 -26 -18 -44t-43 -18q-30 0 -46 18l-1042 1340v-1296z" />
    <glyph glyph-name="O" unicode="O" horiz-adv-x="1760" 
d="M880 1477q-278 0 -479 -199q-198 -198 -198 -478q0 -281 198 -479q199 -198 479 -198t478 198q199 198 199 479q0 280 -199 478q-199 199 -478 199zM1680 800q0 -331 -235 -566q-233 -234 -565 -234q-163 0 -306 61t-260 173q-112 117 -173 260t-61 306q0 331 234 565
q235 235 566 235q333 0 565 -235q235 -234 235 -565z" />
    <glyph glyph-name="P" unicode="P" horiz-adv-x="1080" 
d="M203 1477v-780h266q161 0 275 114q115 115 115 276t-115 275q-114 115 -275 115h-266zM469 1600q214 0 362 -151q151 -148 151 -362q0 -212 -151 -363q-150 -150 -362 -150h-266v-512q0 -26 -18 -44t-44 -18t-43.5 18t-17.5 44v1476q0 26 17.5 44t43.5 18h328z" />
    <glyph glyph-name="Q" unicode="Q" horiz-adv-x="1760" 
d="M1400 192q-230 -192 -520 -192q-163 0 -306 61t-260 173q-112 117 -173 260t-61 306q0 331 234 565q235 235 566 235q333 0 565 -235q235 -234 235 -565q0 -292 -192 -520l175 -175q17 -18 17 -43q0 -26 -17.5 -44t-43.5 -18t-45 19zM1123 469q-17 18 -17 44t18 43.5
t43 17.5t45 -17l189 -190q156 195 156 433q0 280 -199 478q-199 199 -478 199q-278 0 -479 -199q-198 -198 -198 -478q0 -281 198 -479q199 -198 479 -198q238 0 433 156z" />
    <glyph glyph-name="R" unicode="R" horiz-adv-x="1200" 
d="M203 1477v-698h349q144 0 246 102t102 247q0 147 -102 246q-102 103 -246 103h-349zM552 1600q196 0 333 -138q138 -138 138 -334t-137 -333q-65 -65 -160 -108l369 -592q11 -16 11 -33q0 -26 -18 -44t-44 -18q-32 0 -54 33l-391 625q-21 -2 -47 -2h-349v-594
q0 -26 -18 -44t-44 -18q-25 0 -43 18t-18 44v1476q0 26 18 44t43 18h411z" />
    <glyph glyph-name="S" unicode="S" horiz-adv-x="1060" 
d="M80 253q0 26 17.5 44t43.5 18q33 0 53 -28q13 -19 30 -40q45 -52 109 -86.5t160 -37.5q125 0 223 83q53 46 88 110.5t35 158.5q0 126 -83 222q-46 54 -106.5 85t-130.5 37q-78 8 -146.5 43t-119.5 94q-44 54 -68 117t-24 132q2 187 137 301q109 94 254 94q168 0 296 -139
q22 -26 38 -53q9 -15 9 -34q0 -25 -18 -43t-43 -18q-29 0 -41 16q-16 22 -39 50q-75 88 -181 95q-109 7 -195 -64q-86 -72 -93 -179q-4 -55 11 -104t51 -91q36 -43 81.5 -65.5t99.5 -27.5q95 -10 177.5 -52.5t145.5 -113.5q53 -65 82 -141t29 -157q-2 -138 -46.5 -220.5
t-119.5 -145.5q-134 -113 -302 -113q-211 0 -364 167q-17 19 -37 48q-13 17 -13 38z" />
    <glyph glyph-name="T" unicode="T" horiz-adv-x="1360" 
d="M142 1477q-25 0 -43 18t-18 43q0 26 18 44t43 18h1067q26 0 44 -18t18 -44q0 -25 -18 -43t-44 -18h-472v-1415q0 -26 -17.5 -44t-43.5 -18t-44 18t-18 44v1415h-472z" />
    <glyph glyph-name="U" unicode="U" 
d="M81 1538q0 26 18 44t44 18t43.5 -18t17.5 -44v-984q0 -179 127 -305q126 -126 304 -126q179 0 305 126t126 305v984q0 26 18 44t44 18q25 0 43 -18t18 -44v-984q0 -230 -162 -392t-392 -162t-392 162q-81 81 -121.5 178.5t-40.5 213.5v984z" />
    <glyph glyph-name="V" unicode="V" horiz-adv-x="1440" 
d="M760 18q-18 -18 -44 -18q-27 0 -43 18q-6 7 -12 20l-572 1461q-9 23 -9 39q0 26 18 44t44 18q43 0 56 -35l518 -1334l519 1335q12 34 56 34q25 0 43 -18t18 -44q0 -17 -9 -39l-571 -1461q-5 -13 -12 -20z" />
    <glyph glyph-name="W" unicode="W" horiz-adv-x="1920" 
d="M916 1583q19 17 43 17q26 0 44 -17q10 -11 15 -24l352 -1266l351 1266q5 14 16 25q17 16 43 16t43.5 -18t17.5 -44q0 -13 -5 -30l-402 -1454q-6 -22 -20 -36q-20 -18 -44 -18q-26 0 -44 18q-14 15 -20 35l-347 1252l-345 -1251q-7 -21 -21 -36q-19 -18 -44 -18t-43 18
q-15 15 -21 35l-403 1455q-5 17 -5 30q0 26 18 44t44 18t44 -17q10 -11 14 -24l352 -1266l352 1267q3 11 15 23z" />
    <glyph glyph-name="X" unicode="X" horiz-adv-x="1440" 
d="M716 901l523 672q23 27 52 27q25 0 43 -18t18 -44q0 -20 -10 -35l-547 -703l544 -699q13 -16 13 -39q0 -26 -18 -44t-43 -18q-29 0 -47 21l-528 677l-528 -677q-17 -21 -46 -21q-26 0 -44 18t-18 44q0 22 14 39l543 699l-546 704q-11 13 -11 34q0 26 18 44t44 18
q30 0 51 -27z" />
    <glyph glyph-name="Y" unicode="Y" 
d="M697 62q0 -26 -18 -44t-44 -18t-43.5 18t-17.5 44v720l-483 722q-10 16 -10 34q0 26 18 44t44 18q30 0 49 -25l443 -664l443 664q18 25 50 25q25 0 43 -18t18 -44q0 -20 -10 -34l-482 -722v-720z" />
    <glyph glyph-name="Z" unicode="Z" horiz-adv-x="1440" 
d="M142 1477q-26 0 -44 18t-18 43q0 26 18 44t44 18h1149q25 0 43 -18t18 -44q0 -20 -10 -34l-1074 -1381h1023q25 0 43 -18t18 -43q0 -26 -18 -44t-43 -18h-1149q-26 0 -44 18t-18 44q0 20 14 39l1070 1376h-1022z" />
    <glyph glyph-name="bracketleft" unicode="[" horiz-adv-x="640" 
d="M492 1602q26 0 44 -18t18 -44t-18 -44.5t-44 -18.5h-270v-1832h270q26 0 44 -18.5t18 -44.5t-18 -44t-44 -18h-332q-26 0 -44 18t-18 44v1958q0 26 18 44t44 18h332z" />
    <glyph glyph-name="backslash" unicode="\" horiz-adv-x="960" 
d="M877 -77q6 -14 6 -27q0 -26 -18 -44t-44 -18t-44 16q-8 9 -12 18l-665 1643q-5 13 -5 28q0 26 18 44t44 18t45 -18q8 -8 11 -16z" />
    <glyph glyph-name="bracketright" unicode="]" horiz-adv-x="640" 
d="M554 -418q0 -26 -18 -44t-44 -18h-332q-26 0 -44 18t-18 44t18 44.5t44 18.5h270v1832h-270q-26 0 -44 18.5t-18 44.5t18 44t44 18h332q26 0 44 -18t18 -44v-1958z" />
    <glyph glyph-name="asciicircum" unicode="^" horiz-adv-x="960" 
d="M489 1428l-283 -426q-19 -22 -49 -22q-26 0 -44 18t-18 44q0 18 8 32l336 503q9 11 21 18t29 7t29 -7t21 -18l336 -503q8 -14 8 -32q0 -26 -18 -44t-44 -18q-32 0 -49 22z" />
    <glyph glyph-name="underscore" unicode="_" horiz-adv-x="960" 
d="M-9 -126q-26 0 -44 18t-18 44t18 44.5t44 18.5h996q26 0 44 -18.5t18 -44.5t-18 -44t-44 -18h-996z" />
    <glyph glyph-name="grave" unicode="`" horiz-adv-x="560" 
d="M99 1539q0 26 18 44t44 18t44 -18l252 -252q15 -17 15 -41q0 -26 -18 -44.5t-44 -18.5q-24 0 -43 16l-252 252q-8 9 -12 20.5t-4 23.5z" />
    <glyph glyph-name="a" unicode="a" 
d="M640 996q-180 0 -308 -128t-128 -308t128 -308t308 -128t308 128q127 127 127 308t-127 308q-128 128 -308 128zM1075 203q-202 -203 -435 -203q-232 0 -396 164t-164 396t164 396t396 164t396 -164t164 -396v-498q0 -26 -18 -44t-44 -18t-44.5 18t-18.5 44v141z" />
    <glyph glyph-name="b" unicode="b" 
d="M640 124q180 0 308 128q127 127 127 308t-127 308q-128 128 -308 128t-308 -128t-128 -308t128 -308t308 -128zM204 917l40 39q164 164 396 164t396 -164t164 -396t-164 -396t-396 -164t-396 164t-164 396v978q0 26 18 44t44 18t44 -18t18 -44v-621z" />
    <glyph glyph-name="c" unicode="c" horiz-adv-x="1120" 
d="M962 243q26 0 44 -18.5t18 -44.5t-19 -45q-76 -65 -169 -100t-196 -35q-232 0 -396 164t-164 396t164 396t396 164q103 0 196.5 -35t168.5 -100q9 -9 15.5 -22t6.5 -27q0 -26 -18 -44t-44 -18q-24 0 -40 15q-122 107 -285 107q-180 0 -308 -128q-127 -127 -127 -308
t127 -308q128 -128 308 -128q79 0 152.5 29t132.5 78q15 12 37 12z" />
    <glyph glyph-name="d" unicode="d" 
d="M1075 560q0 181 -127 308q-128 128 -308 128t-308 -128t-128 -308t128 -308t308 -128t308 128q127 127 127 308zM1075 1538q0 26 18.5 44t44.5 18t44 -18t18 -44v-978q0 -232 -164 -396t-396 -164t-396 164t-164 396t164 396t396 164t396 -164l39 -39v621z" />
    <glyph glyph-name="e" unicode="e" 
d="M1073 622q-28 149 -125 246q-128 128 -308 128t-308 -128q-96 -96 -126 -246h867zM959 241q26 0 44 -18.5t18 -44.5t-16 -43q-156 -135 -365 -135q-232 0 -396 164t-164 396t164 396t396 164t396 -164t164 -396q0 -26 -18 -44t-44 -18h-932q30 -150 126 -246
q128 -128 308 -128q82 0 152 26.5t128 76.5q17 14 39 14z" />
    <glyph glyph-name="f" unicode="f" horiz-adv-x="800" 
d="M727 1600q26 0 44 -18t18 -44t-18 -44.5t-44 -18.5q-353 0 -353 -352v-65h271q26 0 44 -18t18 -44t-18 -44.5t-44 -18.5h-271v-871q0 -26 -18 -44t-44 -18t-44.5 18t-18.5 44v871h-103q-26 0 -44 18.5t-18 44.5t18 44t44 18h103v65q0 477 478 477z" />
    <glyph glyph-name="g" unicode="g" 
d="M640 996q-180 0 -308 -127q-128 -128 -128 -308q0 -179 128 -307t308 -128t308 128q127 127 127 307q0 181 -127 308q-128 127 -308 127zM1075 205q-183 -202 -435 -202q-232 0 -396 163q-164 164 -164 395q0 232 164 395q164 164 396 164t396 -164q164 -163 164 -395
v-566q0 -172 -125 -299q-176 -176 -426 -176t-425 176q-65 62 -105 135q-11 19 -11 37q0 26 18 44t44 18t45 -19q8 -7 14 -19q34 -60 83 -109q70 -70 154.5 -104.5t182.5 -34.5q198 0 338 140q88 106 88 211v210z" />
    <glyph glyph-name="h" unicode="h" horiz-adv-x="1200" 
d="M81 1540q0 26 18 44t44 18t44 -18t18 -44v-598q184 178 394 178q216 0 366 -152q153 -152 153 -367v-539q0 -26 -18.5 -44t-44.5 -18t-44 18t-18 44v539q0 165 -116 278q-116 117 -278 117t-279 -117q-115 -114 -115 -278v-539q0 -26 -18 -44t-44 -18t-44 18t-18 44v1478
z" />
    <glyph glyph-name="i" unicode="i" horiz-adv-x="480" 
d="M315 1390q0 -35 -24 -59t-59 -24q-34 0 -58.5 24t-24.5 59q0 34 24.5 58.5t58.5 24.5q35 0 59 -24.5t24 -58.5zM170 1058q0 26 18 44t44 18t44.5 -18t18.5 -44v-996q0 -26 -18.5 -44t-44.5 -18t-44 18t-18 44v996z" />
    <glyph glyph-name="j" unicode="j" horiz-adv-x="656" 
d="M563 1390q0 -35 -24 -59t-59 -24q-34 0 -58.5 24t-24.5 59q0 34 24.5 58.5t58.5 24.5q35 0 59 -24.5t24 -58.5zM418 1058q0 26 18 44t44 18t44.5 -18t18.5 -44v-1061q0 -197 -140 -337t-337 -140q-26 0 -44.5 18t-18.5 44t18.5 44.5t44.5 18.5q146 0 248 103
q104 103 104 249v1061z" />
    <glyph glyph-name="k" unicode="k" horiz-adv-x="1120" 
d="M206 634l734 477q14 9 33 9q26 0 44 -18t18 -44q0 -32 -20 -47l-506 -331l509 -574q17 -18 17 -44t-18 -44t-44 -18t-45 20l-527 592l-195 -127v-423q0 -26 -18 -44t-44 -18t-44.5 18t-18.5 44v1478q0 26 18.5 44t44.5 18t44 -18t18 -44v-906z" />
    <glyph glyph-name="l" unicode="l" horiz-adv-x="480" 
d="M87 1540q0 26 18 44t44 18t44.5 -18t18.5 -44v-1416h103q26 0 44.5 -18t18.5 -44t-18.5 -44t-44.5 -18h-166q-26 0 -44 18t-18 44v1478z" />
    <glyph glyph-name="m" unicode="m" horiz-adv-x="1760" 
d="M200 62q0 -26 -18 -44t-44 -18t-44.5 18t-18.5 44v996q0 26 18.5 44t44.5 18t44 -18t18 -44v-67q152 129 311 129q180 0 308 -128q31 -32 65 -78q34 46 66 78q128 128 308 128t308 -128q127 -127 127 -308v-622q0 -26 -18 -44t-44 -18t-44 18t-18 44v622q0 129 -92 220
q-92 92 -219 92q-128 0 -220 -92q-91 -91 -91 -220v-622q0 -26 -18.5 -44t-44.5 -18t-44 18t-18 44v622q0 129 -91 220q-92 92 -220 92t-220 -92q-91 -91 -91 -220v-622z" />
    <glyph glyph-name="n" unicode="n" horiz-adv-x="1200" 
d="M81 1058q0 26 18 44t44 18t44 -18t18 -44v-116q184 178 394 178q216 0 366 -152q153 -152 153 -367v-539q0 -26 -18.5 -44t-44.5 -18t-44 18t-18 44v539q0 165 -116 278q-116 117 -278 117t-279 -117q-115 -114 -115 -278v-539q0 -26 -18 -44t-44 -18t-44 18t-18 44v996z
" />
    <glyph glyph-name="o" unicode="o" 
d="M1200 560q0 -232 -164 -396t-396 -164t-396 164t-164 396t164 396t396 164t396 -164t164 -396zM640 996q-180 0 -308 -128t-128 -308t128 -308t308 -128t308 128q127 127 127 308t-127 308q-128 128 -308 128z" />
    <glyph glyph-name="p" unicode="p" 
d="M204 560q0 -180 128 -308t308 -128t308 128q127 127 127 308t-127 308q-128 128 -308 128t-308 -128t-128 -308zM204 -418q0 -26 -18 -44t-44 -18t-44 18t-18 44v978q0 232 164 396t396 164t396 -164t164 -396t-164 -396t-396 -164t-396 164l-40 39v-621z" />
    <glyph glyph-name="q" unicode="q" 
d="M640 996q-180 0 -308 -128t-128 -308t128 -308t308 -128t308 128q127 127 127 308t-127 308q-128 128 -308 128zM1075 203l-39 -39q-164 -164 -396 -164t-396 164t-164 396t164 396t396 164t396 -164t164 -396v-978q0 -26 -18 -44t-44 -18t-44.5 18t-18.5 44v621z" />
    <glyph glyph-name="r" unicode="r" horiz-adv-x="960" 
d="M83 1058q0 26 18 44t44 18t44 -18t18 -44v-141q203 203 436 203q125 0 214 -39q16 -6 29 -19q17 -17 17 -44q0 -26 -18 -44t-44 -18q-16 0 -28 6q-70 34 -170 34q-180 0 -308 -128q-128 -127 -128 -308v-498q0 -26 -18 -44t-44 -18t-44 18t-18 44v996z" />
    <glyph glyph-name="s" unicode="s" horiz-adv-x="1060" 
d="M273 580h1q-46 17 -77 33.5t-48 34.5q-67 69 -67 161q0 93 70 165q144 146 376 146q124 0 233 -52.5t197 -148.5q11 -14 11 -35q0 -26 -18.5 -44.5t-44.5 -18.5q-25 0 -39 16l-31 31q-128 128 -308 128q-181 0 -291 -116q-30 -35 -30 -86q2 -30 18 -52t47 -33l511 -169
h-1q46 -17 77 -33.5t47 -34.5q68 -68 68 -161q0 -94 -71 -165q-143 -146 -375 -146q-251 0 -430 200q-11 15 -11 36q0 26 18 44.5t44 18.5q24 0 40 -16l31 -31q128 -128 308 -128t289 115q31 35 31 86q-5 64 -65 86z" />
    <glyph glyph-name="t" unicode="t" horiz-adv-x="800" 
d="M644 124q26 0 44.5 -18t18.5 -44t-18.5 -44t-44.5 -18q-394 0 -394 394v602h-103q-26 0 -44.5 18t-18.5 44t18.5 44t44.5 18h103v419q0 26 18 44t44 18t44.5 -18t18.5 -44v-419h187q26 0 44.5 -18t18.5 -44t-18.5 -44t-44.5 -18h-187v-602q0 -270 269 -270z" />
    <glyph glyph-name="u" unicode="u" horiz-adv-x="1200" 
d="M1118 62q0 -26 -18.5 -44t-44.5 -18t-44 18t-18 44v116q-184 -178 -394 -178q-213 0 -367 151q-151 152 -151 368v539q0 26 18 44t44 18t44 -18t18 -44v-539q0 -164 115 -279q119 -116 279 -116q162 0 278 116q116 115 116 279v539q0 26 18 44t44 18t44.5 -18t18.5 -44
v-996z" />
    <glyph glyph-name="v" unicode="v" horiz-adv-x="1200" 
d="M642 15q-15 -15 -43 -15q-27 0 -44 17q-7 7 -10 14l-460 1003q-4 10 -4 24q0 26 18 44t44 18t45 -17q6 -6 11 -16l400 -875l400 875q4 8 11 15q19 18 45 18t44.5 -17.5t18.5 -44.5q0 -13 -5 -24l-460 -1003q-4 -9 -11 -16z" />
    <glyph glyph-name="w" unicode="w" horiz-adv-x="1600" 
d="M760 1103q18 17 43 17q26 0 43 -17q12 -12 18 -31l271 -813l274 825q4 10 12 18q18 18 46 18q26 0 44 -18t18 -44q0 -12 -5 -26l-331 -993q-4 -12 -15 -23q-16 -16 -43 -16t-44 17q-9 9 -14 22l-274 822l-274 -822q-4 -12 -13 -21q-18 -18 -45 -18t-44 17q-9 9 -14 22
l-331 993q-5 15 -5 26q0 26 18 44t44 18t45 -18q7 -7 12 -19l275 -824l271 813q7 20 18 31z" />
    <glyph glyph-name="x" unicode="x" horiz-adv-x="1120" 
d="M477 561l-381 456q-15 16 -15 41q0 26 18.5 44t44.5 18t45 -19l369 -442l370 442q19 19 45 19t44 -18t18 -44q0 -24 -14 -41l-382 -456l385 -461q11 -17 11 -38q0 -26 -18 -44t-44 -18t-42 19l-373 445l-372 -445q-16 -19 -42 -19t-44.5 18t-18.5 44q0 21 12 38z" />
    <glyph glyph-name="y" unicode="y" horiz-adv-x="1120" 
d="M490 63l-405 970q-4 13 -4 25q0 26 18.5 44t44.5 18t44 -18q9 -9 15 -25l355 -850l355 850q6 16 17 27q16 16 43 16q26 0 44 -18t19 -44q0 -10 -4 -22l-616 -1474q-5 -14 -14 -23q-19 -19 -45 -19t-44 18t-18 44q0 13 4 22z" />
    <glyph glyph-name="z" unicode="z" horiz-adv-x="1120" 
d="M973 124q26 0 44 -18t18 -44t-18 -44t-44 -18h-829q-26 0 -44.5 18t-18.5 44q0 21 12 38l746 896h-695q-26 0 -44.5 18t-18.5 44t18.5 44t44.5 18h829q26 0 44 -18t18 -44q0 -24 -14 -41l-746 -893h698z" />
    <glyph glyph-name="braceleft" unicode="{" horiz-adv-x="800" 
d="M644 1601q26 0 44.5 -18t18.5 -44t-18.5 -44.5t-44.5 -18.5q-186 0 -186 -186v-481q0 -159 -92 -249q92 -90 92 -249v-480q0 -186 186 -186q26 0 44.5 -18.5t18.5 -44.5t-18.5 -44t-44.5 -18q-311 0 -311 311v480q0 187 -186 187q-26 0 -44.5 18t-18.5 44t18.5 44
t44.5 18q186 0 186 187v481q0 311 311 311z" />
    <glyph glyph-name="bar" unicode="|" horiz-adv-x="800" 
d="M333 1540q0 26 18 44t44 18t44.5 -18t18.5 -44v-1958q0 -26 -18.5 -44t-44.5 -18t-44 18t-18 44v1958z" />
    <glyph glyph-name="braceright" unicode="}" horiz-adv-x="800" 
d="M458 809q0 -187 186 -187q26 0 44.5 -18t18.5 -44t-18.5 -44t-44.5 -18q-186 0 -186 -187v-480q0 -311 -311 -311q-26 0 -44.5 18t-18.5 44t18.5 44.5t44.5 18.5q186 0 186 186v480q0 158 91 249q-91 91 -91 249v481q0 186 -186 186q-26 0 -44.5 18.5t-18.5 44.5t18.5 44
t44.5 18q311 0 311 -311v-481z" />
    <glyph glyph-name="asciitilde" unicode="~" horiz-adv-x="960" 
d="M517 707q-87 -78 -206 -78q-129 0 -221 92q-8 9 -12 20.5t-4 22.5q0 26 18 44.5t44 18.5q25 0 43 -17q56 -56 132 -56q67 0 116 40q88 79 208 79q129 0 220 -91q17 -18 17 -44t-18 -44t-44 -18t-44 17q-54 56 -131 56q-65 0 -118 -42z" />
    <glyph glyph-name="exclamdown" unicode="&#xa1;" horiz-adv-x="400" 
d="M192 912q-44 0 -74 30q-30 28 -30 73q0 44 30 74t74 30t73 -30q30 -30 30 -74q0 -45 -30 -73q-29 -30 -73 -30zM129 726q0 24 19 42.5t44 18.5q26 0 44 -18t18 -43v-1144q0 -26 -18 -44t-44 -18t-44.5 18t-18.5 44v1144z" />
    <glyph glyph-name="cent" unicode="&#xa2;" horiz-adv-x="1120" 
d="M665 997q-204 -8 -324 -129q-128 -127 -128 -308q0 -178 147 -328zM169 -246l142 358q-31 23 -59 52q-163 163 -163 396t163 396q164 164 397 164q37 0 64 -3l119 296q11 25 34 35q9 4 24 4q26 0 44 -18.5t18 -43.5q0 -10 -5 -23l-110 -277q51 -20 96 -47t81 -58
q10 -9 15.5 -22t5.5 -27q0 -26 -18 -44t-44 -18q-22 0 -40 15q-57 50 -142 84l-325 -810q94 -39 183 -39q78 0 151.5 29t132.5 78q15 12 37 12q26 0 44 -18.5t18 -44.5q0 -25 -18 -45q-77 -65 -169.5 -100t-195.5 -35q-112 0 -229 48l-135 -340q-4 -13 -15 -24
q-18 -18 -44 -18t-44 18t-18 44q0 14 5 26z" />
    <glyph glyph-name="sterling" unicode="&#xa3;" horiz-adv-x="1040" 
d="M227 0q-26 0 -44 18t-18 43q0 11 5 26q124 287 118 571h-144q-26 0 -44 18t-18 43q0 26 18 44t44 18h134q-29 154 -84 285l1 -1q-30 75 -30 148q0 162 115 276q58 57 127 85.5t152 28.5t152 -28.5t127 -85.5q29 -30 51 -61q12 -17 12 -39q0 -26 -18 -43.5t-44 -17.5
q-29 0 -44 19q-18 26 -45 55q-80 77 -191 77t-191 -79q-79 -77 -79 -187q0 -26 5.5 -51t16.5 -50q32 -75 55 -158t37 -173h322q26 0 44 -18t18 -44q0 -25 -18 -43t-44 -18h-312q1 -129 -22 -262t-72 -273h450l68 135q14 29 54 29q26 0 44 -17.5t18 -43.5q0 -17 -7 -30
l-80 -159q-5 -10 -13 -18q-19 -19 -45 -19h-581z" />
    <glyph glyph-name="currency" unicode="&#xa4;" horiz-adv-x="960" 
d="M477 944q-77 0 -132 -55q-55 -57 -55 -132t55 -132q55 -55 132 -55q75 0 132 55q55 57 55 132t-55 132q-57 55 -132 55zM734 1101q19 19 44 19q26 0 44 -18t18 -44t-19 -46l-85 -80q52 -86 52 -175q0 -84 -49 -170l83 -86q18 -19 18 -45t-18 -44t-44 -18t-42 17l-84 87
q-86 -52 -175 -52q-86 0 -169 49l-91 -86q-16 -15 -41 -15q-26 0 -44 18t-18 44t19 44l87 81q-28 43 -41 86.5t-13 89.5q0 87 49 170l-82 87q-19 18 -19 44t18 44t44 18t43 -16l83 -88q83 52 175 52q87 0 170 -49z" />
    <glyph glyph-name="yen" unicode="&#xa5;" 
d="M142 905q-26 0 -44 17.5t-18 43.5t18 43.5t44 17.5h272l-325 479q-9 15 -9 36q0 25 18 43t44 18q31 0 50 -25l448 -666l448 666q17 25 50 25q26 0 44 -18t18 -43q0 -21 -11 -36l-323 -479h273q25 0 43 -18t18 -43q0 -26 -18 -44q-18 -17 -43 -17h-356l-81 -121v-168h436
q26 0 44 -17.5t18 -43.5t-18 -44t-44 -18h-436v-432q0 -25 -18 -43t-44 -18t-44 18t-18 43v432h-436q-26 0 -44 18t-18 44t18 43.5t44 17.5h436v168l-81 121h-355z" />
    <glyph glyph-name="brokenbar" unicode="&#xa6;" horiz-adv-x="480" 
d="M170 1721q0 26 18 44.5t44 18.5t44.5 -18.5t18.5 -44.5v-746q0 -26 -18.5 -44t-44.5 -18t-44 18t-18 44v746zM295 -418q0 -26 -18.5 -44t-44.5 -18t-44 18t-18 44v729q0 26 18 44t44 18t44.5 -18t18.5 -44v-729z" />
    <glyph glyph-name="section" unicode="&#xa7;" horiz-adv-x="960" 
d="M477 172q-164 0 -279 113t-115 275q0 161 115 274q34 33 64 52q-30 19 -64 52q-115 112 -115 275q0 161 115 274q58 56 127 84.5t152 28.5t152 -28.5t127 -84.5q115 -113 115 -274q0 -26 -18 -44t-44 -18t-44 18t-18 44q0 109 -80 185q-80 79 -190 79q-111 0 -191 -79
q-79 -76 -79 -185q0 -111 79 -188q79 -78 191 -78q164 0 279 -113t115 -274q0 -162 -115 -275q-33 -33 -64 -52q31 -19 64 -52q115 -112 115 -274q0 -161 -115 -274q-58 -56 -127 -84.5t-152 -28.5t-152 28.5t-127 84.5q-115 113 -115 274q0 26 18 44t44 18t44 -18t18 -44
q0 -109 79 -185q80 -79 191 -79q110 0 190 79q80 76 80 185q0 108 -80 186q-80 79 -190 79zM477 825q-111 0 -191 -79q-79 -77 -79 -186q0 -111 79 -188q79 -78 191 -78q111 0 190 78q80 78 80 188q0 108 -80 186q-80 79 -190 79z" />
    <glyph glyph-name="dieresis" unicode="&#xa8;" horiz-adv-x="960" 
d="M310 1390q0 -35 -24 -59t-59 -24t-59 24t-24 59q0 34 24 58.5t59 24.5t59 -24.5t24 -58.5zM808 1390q0 -35 -24.5 -59t-58.5 -24q-35 0 -59 24t-24 59q0 34 24 58.5t59 24.5q34 0 58.5 -24.5t24.5 -58.5z" />
    <glyph glyph-name="copyright" unicode="&#xa9;" horiz-adv-x="1760" 
d="M1199 489q26 0 44 -18.5t18 -44.5q0 -25 -19 -44q-76 -65 -168.5 -100t-194.5 -35q-231 0 -394 163t-163 394t163 394t394 163q102 0 195 -35t168 -100q22 -19 22 -48q0 -26 -18 -44t-44 -18q-23 0 -39 14q-121 106 -284 106q-180 0 -306 -126t-126 -306t126 -306
q127 -127 306 -127q78 0 151.5 28.5t130.5 77.5q16 12 38 12zM1678 802q0 -332 -235 -568q-235 -234 -566 -234q-332 0 -567 234q-235 236 -235 568q0 333 235 565q233 236 567 236q332 0 566 -236q235 -232 235 -565zM877 1518q-296 0 -507 -211q-209 -209 -209 -505
q0 -297 209 -507q212 -210 507 -210t505 210q211 211 211 507q0 297 -211 505q-208 211 -505 211z" />
    <glyph glyph-name="ordfeminine" unicode="&#xaa;" horiz-adv-x="960" 
d="M477 1493q-111 0 -191 -80q-79 -78 -79 -189q0 -112 79 -191t191 -79q111 0 190 79q80 80 80 191t-80 189q-80 80 -190 80zM747 939q-112 -109 -270 -109q-164 0 -279 115q-115 114 -115 279q0 164 115 279q58 57 127 86t152 29t152 -29t127 -86q115 -115 115 -279v-332
q0 -26 -18 -44t-44 -18t-44 18t-18 43v48z" />
    <glyph glyph-name="guillemotleft" unicode="&#xab;" horiz-adv-x="960" 
d="M336 1080q7 14 14 21q18 18 44 18t44 -18t18 -44q0 -15 -5 -26l-236 -471l236 -472q5 -11 5 -26q0 -26 -18 -44t-44 -18q-25 0 -40 14q-9 9 -18 24l-243 486q-10 19 -10 35t8 31zM760 1080q7 14 14 21q18 18 44 18t44 -18t18 -44q0 -15 -5 -26l-236 -471l236 -472
q5 -11 5 -26q0 -26 -18 -44t-44 -18q-25 0 -40 14q-9 9 -18 24l-243 486q-10 19 -10 35t8 31z" />
    <glyph glyph-name="logicalnot" unicode="&#xac;" horiz-adv-x="1120" 
d="M144 996q-26 0 -44.5 18t-18.5 44t18.5 44t44.5 18h829q26 0 44 -18t18 -44v-332q0 -26 -18 -44t-44 -18t-44 18t-18 44v270h-767z" />
    <glyph glyph-name="registered" unicode="&#xae;" horiz-adv-x="1760" 
d="M1681 800q0 -331 -234 -567q-235 -233 -565 -233q-331 0 -566 233q-234 236 -234 567q0 332 234 564q233 235 566 235q331 0 565 -235q234 -232 234 -564zM882 1514q-295 0 -506 -210q-208 -209 -208 -504q0 -296 208 -506q212 -209 506 -209t504 209q210 211 210 506
q0 296 -210 504q-208 210 -504 210zM643 1251v-472h236q97 0 167 70q70 68 70 167q0 96 -70 167q-71 68 -167 68h-236zM879 1317q126 0 214 -88q89 -88 89 -213q0 -62 -22 -116t-67 -99q-21 -21 -49 -39.5t-61 -33.5l246 -394q7 -10 7 -20q0 -14 -10 -23.5t-23 -9.5
q-20 0 -30 17l-260 418q-18 -3 -34 -3h-236v-399q0 -14 -10.5 -23.5t-24.5 -9.5q-12 0 -22 9.5t-10 23.5v971q0 14 10 23t22 9h271z" />
    <glyph glyph-name="macron" unicode="&#xaf;" horiz-adv-x="1120" 
d="M144 1825q-26 0 -44.5 18t-18.5 44t18.5 44.5t44.5 18.5h829q26 0 44 -18.5t18 -44.5t-18 -44t-44 -18h-829z" />
    <glyph glyph-name="degree" unicode="&#xb0;" horiz-adv-x="960" 
d="M871 1224q0 -165 -115 -279q-115 -115 -279 -115t-279 115q-115 114 -115 279q0 164 115 279q58 57 127 86t152 29t152 -29t127 -86q115 -115 115 -279zM477 1493q-111 0 -191 -80q-79 -78 -79 -189q0 -112 79 -191t191 -79q111 0 190 79q80 80 80 191t-80 189
q-80 80 -190 80z" />
    <glyph glyph-name="plusminus" unicode="&#xb1;" horiz-adv-x="1120" 
d="M496 1224q0 26 18 44t44 18t44.5 -18t18.5 -44v-353h352q26 0 44 -18t18 -44t-18 -44t-44 -18h-352v-353q0 -26 -18.5 -44t-44.5 -18t-44 18t-18 44v353h-352q-26 0 -44.5 18t-18.5 44t18.5 44t44.5 18h352v353zM144 0q-26 0 -44.5 18t-18.5 44t18.5 44t44.5 18h829
q26 0 44 -18t18 -44t-18 -44t-44 -18h-829z" />
    <glyph glyph-name="uni00B2" unicode="&#xb2;" horiz-adv-x="640" 
d="M517 878q8 0 14 -5.5t6 -13.5q0 -10 -6 -15.5t-14 -5.5h-410q-21 0 -21 21q0 7 6 15q87 96 175 194.5t176 193.5q25 26 39 60t14 70q0 76 -54 130q-55 55 -130 55q-78 0 -132 -55q-54 -54 -54 -130q0 -8 -5.5 -14t-13.5 -6q-10 0 -15.5 6t-5.5 14q0 94 65 159
q67 67 161 67q93 0 159 -67q66 -65 66 -159q0 -93 -67 -161l-318 -353h365z" />
    <glyph glyph-name="uni00B3" unicode="&#xb3;" horiz-adv-x="640" 
d="M314 1245q-10 0 -15.5 6t-5.5 15q0 8 5.5 14.5t15.5 6.5q60 0 102 42t42 102q0 61 -42 103t-102 42q-61 0 -103 -42t-42 -103q0 -8 -6.5 -14t-14.5 -6q-9 0 -15 6t-6 14q0 78 54 132q55 55 133 55q39 0 71 -14t60 -41q55 -55 55 -132q0 -85 -91 -164q23 -14 40 -26
t26 -20q66 -68 66 -162t-66 -161q-66 -66 -161 -66q-96 0 -162 66q-66 67 -66 161q0 8 5.5 14.5t15.5 6.5q8 0 14 -6.5t6 -14.5q0 -78 54 -132t133 -54q75 0 131 54q55 55 55 132q0 39 -14 71.5t-41 60.5q-56 54 -131 54z" />
    <glyph glyph-name="acute" unicode="&#xb4;" horiz-adv-x="560" 
d="M191 1241q-17 -16 -42 -16q-26 0 -44 18.5t-18 44.5q0 25 14 41l252 252q18 18 45 18q26 0 44 -18t18 -44q0 -12 -4 -23.5t-13 -20.5z" />
    <glyph glyph-name="mu" unicode="&#xb5;" horiz-adv-x="1200" 
d="M205 519q0 -164 115 -279q119 -116 279 -116q162 0 278 116q116 115 116 279v539q0 26 18 44t44 18t44.5 -18t18.5 -44v-996q0 -26 -18.5 -44t-44.5 -18t-44 18t-18 44v116q-184 -178 -394 -178t-394 178v-596q0 -26 -18 -44t-44 -18t-44 18t-18 44v1476q0 26 18 44
t44 18t44 -18t18 -44v-539z" />
    <glyph glyph-name="paragraph" unicode="&#xb6;" horiz-adv-x="1120" 
d="M952 62q0 -26 -18 -44t-44 -18t-44 18t-18 44v1414h-207v-1414q0 -26 -18.5 -44t-44.5 -18t-44 18t-18 44v751q-185 0 -300 115t-115 279q0 83 29 152t86 127q58 57 127 86t152 29h498q26 0 44 -18t18 -44t-24 -44.5t-59 -18.5v-1414z" />
    <glyph glyph-name="periodcentered" unicode="&#xb7;" horiz-adv-x="400" 
d="M295 767q0 -45 -30 -73q-29 -30 -73 -30t-74 30q-30 28 -30 73q0 44 30 74t74 30t73 -30q30 -30 30 -74z" />
    <glyph glyph-name="periodcentered" unicode="&#x2219;" horiz-adv-x="400" 
d="M295 767q0 -45 -30 -73q-29 -30 -73 -30t-74 30q-30 28 -30 73q0 44 30 74t74 30t73 -30q30 -30 30 -74z" />
    <glyph glyph-name="cedilla" unicode="&#xb8;" horiz-adv-x="640" 
d="M312 60q17 17 43 17t44.5 -18t18.5 -44q0 -8 -2 -16l-21 -78q51 -22 82 -46q65 -57 65 -140q0 -81 -66 -139q-67 -58 -162 -58q-53 0 -109 28l-91 54q-28 20 -28 53q0 26 18 44t44 18q19 0 34 -9l81 -51q24 -12 51 -12q43 0 73.5 19.5t30.5 52.5q0 34 -30.5 53.5
t-73.5 19.5q-26 0 -44 18t-18 44q0 11 3 20l40 143q5 15 17 27z" />
    <glyph glyph-name="uni00B9" unicode="&#xb9;" horiz-adv-x="480" 
d="M148 1535q-8 0 -14 6t-6 14t6 14q3 3 7 5l124 43q4 1 8 1q8 0 14.5 -6.5t6.5 -14.5v-741q0 -10 -6.5 -15.5t-14.5 -5.5t-14 5.5t-6 15.5v713l-96 -32q-4 -2 -9 -2z" />
    <glyph glyph-name="ordmasculine" unicode="&#xba;" horiz-adv-x="640" 
d="M86 1227q0 239 95 337q55 54 132 54q39 0 71 -13.5t60 -40.5q95 -98 95 -337q0 -240 -95 -338q-54 -54 -131 -54q-78 0 -132 54q-95 98 -95 338zM313 1577q-61 0 -104 -44q-82 -93 -82 -306q0 -215 82 -308q43 -43 104 -43q59 0 102 43q84 94 84 308q0 210 -84 306
q-43 44 -102 44z" />
    <glyph glyph-name="guillemotright" unicode="&#xbb;" horiz-adv-x="960" 
d="M872 590q8 -15 8 -31t-10 -35l-243 -486q-9 -15 -18 -24q-15 -14 -40 -14q-26 0 -44 18t-18 44q0 15 5 26l236 472l-236 471q-5 11 -5 26q0 26 18 44t44 18t44 -18q7 -7 14 -21zM448 590q8 -15 8 -31t-10 -35l-243 -486q-9 -15 -18 -24q-15 -14 -40 -14q-26 0 -44 18
t-18 44q0 15 5 26l236 472l-236 471q-5 11 -5 26q0 26 18 44t44 18t44 -18q7 -7 14 -21z" />
    <glyph glyph-name="onequarter" unicode="&#xbc;" horiz-adv-x="1440" 
d="M1219 1618q26 0 44 -18t18 -44q0 -19 -9 -35l-993 -1488q-23 -33 -55 -33q-26 0 -44.5 18t-18.5 44q0 20 10 34l999 1499q8 11 20 17t29 6zM286 693q0 -13 -8.5 -21t-20.5 -8q-13 0 -21 8t-8 21v855l-107 -35q-6 -2 -14 -2q-12 0 -20.5 8t-8.5 21t9 21q4 4 11 7l147 49
q6 2 12 2q12 0 20.5 -8.5t8.5 -20.5v-897zM1157 307v524l-362 -524h362zM738 249q-13 0 -21 8t-8 21q0 9 5 17l451 651q7 8 21 8q13 0 21 -8t8 -21v-618h120q13 0 21 -8t8 -21t-8 -21t-21 -8h-120v-220q0 -13 -8 -21t-21 -8t-21 8t-8 21v220h-419z" />
    <glyph glyph-name="onehalf" unicode="&#xbd;" horiz-adv-x="1600" 
d="M1500 58q11 0 20 -8t9 -21t-9 -21t-20 -8h-499q-13 0 -21 8t-8 21t8 21l426 472q65 65 65 155q0 93 -66 156q-64 64 -155 64q-90 0 -156 -64q-64 -66 -64 -156q0 -12 -8.5 -20.5t-20.5 -8.5q-13 0 -21 8.5t-8 20.5q0 115 81 196q82 82 197 82q116 0 197 -82
q82 -81 82 -196q0 -116 -83 -199l-379 -420h433zM286 693q0 -13 -8.5 -21t-20.5 -8q-13 0 -21 8t-8 21v855l-107 -35q-6 -2 -14 -2q-12 0 -20.5 8t-8.5 21t9 21q4 4 11 7l147 49q6 2 12 2q12 0 20.5 -8.5t8.5 -20.5v-897zM1219 1618q26 0 44 -18t18 -44q0 -19 -9 -35
l-993 -1488q-23 -33 -55 -33q-26 0 -44.5 18t-18.5 44q0 20 10 34l999 1499q8 11 20 17t29 6z" />
    <glyph glyph-name="threequarters" unicode="&#xbe;" horiz-adv-x="1600" 
d="M354 1160q-13 0 -21 8.5t-8 20.5q0 11 8 19.5t21 8.5q69 0 119 50q51 51 51 121q0 69 -51 119q-50 50 -119 50t-119 -50q-50 -49 -50 -119q0 -13 -9 -21t-20 -8q-13 0 -21 8t-8 21q0 95 66 160q67 67 161 67t161 -67q66 -66 66 -160q0 -95 -66 -161q-17 -18 -40 -35
q40 -18 75 -54q81 -83 81 -197q0 -115 -81 -196t-196 -81t-196 81t-81 196q0 12 8 20.5t21 8.5t21 -8.5t8 -20.5q0 -91 63 -155q66 -64 156 -64t154 64q65 65 65 155q0 92 -65 155q-63 64 -154 64zM1377 1618q26 0 44 -18t18 -44q0 -19 -9 -35l-993 -1488q-23 -33 -55 -33
q-26 0 -44.5 18t-18.5 44q0 20 10 34l999 1499q8 11 20 17t29 6zM1328 307v524l-362 -524h362zM909 249q-13 0 -21 8t-8 21q0 9 5 17l451 651q7 8 21 8q13 0 21 -8t8 -21v-618h120q13 0 21 -8t8 -21t-8 -21t-21 -8h-120v-220q0 -13 -8 -21t-21 -8t-21 8t-8 21v220h-419z" />
    <glyph glyph-name="questiondown" unicode="&#xbf;" horiz-adv-x="1120" 
d="M557 -355q147 0 249 103q104 103 104 249q0 147 -104 250q-43 40 -85.5 80t-85.5 80v-1q-140 140 -140 338q0 26 18 44t44 18t44.5 -18t18.5 -44q0 -148 103 -251l171 -159v1q140 -139 140 -338q0 -99 -34.5 -183.5t-105.5 -153.5q-138 -140 -337 -140q-196 0 -338 140
q-139 139 -139 337q0 26 18.5 44t44.5 18t44 -18t18 -44q0 -146 102 -249q104 -103 250 -103zM558 912q-45 0 -73 30q-30 28 -30 73q0 44 30 74q28 30 73 30q44 0 74 -30t30 -74q0 -45 -30 -73q-30 -30 -74 -30z" />
    <glyph glyph-name="Agrave" unicode="&#xc0;" horiz-adv-x="1440" 
d="M421 574l-209 -536q-6 -14 -14 -22q-17 -16 -43 -16t-44 18t-18 44q0 13 6 27l571 1467q6 16 16 27q17 17 43 17t44 -18q10 -10 16 -26l570 -1467q6 -14 6 -27q0 -26 -18 -44t-43 -18q-26 0 -43 15q-9 9 -15 23l-208 536h-617zM990 697l-261 672l-260 -672h521zM485 2019
q0 26 18 44t44 18t44 -18l252 -252q15 -17 15 -41q0 -26 -18 -44.5t-44 -18.5q-24 0 -43 16l-252 252q-8 9 -12 20.5t-4 23.5z" />
    <glyph glyph-name="Aacute" unicode="&#xc1;" horiz-adv-x="1440" 
d="M421 574l-209 -536q-6 -14 -14 -22q-17 -16 -43 -16t-44 18t-18 44q0 13 6 27l571 1467q6 16 16 27q17 17 43 17t44 -18q10 -10 16 -26l570 -1467q6 -14 6 -27q0 -26 -18 -44t-43 -18q-26 0 -43 15q-9 9 -15 23l-208 536h-617zM990 697l-261 672l-260 -672h521zM711 1721
q-17 -16 -42 -16q-26 0 -44 18.5t-18 44.5q0 25 14 41l252 252q18 18 45 18q26 0 44 -18t18 -44q0 -12 -4 -23.5t-13 -20.5z" />
    <glyph glyph-name="Acircumflex" unicode="&#xc2;" horiz-adv-x="1440" 
d="M421 574l-209 -536q-6 -14 -14 -22q-17 -16 -43 -16t-44 18t-18 44q0 13 6 27l571 1467q6 16 16 27q17 17 43 17t44 -18q10 -10 16 -26l570 -1467q6 -14 6 -27q0 -26 -18 -44t-43 -18q-26 0 -43 15q-9 9 -15 23l-208 536h-617zM990 697l-261 672l-260 -672h521z
M1007 1883q33 -23 33 -55q0 -26 -18.5 -44t-44.5 -18q-22 0 -40 13l-209 139l-209 -139q-18 -13 -39 -13q-26 0 -44.5 18t-18.5 44q0 32 32 55l248 165q14 8 31 8q18 0 32 -8z" />
    <glyph glyph-name="Atilde" unicode="&#xc3;" horiz-adv-x="1440" 
d="M421 574l-209 -536q-6 -14 -14 -22q-17 -16 -43 -16t-44 18t-18 44q0 13 6 27l571 1467q6 16 16 27q17 17 43 17t44 -18q10 -10 16 -26l570 -1467q6 -14 6 -27q0 -26 -18 -44t-43 -18q-26 0 -43 15q-9 9 -15 23l-208 536h-617zM990 697l-261 672l-260 -672h521zM767 1838
q-87 -78 -206 -78q-129 0 -221 92q-8 9 -12 20.5t-4 22.5q0 26 18 44.5t44 18.5q25 0 43 -17q56 -56 132 -56q67 0 116 40q88 79 208 79q129 0 220 -91q17 -18 17 -44t-18 -44t-44 -18t-44 17q-54 56 -131 56q-65 0 -118 -42z" />
    <glyph glyph-name="Adieresis" unicode="&#xc4;" horiz-adv-x="1440" 
d="M421 574l-209 -536q-6 -14 -14 -22q-17 -16 -43 -16t-44 18t-18 44q0 13 6 27l571 1467q6 16 16 27q17 17 43 17t44 -18q10 -10 16 -26l570 -1467q6 -14 6 -27q0 -26 -18 -44t-43 -18q-26 0 -43 15q-9 9 -15 23l-208 536h-617zM990 697l-261 672l-260 -672h521zM564 1870
q0 -35 -24 -59t-59 -24t-59 24t-24 59q0 34 24 58.5t59 24.5t59 -24.5t24 -58.5zM1062 1870q0 -35 -24.5 -59t-58.5 -24q-35 0 -59 24t-24 59q0 34 24 58.5t59 24.5q34 0 58.5 -24.5t24.5 -58.5z" />
    <glyph glyph-name="Aring" unicode="&#xc5;" horiz-adv-x="1440" 
d="M421 574l-209 -536q-6 -14 -14 -22q-17 -16 -43 -16t-44 18t-18 44q0 13 6 27l571 1467q6 16 16 27q17 17 43 17t44 -18q10 -10 16 -26l570 -1467q6 -14 6 -27q0 -26 -18 -44t-43 -18q-26 0 -43 15q-9 9 -15 23l-208 536h-617zM990 697l-261 672l-260 -672h521zM914 1892
q0 -77 -55 -134q-55 -55 -133 -55q-77 0 -134 55q-55 57 -55 134q0 78 55 133q57 55 134 55q78 0 133 -55t55 -133zM803 1815q32 32 32 77t-32 77t-77 32t-77 -32t-32 -77t32 -77t77 -32t77 32z" />
    <glyph glyph-name="AE" unicode="&#xc6;" horiz-adv-x="1760" 
d="M900 1300l-289 -521h289v521zM1618 1600q26 0 43.5 -18t17.5 -44q0 -25 -17.5 -43t-43.5 -18h-595v-698h431q25 0 43 -17.5t18 -43.5t-18 -44t-43 -18h-431v-533h595q26 0 43.5 -18t17.5 -43q0 -26 -17.5 -44t-43.5 -18h-657q-26 0 -43.5 18t-17.5 44v594h-358l-349 -627
q-19 -29 -52 -29q-26 0 -44 18t-18 44q0 17 7 28l823 1482q17 28 52 28h657z" />
    <glyph glyph-name="Ccedilla" unicode="&#xc7;" horiz-adv-x="1480" 
d="M1350 281q26 0 44 -18t18 -44q0 -25 -15 -41q-112 -87 -238 -132.5t-266 -45.5q-163 0 -306 61t-260 173q-112 117 -173 260t-61 306q0 331 234 565q235 235 566 235q285 0 507 -182q18 -18 18 -44q0 -25 -18 -43t-43 -18q-26 0 -51 24q-173 140 -413 140
q-280 0 -479 -199q-198 -198 -198 -478q0 -281 198 -479t479 -198q242 0 424 149q13 9 33 9zM751 60q17 17 43 17t44.5 -18t18.5 -44q0 -8 -2 -16l-21 -78q51 -22 82 -46q65 -57 65 -140q0 -81 -66 -139q-67 -58 -162 -58q-53 0 -109 28l-91 54q-28 20 -28 53q0 26 18 44
t44 18q19 0 34 -9l81 -51q24 -12 51 -12q43 0 73.5 19.5t30.5 52.5q0 34 -30.5 53.5t-73.5 19.5q-26 0 -44 18t-18 44q0 11 3 20l40 143q5 15 17 27z" />
    <glyph glyph-name="Egrave" unicode="&#xc8;" 
d="M1142 1600q25 0 43 -18t18 -44q0 -25 -18 -43t-43 -18h-924v-615h677q26 0 44 -18t18 -44t-18 -44t-44 -18h-677v-615h924q25 0 43 -18t18 -43q0 -26 -18 -44t-43 -18h-985q-26 0 -44 18t-18 44v1476q0 26 18 44t44 18h985zM408 2019q0 26 18 44t44 18t44 -18l252 -252
q15 -17 15 -41q0 -26 -18 -44.5t-44 -18.5q-24 0 -43 16l-252 252q-8 9 -12 20.5t-4 23.5z" />
    <glyph glyph-name="Eacute" unicode="&#xc9;" 
d="M1142 1600q25 0 43 -18t18 -44q0 -25 -18 -43t-43 -18h-924v-615h677q26 0 44 -18t18 -44t-18 -44t-44 -18h-677v-615h924q25 0 43 -18t18 -43q0 -26 -18 -44t-43 -18h-985q-26 0 -44 18t-18 44v1476q0 26 18 44t44 18h985zM634 1721q-17 -16 -42 -16q-26 0 -44 18.5
t-18 44.5q0 25 14 41l252 252q18 18 45 18q26 0 44 -18t18 -44q0 -12 -4 -23.5t-13 -20.5z" />
    <glyph glyph-name="Ecircumflex" unicode="&#xca;" 
d="M1142 1600q25 0 43 -18t18 -44q0 -25 -18 -43t-43 -18h-924v-615h677q26 0 44 -18t18 -44t-18 -44t-44 -18h-677v-615h924q25 0 43 -18t18 -43q0 -26 -18 -44t-43 -18h-985q-26 0 -44 18t-18 44v1476q0 26 18 44t44 18h985zM928 1883q33 -23 33 -55q0 -26 -18.5 -44
t-44.5 -18q-22 0 -40 13l-209 139l-209 -139q-18 -13 -39 -13q-26 0 -44.5 18t-18.5 44q0 32 32 55l248 165q14 8 31 8q18 0 32 -8z" />
    <glyph glyph-name="Edieresis" unicode="&#xcb;" 
d="M1142 1600q25 0 43 -18t18 -44q0 -25 -18 -43t-43 -18h-924v-615h677q26 0 44 -18t18 -44t-18 -44t-44 -18h-677v-615h924q25 0 43 -18t18 -43q0 -26 -18 -44t-43 -18h-985q-26 0 -44 18t-18 44v1476q0 26 18 44t44 18h985zM487 1870q0 -35 -24 -59t-59 -24t-59 24
t-24 59q0 34 24 58.5t59 24.5t59 -24.5t24 -58.5zM985 1870q0 -35 -24.5 -59t-58.5 -24q-35 0 -59 24t-24 59q0 34 24 58.5t59 24.5q34 0 58.5 -24.5t24.5 -58.5z" />
    <glyph glyph-name="Igrave" unicode="&#xcc;" horiz-adv-x="480" 
d="M178 1538q0 26 17.5 44t43.5 18t44 -18t18 -44v-1476q0 -26 -18 -44t-44 -18t-43.5 18t-17.5 44v1476zM-6 2019q0 26 18 44t44 18t44 -18l252 -252q15 -17 15 -41q0 -26 -18 -44.5t-44 -18.5q-24 0 -43 16l-252 252q-8 9 -12 20.5t-4 23.5z" />
    <glyph glyph-name="Iacute" unicode="&#xcd;" horiz-adv-x="480" 
d="M178 1538q0 26 17.5 44t43.5 18t44 -18t18 -44v-1476q0 -26 -18 -44t-44 -18t-43.5 18t-17.5 44v1476zM218 1721q-17 -16 -42 -16q-26 0 -44 18.5t-18 44.5q0 25 14 41l252 252q18 18 45 18q26 0 44 -18t18 -44q0 -12 -4 -23.5t-13 -20.5z" />
    <glyph glyph-name="Icircumflex" unicode="&#xce;" horiz-adv-x="480" 
d="M178 1538q0 26 17.5 44t43.5 18t44 -18t18 -44v-1476q0 -26 -18 -44t-44 -18t-43.5 18t-17.5 44v1476zM516 1883q33 -23 33 -55q0 -26 -18.5 -44t-44.5 -18q-22 0 -40 13l-209 139l-209 -139q-18 -13 -39 -13q-26 0 -44.5 18t-18.5 44q0 32 32 55l248 165q14 8 31 8
q18 0 32 -8z" />
    <glyph glyph-name="Idieresis" unicode="&#xcf;" horiz-adv-x="480" 
d="M178 1538q0 26 17.5 44t43.5 18t44 -18t18 -44v-1476q0 -26 -18 -44t-44 -18t-43.5 18t-17.5 44v1476zM73 1870q0 -35 -24 -59t-59 -24t-59 24t-24 59q0 34 24 58.5t59 24.5t59 -24.5t24 -58.5zM571 1870q0 -35 -24.5 -59t-58.5 -24q-35 0 -59 24t-24 59q0 34 24 58.5
t59 24.5q34 0 58.5 -24.5t24.5 -58.5z" />
    <glyph glyph-name="Eth" unicode="&#xd0;" horiz-adv-x="1520" 
d="M244 862v676q0 26 18 44t44 18h328q331 0 565 -235q235 -234 235 -565t-235 -566q-234 -234 -565 -234h-328q-26 0 -44 18t-18 44v676h-183q-26 0 -44 18t-18 44t18 44t44 18h183zM367 862h349q26 0 44 -18t18 -44t-18 -44t-44 -18h-349v-615h267q280 0 478 198
q199 199 199 479q0 279 -199 478t-478 199h-267v-615z" />
    <glyph glyph-name="Ntilde" unicode="&#xd1;" horiz-adv-x="1440" 
d="M216 62q0 -26 -17.5 -44t-43.5 -18t-44 18t-18 44v1476q0 26 18 44t44 18q29 0 47 -22l1040 -1337v1297q0 26 18 44t44 18q25 0 43 -18t18 -44v-1476q0 -26 -18 -44t-43 -18q-30 0 -46 18l-1042 1340v-1296zM767 1838q-87 -78 -206 -78q-129 0 -221 92q-8 9 -12 20.5
t-4 22.5q0 26 18 44.5t44 18.5q25 0 43 -17q56 -56 132 -56q67 0 116 40q88 79 208 79q129 0 220 -91q17 -18 17 -44t-18 -44t-44 -18t-44 17q-54 56 -131 56q-65 0 -118 -42z" />
    <glyph glyph-name="Ograve" unicode="&#xd2;" horiz-adv-x="1760" 
d="M891 1477q-278 0 -479 -199q-198 -198 -198 -478q0 -281 198 -479q199 -198 479 -198t478 198q199 198 199 479q0 280 -199 478q-199 199 -478 199zM1691 800q0 -331 -235 -566q-233 -234 -565 -234q-163 0 -306 61t-260 173q-112 117 -173 260t-61 306q0 331 234 565
q235 235 566 235q333 0 565 -235q235 -234 235 -565zM723 2019q0 26 18 44t44 18t44 -18l252 -252q15 -17 15 -41q0 -26 -18 -44.5t-44 -18.5q-24 0 -43 16l-252 252q-8 9 -12 20.5t-4 23.5z" />
    <glyph glyph-name="Oacute" unicode="&#xd3;" horiz-adv-x="1760" 
d="M891 1477q-278 0 -479 -199q-198 -198 -198 -478q0 -281 198 -479q199 -198 479 -198t478 198q199 198 199 479q0 280 -199 478q-199 199 -478 199zM1691 800q0 -331 -235 -566q-233 -234 -565 -234q-163 0 -306 61t-260 173q-112 117 -173 260t-61 306q0 331 234 565
q235 235 566 235q333 0 565 -235q235 -234 235 -565zM799 1721q-17 -16 -42 -16q-26 0 -44 18.5t-18 44.5q0 25 14 41l252 252q18 18 45 18q26 0 44 -18t18 -44q0 -12 -4 -23.5t-13 -20.5z" />
    <glyph glyph-name="Ocircumflex" unicode="&#xd4;" horiz-adv-x="1760" 
d="M891 1477q-278 0 -479 -199q-198 -198 -198 -478q0 -281 198 -479q199 -198 479 -198t478 198q199 198 199 479q0 280 -199 478q-199 199 -478 199zM1691 800q0 -331 -235 -566q-233 -234 -565 -234q-163 0 -306 61t-260 173q-112 117 -173 260t-61 306q0 331 234 565
q235 235 566 235q333 0 565 -235q235 -234 235 -565zM1165 1883q33 -23 33 -55q0 -26 -18.5 -44t-44.5 -18q-22 0 -40 13l-209 139l-209 -139q-18 -13 -39 -13q-26 0 -44.5 18t-18.5 44q0 32 32 55l248 165q14 8 31 8q18 0 32 -8z" />
    <glyph glyph-name="Otilde" unicode="&#xd5;" horiz-adv-x="1760" 
d="M891 1477q-278 0 -479 -199q-198 -198 -198 -478q0 -281 198 -479q199 -198 479 -198t478 198q199 198 199 479q0 280 -199 478q-199 199 -478 199zM1691 800q0 -331 -235 -566q-233 -234 -565 -234q-163 0 -306 61t-260 173q-112 117 -173 260t-61 306q0 331 234 565
q235 235 566 235q333 0 565 -235q235 -234 235 -565zM925 1838q-87 -78 -206 -78q-129 0 -221 92q-8 9 -12 20.5t-4 22.5q0 26 18 44.5t44 18.5q25 0 43 -17q56 -56 132 -56q67 0 116 40q88 79 208 79q129 0 220 -91q17 -18 17 -44t-18 -44t-44 -18t-44 17q-54 56 -131 56
q-65 0 -118 -42z" />
    <glyph glyph-name="Odieresis" unicode="&#xd6;" horiz-adv-x="1760" 
d="M891 1477q-278 0 -479 -199q-198 -198 -198 -478q0 -281 198 -479q199 -198 479 -198t478 198q199 198 199 479q0 280 -199 478q-199 199 -478 199zM1691 800q0 -331 -235 -566q-233 -234 -565 -234q-163 0 -306 61t-260 173q-112 117 -173 260t-61 306q0 331 234 565
q235 235 566 235q333 0 565 -235q235 -234 235 -565zM722 1870q0 -35 -24 -59t-59 -24t-59 24t-24 59q0 34 24 58.5t59 24.5t59 -24.5t24 -58.5zM1220 1870q0 -35 -24.5 -59t-58.5 -24q-35 0 -59 24t-24 59q0 34 24 58.5t59 24.5q34 0 58.5 -24.5t24.5 -58.5z" />
    <glyph glyph-name="multiply" unicode="&#xd7;" horiz-adv-x="960" 
d="M388 726l-289 288q-16 18 -16 44t18 44t44 18t46 -19l286 -286l286 286q20 19 46 19t44 -18t18 -44t-17 -44l-288 -288l288 -288q17 -18 17 -44t-18 -44t-44 -18t-43 15l-289 290l-289 -290q-17 -15 -43 -15t-44 18t-18 44t16 44z" />
    <glyph glyph-name="Oslash" unicode="&#xd8;" horiz-adv-x="1760" 
d="M1487 1320q192 -228 192 -520q0 -331 -235 -566q-233 -234 -565 -234q-291 0 -520 192l-174 -175q-18 -17 -44 -17t-44 18t-18 44q0 25 16 42l176 176q-192 229 -192 520q0 331 234 565q235 235 566 235q290 0 520 -192l175 175q18 17 44 17t43.5 -18t17.5 -44
q0 -24 -14 -40zM1312 1321q-195 156 -433 156q-278 0 -479 -199q-198 -198 -198 -478q0 -236 156 -433zM446 279q196 -156 433 -156q280 0 478 198q199 198 199 479q0 237 -156 434z" />
    <glyph glyph-name="Ugrave" unicode="&#xd9;" 
d="M94 1538q0 26 18 44t44 18t43.5 -18t17.5 -44v-984q0 -179 127 -305q126 -126 304 -126q179 0 305 126t126 305v984q0 26 18 44t44 18q25 0 43 -18t18 -44v-984q0 -230 -162 -392t-392 -162t-392 162q-81 81 -121.5 178.5t-40.5 213.5v984zM405 2019q0 26 18 44t44 18
t44 -18l252 -252q15 -17 15 -41q0 -26 -18 -44.5t-44 -18.5q-24 0 -43 16l-252 252q-8 9 -12 20.5t-4 23.5z" />
    <glyph glyph-name="Uacute" unicode="&#xda;" 
d="M94 1538q0 26 18 44t44 18t43.5 -18t17.5 -44v-984q0 -179 127 -305q126 -126 304 -126q179 0 305 126t126 305v984q0 26 18 44t44 18q25 0 43 -18t18 -44v-984q0 -230 -162 -392t-392 -162t-392 162q-81 81 -121.5 178.5t-40.5 213.5v984zM631 1721q-17 -16 -42 -16
q-26 0 -44 18.5t-18 44.5q0 25 14 41l252 252q18 18 45 18q26 0 44 -18t18 -44q0 -12 -4 -23.5t-13 -20.5z" />
    <glyph glyph-name="Ucircumflex" unicode="&#xdb;" 
d="M94 1538q0 26 18 44t44 18t43.5 -18t17.5 -44v-984q0 -179 127 -305q126 -126 304 -126q179 0 305 126t126 305v984q0 26 18 44t44 18q25 0 43 -18t18 -44v-984q0 -230 -162 -392t-392 -162t-392 162q-81 81 -121.5 178.5t-40.5 213.5v984zM927 1883q33 -23 33 -55
q0 -26 -18.5 -44t-44.5 -18q-22 0 -40 13l-209 139l-209 -139q-18 -13 -39 -13q-26 0 -44.5 18t-18.5 44q0 32 32 55l248 165q14 8 31 8q18 0 32 -8z" />
    <glyph glyph-name="Udieresis" unicode="&#xdc;" 
d="M94 1538q0 26 18 44t44 18t43.5 -18t17.5 -44v-984q0 -179 127 -305q126 -126 304 -126q179 0 305 126t126 305v984q0 26 18 44t44 18q25 0 43 -18t18 -44v-984q0 -230 -162 -392t-392 -162t-392 162q-81 81 -121.5 178.5t-40.5 213.5v984zM484 1870q0 -35 -24 -59
t-59 -24t-59 24t-24 59q0 34 24 58.5t59 24.5t59 -24.5t24 -58.5zM982 1870q0 -35 -24.5 -59t-58.5 -24q-35 0 -59 24t-24 59q0 34 24 58.5t59 24.5q34 0 58.5 -24.5t24.5 -58.5z" />
    <glyph glyph-name="Yacute" unicode="&#xdd;" 
d="M710 62q0 -26 -18 -44t-44 -18t-43.5 18t-17.5 44v720l-483 722q-10 16 -10 34q0 26 18 44t44 18q30 0 49 -25l443 -664l443 664q18 25 50 25q25 0 43 -18t18 -44q0 -20 -10 -34l-482 -722v-720zM631 1721q-17 -16 -42 -16q-26 0 -44 18.5t-18 44.5q0 25 14 41l252 252
q18 18 45 18q26 0 44 -18t18 -44q0 -12 -4 -23.5t-13 -20.5z" />
    <glyph glyph-name="Thorn" unicode="&#xde;" 
d="M82 1538q0 26 18 44t44 18t43.5 -18t17.5 -44v-266h513q196 0 334 -139q138 -137 138 -333t-138 -334t-334 -138h-513v-266q0 -26 -17.5 -44t-43.5 -18t-44 18t-18 44v1476zM718 451q145 0 246 102q103 103 103 247t-103 246q-100 103 -246 103h-513v-698h513z" />
    <glyph glyph-name="germandbls" unicode="&#xdf;" horiz-adv-x="1120" 
d="M206 62q0 -26 -18 -44t-44 -18t-44.5 18t-18.5 44v1162q0 83 29 152t86 127q58 57 127 86t152 29q164 0 279 -115t115 -279q0 -144 -91 -252q-30 -39 -30 -94q0 -93 69 -130q59 -31 103 -75q115 -115 115 -279t-115 -279q-114 -115 -279 -115q-164 0 -279 115
q-20 22 -20 47q0 26 18 44t44 18q27 0 48 -20q78 -80 189 -80t190 79q80 80 80 191q0 112 -79 191q-28 28 -63 49q-36 22 -68 51q-80 80 -80 194q0 106 69 182q55 71 55 163q0 111 -80 189q-80 80 -190 80t-189 -78q-80 -80 -80 -191v-1162z" />
    <glyph glyph-name="agrave" unicode="&#xe0;" 
d="M652 996q-180 0 -308 -128t-128 -308t128 -308t308 -128t308 128q127 127 127 308t-127 308q-128 128 -308 128zM1087 203q-202 -203 -435 -203q-232 0 -396 164t-164 396t164 396t396 164t396 -164t164 -396v-498q0 -26 -18 -44t-44 -18t-44.5 18t-18.5 44v141z
M428 1539q0 26 18 44t44 18t44 -18l252 -252q15 -17 15 -41q0 -26 -18 -44.5t-44 -18.5q-24 0 -43 16l-252 252q-8 9 -12 20.5t-4 23.5z" />
    <glyph glyph-name="aacute" unicode="&#xe1;" 
d="M652 996q-180 0 -308 -128t-128 -308t128 -308t308 -128t308 128q127 127 127 308t-127 308q-128 128 -308 128zM1087 203q-202 -203 -435 -203q-232 0 -396 164t-164 396t164 396t396 164t396 -164t164 -396v-498q0 -26 -18 -44t-44 -18t-44.5 18t-18.5 44v141z
M583 1241q-17 -16 -42 -16q-26 0 -44 18.5t-18 44.5q0 25 14 41l252 252q18 18 45 18q26 0 44 -18t18 -44q0 -12 -4 -23.5t-13 -20.5z" />
    <glyph glyph-name="acircumflex" unicode="&#xe2;" 
d="M652 996q-180 0 -308 -128t-128 -308t128 -308t308 -128t308 128q127 127 127 308t-127 308q-128 128 -308 128zM1087 203q-202 -203 -435 -203q-232 0 -396 164t-164 396t164 396t396 164t396 -164t164 -396v-498q0 -26 -18 -44t-44 -18t-44.5 18t-18.5 44v141z
M926 1403q33 -23 33 -55q0 -26 -18.5 -44t-44.5 -18q-22 0 -40 13l-209 139l-209 -139q-18 -13 -39 -13q-26 0 -44.5 18t-18.5 44q0 32 32 55l248 165q14 8 31 8q18 0 32 -8z" />
    <glyph glyph-name="atilde" unicode="&#xe3;" 
d="M652 996q-180 0 -308 -128t-128 -308t128 -308t308 -128t308 128q127 127 127 308t-127 308q-128 128 -308 128zM1087 203q-202 -203 -435 -203q-232 0 -396 164t-164 396t164 396t396 164t396 -164t164 -396v-498q0 -26 -18 -44t-44 -18t-44.5 18t-18.5 44v141z
M693 1358q-87 -78 -206 -78q-129 0 -221 92q-8 9 -12 20.5t-4 22.5q0 26 18 44.5t44 18.5q25 0 43 -17q56 -56 132 -56q67 0 116 40q88 79 208 79q129 0 220 -91q17 -18 17 -44t-18 -44t-44 -18t-44 17q-54 56 -131 56q-65 0 -118 -42z" />
    <glyph glyph-name="adieresis" unicode="&#xe4;" 
d="M652 996q-180 0 -308 -128t-128 -308t128 -308t308 -128t308 128q127 127 127 308t-127 308q-128 128 -308 128zM1087 203q-202 -203 -435 -203q-232 0 -396 164t-164 396t164 396t396 164t396 -164t164 -396v-498q0 -26 -18 -44t-44 -18t-44.5 18t-18.5 44v141z
M483 1390q0 -35 -24 -59t-59 -24t-59 24t-24 59q0 34 24 58.5t59 24.5t59 -24.5t24 -58.5zM981 1390q0 -35 -24.5 -59t-58.5 -24q-35 0 -59 24t-24 59q0 34 24 58.5t59 24.5q34 0 58.5 -24.5t24.5 -58.5z" />
    <glyph glyph-name="aring" unicode="&#xe5;" 
d="M652 996q-180 0 -308 -128t-128 -308t128 -308t308 -128t308 128q127 127 127 308t-127 308q-128 128 -308 128zM1087 203q-202 -203 -435 -203q-232 0 -396 164t-164 396t164 396t396 164t396 -164t164 -396v-498q0 -26 -18 -44t-44 -18t-44.5 18t-18.5 44v141z
M834 1412q0 -77 -55 -134q-55 -55 -133 -55q-77 0 -134 55q-55 57 -55 134q0 78 55 133q57 55 134 55q78 0 133 -55t55 -133zM723 1335q32 32 32 77t-32 77t-77 32t-77 -32t-32 -77t32 -77t77 -32t77 32z" />
    <glyph glyph-name="ae" unicode="&#xe6;" horiz-adv-x="2240" 
d="M631 996q-180 0 -308 -128t-128 -308t128 -308t308 -128t308 128t128 308t-128 308t-308 128zM2060 622q-30 151 -125 246q-130 128 -308 128q-180 0 -308 -128q-50 -49 -80.5 -110t-45.5 -136h867zM1191 62q0 -26 -18 -44t-44 -18t-44 18t-18 44v141
q-203 -203 -436 -203q-232 0 -396 164t-164 396t164 396t396 164t396 -164q47 -47 102 -134q26 42 51 75.5t50 58.5q164 164 397 164q232 0 396 -164t164 -396q0 -26 -18.5 -44t-44.5 -18h-931q30 -152 126 -246q128 -128 308 -128q81 0 151.5 26.5t128.5 76.5q17 14 39 14
q26 0 44 -18.5t18 -44.5q0 -28 -16 -43q-156 -135 -365 -135q-233 0 -436 203v-141z" />
    <glyph glyph-name="ccedilla" unicode="&#xe7;" horiz-adv-x="1120" 
d="M975 243q26 0 44 -18.5t18 -44.5t-19 -45q-76 -65 -169 -100t-196 -35q-232 0 -396 164t-164 396t164 396t396 164q103 0 196.5 -35t168.5 -100q9 -9 15.5 -22t6.5 -27q0 -26 -18 -44t-44 -18q-24 0 -40 15q-122 107 -285 107q-180 0 -308 -128q-127 -127 -127 -308
t127 -308q128 -128 308 -128q79 0 152.5 29t132.5 78q15 12 37 12zM562 60q17 17 43 17t44.5 -18t18.5 -44q0 -8 -2 -16l-21 -78q51 -22 82 -46q65 -57 65 -140q0 -81 -66 -139q-67 -58 -162 -58q-53 0 -109 28l-91 54q-28 20 -28 53q0 26 18 44t44 18q19 0 34 -9l81 -51
q24 -12 51 -12q43 0 73.5 19.5t30.5 52.5q0 34 -30.5 53.5t-73.5 19.5q-26 0 -44 18t-18 44q0 11 3 20l40 143q5 15 17 27z" />
    <glyph glyph-name="egrave" unicode="&#xe8;" 
d="M1073 622q-28 149 -125 246q-128 128 -308 128t-308 -128q-96 -96 -126 -246h867zM959 241q26 0 44 -18.5t18 -44.5t-16 -43q-156 -135 -365 -135q-232 0 -396 164t-164 396t164 396t396 164t396 -164t164 -396q0 -26 -18 -44t-44 -18h-932q30 -150 126 -246
q128 -128 308 -128q82 0 152 26.5t128 76.5q17 14 39 14zM426 1539q0 26 18 44t44 18t44 -18l252 -252q15 -17 15 -41q0 -26 -18 -44.5t-44 -18.5q-24 0 -43 16l-252 252q-8 9 -12 20.5t-4 23.5z" />
    <glyph glyph-name="eacute" unicode="&#xe9;" 
d="M1073 622q-28 149 -125 246q-128 128 -308 128t-308 -128q-96 -96 -126 -246h867zM959 241q26 0 44 -18.5t18 -44.5t-16 -43q-156 -135 -365 -135q-232 0 -396 164t-164 396t164 396t396 164t396 -164t164 -396q0 -26 -18 -44t-44 -18h-932q30 -150 126 -246
q128 -128 308 -128q82 0 152 26.5t128 76.5q17 14 39 14zM584 1241q-17 -16 -42 -16q-26 0 -44 18.5t-18 44.5q0 25 14 41l252 252q18 18 45 18q26 0 44 -18t18 -44q0 -12 -4 -23.5t-13 -20.5z" />
    <glyph glyph-name="ecircumflex" unicode="&#xea;" 
d="M1073 622q-28 149 -125 246q-128 128 -308 128t-308 -128q-96 -96 -126 -246h867zM959 241q26 0 44 -18.5t18 -44.5t-16 -43q-156 -135 -365 -135q-232 0 -396 164t-164 396t164 396t396 164t396 -164t164 -396q0 -26 -18 -44t-44 -18h-932q30 -150 126 -246
q128 -128 308 -128q82 0 152 26.5t128 76.5q17 14 39 14zM914 1403q33 -23 33 -55q0 -26 -18.5 -44t-44.5 -18q-22 0 -40 13l-209 139l-209 -139q-18 -13 -39 -13q-26 0 -44.5 18t-18.5 44q0 32 32 55l248 165q14 8 31 8q18 0 32 -8z" />
    <glyph glyph-name="edieresis" unicode="&#xeb;" 
d="M1073 622q-28 149 -125 246q-128 128 -308 128t-308 -128q-96 -96 -126 -246h867zM959 241q26 0 44 -18.5t18 -44.5t-16 -43q-156 -135 -365 -135q-232 0 -396 164t-164 396t164 396t396 164t396 -164t164 -396q0 -26 -18 -44t-44 -18h-932q30 -150 126 -246
q128 -128 308 -128q82 0 152 26.5t128 76.5q17 14 39 14zM471 1390q0 -35 -24 -59t-59 -24t-59 24t-24 59q0 34 24 58.5t59 24.5t59 -24.5t24 -58.5zM969 1390q0 -35 -24.5 -59t-58.5 -24q-35 0 -59 24t-24 59q0 34 24 58.5t59 24.5q34 0 58.5 -24.5t24.5 -58.5z" />
    <glyph glyph-name="igrave" unicode="&#xec;" horiz-adv-x="480" 
d="M170 1058q0 26 18 44t44 18t44.5 -18t18.5 -44v-996q0 -26 -18.5 -44t-44.5 -18t-44 18t-18 44v996zM21 1539q0 26 18 44t44 18t44 -18l252 -252q15 -17 15 -41q0 -26 -18 -44.5t-44 -18.5q-24 0 -43 16l-252 252q-8 9 -12 20.5t-4 23.5z" />
    <glyph glyph-name="iacute" unicode="&#xed;" horiz-adv-x="480" 
d="M170 1058q0 26 18 44t44 18t44.5 -18t18.5 -44v-996q0 -26 -18.5 -44t-44.5 -18t-44 18t-18 44v996zM193 1241q-17 -16 -42 -16q-26 0 -44 18.5t-18 44.5q0 25 14 41l252 252q18 18 45 18q26 0 44 -18t18 -44q0 -12 -4 -23.5t-13 -20.5z" />
    <glyph glyph-name="icircumflex" unicode="&#xee;" horiz-adv-x="560" 
d="M211 1058q0 26 18 44t44 18t44.5 -18t18.5 -44v-996q0 -26 -18.5 -44t-44.5 -18t-44 18t-18 44v996zM556 1403q33 -23 33 -55q0 -26 -18.5 -44t-44.5 -18q-22 0 -40 13l-209 139l-209 -139q-18 -13 -39 -13q-26 0 -44.5 18t-18.5 44q0 32 32 55l248 165q14 8 31 8
q18 0 32 -8z" />
    <glyph glyph-name="idieresis" unicode="&#xef;" horiz-adv-x="600" 
d="M230 1058q0 26 18 44t44 18t44.5 -18t18.5 -44v-996q0 -26 -18.5 -44t-44.5 -18t-44 18t-18 44v996zM134 1390q0 -35 -24 -59t-59 -24t-59 24t-24 59q0 34 24 58.5t59 24.5t59 -24.5t24 -58.5zM632 1390q0 -35 -24.5 -59t-58.5 -24q-35 0 -59 24t-24 59q0 34 24 58.5
t59 24.5q34 0 58.5 -24.5t24.5 -58.5z" />
    <glyph glyph-name="eth" unicode="&#xf0;" 
d="M640 996q-180 0 -308 -128t-128 -308t128 -308t308 -128t308 128q127 127 127 308t-127 308q-128 128 -308 128zM633 1443l-45 76q-10 20 -10 37q0 26 18 44t44 18q35 0 53 -28l48 -83l159 92q14 8 31 8t31.5 -7.5t22.5 -22.5q8 -12 8 -32q0 -16 -8 -30.5t-22 -23.5
l-159 -93q207 -358 248.5 -430t80.5 -139q32 -59 49.5 -128t17.5 -141q0 -232 -164 -396t-396 -164t-396 164t-164 396t164 396t396 164q41 0 89.5 -7.5t108.5 -24.5l-143 247l-163 -95q-14 -8 -30 -8q-34 0 -52 28q-10 17 -10 34q0 16 8 31t22 23z" />
    <glyph glyph-name="ntilde" unicode="&#xf1;" horiz-adv-x="1200" 
d="M81 1058q0 26 18 44t44 18t44 -18t18 -44v-116q184 178 394 178q216 0 366 -152q153 -152 153 -367v-539q0 -26 -18.5 -44t-44.5 -18t-44 18t-18 44v539q0 165 -116 278q-116 117 -278 117t-279 -117q-115 -114 -115 -278v-539q0 -26 -18 -44t-44 -18t-44 18t-18 44v996z
M646 1358q-87 -78 -206 -78q-129 0 -221 92q-8 9 -12 20.5t-4 22.5q0 26 18 44.5t44 18.5q25 0 43 -17q56 -56 132 -56q67 0 116 40q88 79 208 79q129 0 220 -91q17 -18 17 -44t-18 -44t-44 -18t-44 17q-54 56 -131 56q-65 0 -118 -42z" />
    <glyph glyph-name="ograve" unicode="&#xf2;" 
d="M1200 560q0 -232 -164 -396t-396 -164t-396 164t-164 396t164 396t396 164t396 -164t164 -396zM640 996q-180 0 -308 -128t-128 -308t128 -308t308 -128t308 128q127 127 127 308t-127 308q-128 128 -308 128zM426 1539q0 26 18 44t44 18t44 -18l252 -252q15 -17 15 -41
q0 -26 -18 -44.5t-44 -18.5q-24 0 -43 16l-252 252q-8 9 -12 20.5t-4 23.5z" />
    <glyph glyph-name="oacute" unicode="&#xf3;" 
d="M1200 560q0 -232 -164 -396t-396 -164t-396 164t-164 396t164 396t396 164t396 -164t164 -396zM640 996q-180 0 -308 -128t-128 -308t128 -308t308 -128t308 128q127 127 127 308t-127 308q-128 128 -308 128zM583 1241q-17 -16 -42 -16q-26 0 -44 18.5t-18 44.5
q0 25 14 41l252 252q18 18 45 18q26 0 44 -18t18 -44q0 -12 -4 -23.5t-13 -20.5z" />
    <glyph glyph-name="ocircumflex" unicode="&#xf4;" 
d="M1200 560q0 -232 -164 -396t-396 -164t-396 164t-164 396t164 396t396 164t396 -164t164 -396zM640 996q-180 0 -308 -128t-128 -308t128 -308t308 -128t308 128q127 127 127 308t-127 308q-128 128 -308 128zM914 1403q33 -23 33 -55q0 -26 -18.5 -44t-44.5 -18
q-22 0 -40 13l-209 139l-209 -139q-18 -13 -39 -13q-26 0 -44.5 18t-18.5 44q0 32 32 55l248 165q14 8 31 8q18 0 32 -8z" />
    <glyph glyph-name="otilde" unicode="&#xf5;" 
d="M1200 560q0 -232 -164 -396t-396 -164t-396 164t-164 396t164 396t396 164t396 -164t164 -396zM640 996q-180 0 -308 -128t-128 -308t128 -308t308 -128t308 128q127 127 127 308t-127 308q-128 128 -308 128zM681 1358q-87 -78 -206 -78q-129 0 -221 92q-8 9 -12 20.5
t-4 22.5q0 26 18 44.5t44 18.5q25 0 43 -17q56 -56 132 -56q67 0 116 40q88 79 208 79q129 0 220 -91q17 -18 17 -44t-18 -44t-44 -18t-44 17q-54 56 -131 56q-65 0 -118 -42z" />
    <glyph glyph-name="odieresis" unicode="&#xf6;" 
d="M1200 560q0 -232 -164 -396t-396 -164t-396 164t-164 396t164 396t396 164t396 -164t164 -396zM640 996q-180 0 -308 -128t-128 -308t128 -308t308 -128t308 128q127 127 127 308t-127 308q-128 128 -308 128zM471 1390q0 -35 -24 -59t-59 -24t-59 24t-24 59
q0 34 24 58.5t59 24.5t59 -24.5t24 -58.5zM969 1390q0 -35 -24.5 -59t-58.5 -24q-35 0 -59 24t-24 59q0 34 24 58.5t59 24.5q34 0 58.5 -24.5t24.5 -58.5z" />
    <glyph glyph-name="divide" unicode="&#xf7;" horiz-adv-x="960" 
d="M560 1037q0 -35 -24 -59t-59 -24t-59 24t-24 59t24 59t59 24t59 -24t24 -59zM145 664q-26 0 -44 18t-18 44t18 44t44 18h664q26 0 44 -18t18 -44t-18 -44t-44 -18h-664zM560 415q0 -35 -24 -59t-59 -24t-59 24t-24 59q0 34 24 58.5t59 24.5t59 -24.5t24 -58.5z" />
    <glyph glyph-name="oslash" unicode="&#xf8;" 
d="M901 909q-128 87 -261 87q-180 0 -308 -128t-128 -308q0 -132 85 -261zM379 209q129 -85 261 -85q180 0 308 128q127 127 127 308q0 132 -85 261zM1091 1099q19 21 47 21q26 0 44 -18t18 -44t-17 -44l-104 -105q121 -157 121 -349q0 -232 -164 -396t-396 -164
q-193 0 -350 121l-103 -103q-19 -18 -45 -18t-44 18t-18 44t16 44l105 105q-121 155 -121 349q0 232 164 396t396 164q193 0 350 -121z" />
    <glyph glyph-name="ugrave" unicode="&#xf9;" horiz-adv-x="1200" 
d="M1118 62q0 -26 -18.5 -44t-44.5 -18t-44 18t-18 44v116q-184 -178 -394 -178q-213 0 -367 151q-151 152 -151 368v539q0 26 18 44t44 18t44 -18t18 -44v-539q0 -164 115 -279q119 -116 279 -116q162 0 278 116q116 115 116 279v539q0 26 18 44t44 18t44.5 -18t18.5 -44
v-996zM419 1539q0 26 18 44t44 18t44 -18l252 -252q15 -17 15 -41q0 -26 -18 -44.5t-44 -18.5q-24 0 -43 16l-252 252q-8 9 -12 20.5t-4 23.5z" />
    <glyph glyph-name="uacute" unicode="&#xfa;" horiz-adv-x="1200" 
d="M1118 62q0 -26 -18.5 -44t-44.5 -18t-44 18t-18 44v116q-184 -178 -394 -178q-213 0 -367 151q-151 152 -151 368v539q0 26 18 44t44 18t44 -18t18 -44v-539q0 -164 115 -279q119 -116 279 -116q162 0 278 116q116 115 116 279v539q0 26 18 44t44 18t44.5 -18t18.5 -44
v-996zM511 1241q-17 -16 -42 -16q-26 0 -44 18.5t-18 44.5q0 25 14 41l252 252q18 18 45 18q26 0 44 -18t18 -44q0 -12 -4 -23.5t-13 -20.5z" />
    <glyph glyph-name="ucircumflex" unicode="&#xfb;" horiz-adv-x="1200" 
d="M1118 62q0 -26 -18.5 -44t-44.5 -18t-44 18t-18 44v116q-184 -178 -394 -178q-213 0 -367 151q-151 152 -151 368v539q0 26 18 44t44 18t44 -18t18 -44v-539q0 -164 115 -279q119 -116 279 -116q162 0 278 116q116 115 116 279v539q0 26 18 44t44 18t44.5 -18t18.5 -44
v-996zM874 1403q33 -23 33 -55q0 -26 -18.5 -44t-44.5 -18q-22 0 -40 13l-209 139l-209 -139q-18 -13 -39 -13q-26 0 -44.5 18t-18.5 44q0 32 32 55l248 165q14 8 31 8q18 0 32 -8z" />
    <glyph glyph-name="udieresis" unicode="&#xfc;" horiz-adv-x="1200" 
d="M1118 62q0 -26 -18.5 -44t-44.5 -18t-44 18t-18 44v116q-184 -178 -394 -178q-213 0 -367 151q-151 152 -151 368v539q0 26 18 44t44 18t44 -18t18 -44v-539q0 -164 115 -279q119 -116 279 -116q162 0 278 116q116 115 116 279v539q0 26 18 44t44 18t44.5 -18t18.5 -44
v-996zM431 1390q0 -35 -24 -59t-59 -24t-59 24t-24 59q0 34 24 58.5t59 24.5t59 -24.5t24 -58.5zM929 1390q0 -35 -24.5 -59t-58.5 -24q-35 0 -59 24t-24 59q0 34 24 58.5t59 24.5q34 0 58.5 -24.5t24.5 -58.5z" />
    <glyph glyph-name="yacute" unicode="&#xfd;" horiz-adv-x="1120" 
d="M490 63l-405 970q-4 13 -4 25q0 26 18.5 44t44.5 18t44 -18q9 -9 15 -25l355 -850l355 850q6 16 17 27q16 16 43 16q26 0 44 -18t19 -44q0 -10 -4 -22l-616 -1474q-5 -14 -14 -23q-19 -19 -45 -19t-44 18t-18 44q0 13 4 22zM538 1241q-17 -16 -42 -16q-26 0 -44 18.5
t-18 44.5q0 25 14 41l252 252q18 18 45 18q26 0 44 -18t18 -44q0 -12 -4 -23.5t-13 -20.5z" />
    <glyph glyph-name="thorn" unicode="&#xfe;" 
d="M204 562q0 -180 128 -308q127 -127 308 -127t308 127t127 308t-127 308q-128 128 -308 128t-308 -128t-128 -308zM204 919q203 203 436 203q232 0 396 -164t164 -396t-164 -396t-396 -164q-233 0 -436 203v-623q0 -26 -18 -44t-44 -18t-44 18t-18 44v1956q0 26 18 44
t44 18t44 -18t18 -44v-619z" />
    <glyph glyph-name="ydieresis" unicode="&#xff;" horiz-adv-x="1120" 
d="M490 63l-405 970q-4 13 -4 25q0 26 18.5 44t44.5 18t44 -18q9 -9 15 -25l355 -850l355 850q6 16 17 27q16 16 43 16q26 0 44 -18t19 -44q0 -10 -4 -22l-616 -1474q-5 -14 -14 -23q-19 -19 -45 -19t-44 18t-18 44q0 13 4 22zM391 1390q0 -35 -24 -59t-59 -24t-59 24
t-24 59q0 34 24 58.5t59 24.5t59 -24.5t24 -58.5zM889 1390q0 -35 -24.5 -59t-58.5 -24q-35 0 -59 24t-24 59q0 34 24 58.5t59 24.5q34 0 58.5 -24.5t24.5 -58.5z" />
    <glyph glyph-name="Amacron" unicode="&#x100;" horiz-adv-x="1440" 
d="M421 574l-209 -536q-6 -14 -14 -22q-17 -16 -43 -16t-44 18t-18 44q0 13 6 27l571 1467q6 16 16 27q17 17 43 17t44 -18q10 -10 16 -26l570 -1467q6 -14 6 -27q0 -26 -18 -44t-43 -18q-26 0 -43 15q-9 9 -15 23l-208 536h-617zM990 697l-261 672l-260 -672h521zM480 1761
q-26 0 -44.5 18.5t-18.5 44.5t18.5 44t44.5 18h497q26 0 44.5 -18t18.5 -44t-18.5 -44.5t-44.5 -18.5h-497z" />
    <glyph glyph-name="amacron" unicode="&#x101;" 
d="M652 996q-180 0 -308 -128t-128 -308t128 -308t308 -128t308 128q127 127 127 308t-127 308q-128 128 -308 128zM1087 203q-202 -203 -435 -203q-232 0 -396 164t-164 396t164 396t396 164t396 -164t164 -396v-498q0 -26 -18 -44t-44 -18t-44.5 18t-18.5 44v141z
M399 1281q-26 0 -44.5 18.5t-18.5 44.5t18.5 44t44.5 18h497q26 0 44.5 -18t18.5 -44t-18.5 -44.5t-44.5 -18.5h-497z" />
    <glyph glyph-name="Abreve" unicode="&#x102;" horiz-adv-x="1440" 
d="M421 574l-209 -536q-6 -14 -14 -22q-17 -16 -43 -16t-44 18t-18 44q0 13 6 27l571 1467q6 16 16 27q17 17 43 17t44 -18q10 -10 16 -26l570 -1467q6 -14 6 -27q0 -26 -18 -44t-43 -18q-26 0 -43 15q-9 9 -15 23l-208 536h-617zM990 697l-261 672l-260 -672h521zM423 1994
q0 26 18.5 44t44.5 18t44 -18t18 -44q0 -47 60 -78q56 -26 126 -26t127 26q61 30 61 78q0 26 18 44t44 18t44 -18t19 -43q-6 -99 -90 -160q-47 -34 -102 -51.5t-121 -17.5q-64 0 -120.5 18t-102.5 50q-88 68 -88 160z" />
    <glyph glyph-name="abreve" unicode="&#x103;" 
d="M652 996q-180 0 -308 -128t-128 -308t128 -308t308 -128t308 128q127 127 127 308t-127 308q-128 128 -308 128zM1087 203q-202 -203 -435 -203q-232 0 -396 164t-164 396t164 396t396 164t396 -164t164 -396v-498q0 -26 -18 -44t-44 -18t-44.5 18t-18.5 44v141z
M342 1514q0 26 18.5 44t44.5 18t44 -18t18 -44q0 -47 60 -78q56 -26 126 -26t127 26q61 30 61 78q0 26 18 44t44 18t44 -18t19 -43q-6 -99 -90 -160q-47 -34 -102 -51.5t-121 -17.5q-64 0 -120.5 18t-102.5 50q-88 68 -88 160z" />
    <glyph glyph-name="Aogonek" unicode="&#x104;" horiz-adv-x="1520" 
d="M421 574l-209 -536q-6 -14 -14 -22q-17 -16 -43 -16t-44 18t-18 44q0 13 6 27l571 1467q6 16 16 27q17 17 43 17t44 -18q10 -10 16 -26l570 -1467q6 -14 6 -27q0 -26 -18 -44t-43 -18q-26 0 -43 15q-9 9 -15 23l-208 536h-617zM990 697l-261 672l-260 -672h521zM1248 92
q15 29 54 31q28 0 45 -17q16 -17 17 -42q0 -11 -2 -20q-14 -69 -120 -145q-44 -35 -44 -84q0 -21 8 -40t22.5 -33t33.5 -22t40 -8q30 0 56 17l73 53q16 13 37 13q26 0 44 -18.5t18 -44.5q0 -32 -20 -47l-83 -58q-59 -40 -125 -40q-94 0 -162 68q-66 66 -66 160q0 111 97 187
q60 48 77 90z" />
    <glyph glyph-name="aogonek" unicode="&#x105;" horiz-adv-x="1360" 
d="M652 996q-180 0 -308 -128t-128 -308t128 -308t308 -128t308 128q127 127 127 308t-127 308q-128 128 -308 128zM1087 203q-202 -203 -435 -203q-232 0 -396 164t-164 396t164 396t396 164t396 -164t164 -396v-498q0 -26 -18 -44t-44 -18t-44.5 18t-18.5 44v141zM1096 91
q15 29 54 31q28 0 45 -17q16 -17 17 -42q0 -11 -2 -20q-14 -69 -120 -145q-44 -35 -44 -84q0 -21 8 -40t22.5 -33t33.5 -22t40 -8q30 0 56 17l73 53q16 13 37 13q26 0 44 -18.5t18 -44.5q0 -32 -20 -47l-83 -58q-59 -40 -125 -40q-94 0 -162 68q-66 66 -66 160q0 111 97 187
q60 48 77 90z" />
    <glyph glyph-name="Cacute" unicode="&#x106;" horiz-adv-x="1480" 
d="M1350 281q26 0 44 -18t18 -44q0 -25 -15 -41q-112 -87 -238 -132.5t-266 -45.5q-163 0 -306 61t-260 173q-112 117 -173 260t-61 306q0 331 234 565q235 235 566 235q285 0 507 -182q18 -18 18 -44q0 -25 -18 -43t-43 -18q-26 0 -51 24q-173 140 -413 140
q-280 0 -479 -199q-198 -198 -198 -478q0 -281 198 -479t479 -198q242 0 424 149q13 9 33 9zM852 1721q-17 -16 -42 -16q-26 0 -44 18.5t-18 44.5q0 25 14 41l252 252q18 18 45 18q26 0 44 -18t18 -44q0 -12 -4 -23.5t-13 -20.5z" />
    <glyph glyph-name="cacute" unicode="&#x107;" horiz-adv-x="1120" 
d="M975 243q26 0 44 -18.5t18 -44.5t-19 -45q-76 -65 -169 -100t-196 -35q-232 0 -396 164t-164 396t164 396t396 164q103 0 196.5 -35t168.5 -100q9 -9 15.5 -22t6.5 -27q0 -26 -18 -44t-44 -18q-24 0 -40 15q-122 107 -285 107q-180 0 -308 -128q-127 -127 -127 -308
t127 -308q128 -128 308 -128q79 0 152.5 29t132.5 78q15 12 37 12zM610 1241q-17 -16 -42 -16q-26 0 -44 18.5t-18 44.5q0 25 14 41l252 252q18 18 45 18q26 0 44 -18t18 -44q0 -12 -4 -23.5t-13 -20.5z" />
    <glyph glyph-name="Ccircumflex" unicode="&#x108;" horiz-adv-x="1480" 
d="M1350 281q26 0 44 -18t18 -44q0 -25 -15 -41q-112 -87 -238 -132.5t-266 -45.5q-163 0 -306 61t-260 173q-112 117 -173 260t-61 306q0 331 234 565q235 235 566 235q285 0 507 -182q18 -18 18 -44q0 -25 -18 -43t-43 -18q-26 0 -51 24q-173 140 -413 140
q-280 0 -479 -199q-198 -198 -198 -478q0 -281 198 -479t479 -198q242 0 424 149q13 9 33 9zM1168 1883q33 -23 33 -55q0 -26 -18.5 -44t-44.5 -18q-22 0 -40 13l-209 139l-209 -139q-18 -13 -39 -13q-26 0 -44.5 18t-18.5 44q0 32 32 55l248 165q14 8 31 8q18 0 32 -8z" />
    <glyph glyph-name="ccircumflex" unicode="&#x109;" horiz-adv-x="1120" 
d="M975 243q26 0 44 -18.5t18 -44.5t-19 -45q-76 -65 -169 -100t-196 -35q-232 0 -396 164t-164 396t164 396t396 164q103 0 196.5 -35t168.5 -100q9 -9 15.5 -22t6.5 -27q0 -26 -18 -44t-44 -18q-24 0 -40 15q-122 107 -285 107q-180 0 -308 -128q-127 -127 -127 -308
t127 -308q128 -128 308 -128q79 0 152.5 29t132.5 78q15 12 37 12zM912 1403q33 -23 33 -55q0 -26 -18.5 -44t-44.5 -18q-22 0 -40 13l-209 139l-209 -139q-18 -13 -39 -13q-26 0 -44.5 18t-18.5 44q0 32 32 55l248 165q14 8 31 8q18 0 32 -8z" />
    <glyph glyph-name="Cdotaccent" unicode="&#x10a;" horiz-adv-x="1480" 
d="M1350 281q26 0 44 -18t18 -44q0 -25 -15 -41q-112 -87 -238 -132.5t-266 -45.5q-163 0 -306 61t-260 173q-112 117 -173 260t-61 306q0 331 234 565q235 235 566 235q285 0 507 -182q18 -18 18 -44q0 -25 -18 -43t-43 -18q-26 0 -51 24q-173 140 -413 140
q-280 0 -479 -199q-198 -198 -198 -478q0 -281 198 -479t479 -198q242 0 424 149q13 9 33 9zM987 1871q0 -44 -30 -74q-29 -30 -73 -30t-74 30t-30 74t30 73q30 30 74 30t73 -30q30 -29 30 -73z" />
    <glyph glyph-name="cdotaccent" unicode="&#x10b;" horiz-adv-x="1120" 
d="M975 243q26 0 44 -18.5t18 -44.5t-19 -45q-76 -65 -169 -100t-196 -35q-232 0 -396 164t-164 396t164 396t396 164q103 0 196.5 -35t168.5 -100q9 -9 15.5 -22t6.5 -27q0 -26 -18 -44t-44 -18q-24 0 -40 15q-122 107 -285 107q-180 0 -308 -128q-127 -127 -127 -308
t127 -308q128 -128 308 -128q79 0 152.5 29t132.5 78q15 12 37 12zM748 1391q0 -44 -30 -74q-29 -30 -73 -30t-74 30t-30 74t30 73q30 30 74 30t73 -30q30 -29 30 -73z" />
    <glyph glyph-name="Ccaron" unicode="&#x10c;" horiz-adv-x="1480" 
d="M1350 281q26 0 44 -18t18 -44q0 -25 -15 -41q-112 -87 -238 -132.5t-266 -45.5q-163 0 -306 61t-260 173q-112 117 -173 260t-61 306q0 331 234 565q235 235 566 235q285 0 507 -182q18 -18 18 -44q0 -25 -18 -43t-43 -18q-26 0 -51 24q-173 140 -413 140
q-280 0 -479 -199q-198 -198 -198 -478q0 -281 198 -479t479 -198q242 0 424 149q13 9 33 9zM919 1774q-14 -8 -32 -8q-17 0 -31 8l-248 165q-32 23 -32 55q0 26 18.5 44t44.5 18q21 0 39 -13l209 -139l209 139q18 13 40 13q26 0 44.5 -18t18.5 -44q0 -32 -33 -55z" />
    <glyph glyph-name="ccaron" unicode="&#x10d;" horiz-adv-x="1120" 
d="M975 243q26 0 44 -18.5t18 -44.5t-19 -45q-76 -65 -169 -100t-196 -35q-232 0 -396 164t-164 396t164 396t396 164q103 0 196.5 -35t168.5 -100q9 -9 15.5 -22t6.5 -27q0 -26 -18 -44t-44 -18q-24 0 -40 15q-122 107 -285 107q-180 0 -308 -128q-127 -127 -127 -308
t127 -308q128 -128 308 -128q79 0 152.5 29t132.5 78q15 12 37 12zM677 1294q-14 -8 -32 -8q-17 0 -31 8l-248 165q-32 23 -32 55q0 26 18.5 44t44.5 18q21 0 39 -13l209 -139l209 139q18 13 40 13q26 0 44.5 -18t18.5 -44q0 -32 -33 -55z" />
    <glyph glyph-name="Dcaron" unicode="&#x10e;" horiz-adv-x="1360" 
d="M484 123q278 0 478 198q199 199 199 479q0 279 -199 478q-201 199 -478 199h-267v-1354h267zM484 1600q331 0 565 -235q235 -234 235 -565t-235 -566q-234 -234 -565 -234h-329q-25 0 -43 18t-18 44v1476q0 26 18 44t43 18h329zM601 1774q-14 -8 -32 -8q-17 0 -31 8
l-248 165q-32 23 -32 55q0 26 18.5 44t44.5 18q21 0 39 -13l209 -139l209 139q18 13 40 13q26 0 44.5 -18t18.5 -44q0 -32 -33 -55z" />
    <glyph glyph-name="dcaron" unicode="&#x10f;" horiz-adv-x="1600" 
d="M1087 560q0 181 -127 308q-128 128 -308 128t-308 -128t-128 -308t128 -308t308 -128t308 128q127 127 127 308zM1087 1538q0 26 18.5 44t44.5 18t44 -18t18 -44v-978q0 -232 -164 -396t-396 -164t-396 164t-164 396t164 396t396 164t396 -164l39 -39v621zM1301 1519
q0 35 24.5 59t58.5 24q51 0 76 -49q62 -109 62 -226q0 -85 -40.5 -177t-111.5 -180q-11 -11 -28 -11t-29 12t-12 29q0 8 4 18q26 65 40 126.5t14 121.5q0 58 -13 113t-38 107q-7 16 -7 33z" />
    <glyph glyph-name="Dcroat" unicode="&#x110;" horiz-adv-x="1520" 
d="M244 862v676q0 26 18 44t44 18h328q331 0 565 -235q235 -234 235 -565t-235 -566q-234 -234 -565 -234h-328q-26 0 -44 18t-18 44v676h-183q-26 0 -44 18t-18 44t18 44t44 18h183zM367 862h349q26 0 44 -18t18 -44t-18 -44t-44 -18h-349v-615h267q280 0 478 198
q199 199 199 479q0 279 -199 478t-478 199h-267v-615z" />
    <glyph glyph-name="dcroat" unicode="&#x111;" horiz-adv-x="1440" 
d="M1074 560q0 180 -128 308t-308 128t-308 -128q-127 -127 -127 -308t127 -308q128 -128 308 -128t308 128t128 308zM1074 1452v106q0 26 18 44t44 18t44 -18t18 -44v-106h104q26 0 44 -18t18 -44t-18 -44.5t-44 -18.5h-104v-767q0 -118 -41 -216t-122 -180
q-164 -164 -397 -164q-232 0 -396 164t-164 396t164 396t396 164q233 0 397 -164l39 -39v410h-353q-26 0 -44 18.5t-18 44.5t18 44t44 18h353z" />
    <glyph glyph-name="Emacron" unicode="&#x112;" 
d="M1141 1600q25 0 43 -18t18 -44q0 -25 -18 -43t-43 -18h-924v-615h677q26 0 44 -18t18 -44t-18 -44t-44 -18h-677v-615h924q25 0 43 -18t18 -43q0 -26 -18 -44t-43 -18h-985q-26 0 -44 18t-18 44v1476q0 26 18 44t44 18h985zM402 1761q-26 0 -44.5 18.5t-18.5 44.5
t18.5 44t44.5 18h497q26 0 44.5 -18t18.5 -44t-18.5 -44.5t-44.5 -18.5h-497z" />
    <glyph glyph-name="emacron" unicode="&#x113;" 
d="M1073 622q-28 149 -125 246q-128 128 -308 128t-308 -128q-96 -96 -126 -246h867zM959 241q26 0 44 -18.5t18 -44.5t-16 -43q-156 -135 -365 -135q-232 0 -396 164t-164 396t164 396t396 164t396 -164t164 -396q0 -26 -18 -44t-44 -18h-932q30 -150 126 -246
q128 -128 308 -128q82 0 152 26.5t128 76.5q17 14 39 14zM387 1281q-26 0 -44.5 18.5t-18.5 44.5t18.5 44t44.5 18h497q26 0 44.5 -18t18.5 -44t-18.5 -44.5t-44.5 -18.5h-497z" />
    <glyph glyph-name="Ebreve" unicode="&#x114;" 
d="M1141 1600q25 0 43 -18t18 -44q0 -25 -18 -43t-43 -18h-924v-615h677q26 0 44 -18t18 -44t-18 -44t-44 -18h-677v-615h924q25 0 43 -18t18 -43q0 -26 -18 -44t-43 -18h-985q-26 0 -44 18t-18 44v1476q0 26 18 44t44 18h985zM344 1994q0 26 18.5 44t44.5 18t44 -18t18 -44
q0 -47 60 -78q56 -26 126 -26t127 26q61 30 61 78q0 26 18 44t44 18t44 -18t19 -43q-6 -99 -90 -160q-47 -34 -102 -51.5t-121 -17.5q-64 0 -120.5 18t-102.5 50q-88 68 -88 160z" />
    <glyph glyph-name="ebreve" unicode="&#x115;" 
d="M1073 622q-28 149 -125 246q-128 128 -308 128t-308 -128q-96 -96 -126 -246h867zM959 241q26 0 44 -18.5t18 -44.5t-16 -43q-156 -135 -365 -135q-232 0 -396 164t-164 396t164 396t396 164t396 -164t164 -396q0 -26 -18 -44t-44 -18h-932q30 -150 126 -246
q128 -128 308 -128q82 0 152 26.5t128 76.5q17 14 39 14zM330 1514q0 26 18.5 44t44.5 18t44 -18t18 -44q0 -47 60 -78q56 -26 126 -26t127 26q61 30 61 78q0 26 18 44t44 18t44 -18t19 -43q-6 -99 -90 -160q-47 -34 -102 -51.5t-121 -17.5q-64 0 -120.5 18t-102.5 50
q-88 68 -88 160z" />
    <glyph glyph-name="Edotaccent" unicode="&#x116;" 
d="M1141 1600q25 0 43 -18t18 -44q0 -25 -18 -43t-43 -18h-924v-615h677q26 0 44 -18t18 -44t-18 -44t-44 -18h-677v-615h924q25 0 43 -18t18 -43q0 -26 -18 -44t-43 -18h-985q-26 0 -44 18t-18 44v1476q0 26 18 44t44 18h985zM750 1871q0 -44 -30 -74q-29 -30 -73 -30
t-74 30t-30 74t30 73q30 30 74 30t73 -30q30 -29 30 -73z" />
    <glyph glyph-name="edotaccent" unicode="&#x117;" 
d="M1073 622q-28 149 -125 246q-128 128 -308 128t-308 -128q-96 -96 -126 -246h867zM959 241q26 0 44 -18.5t18 -44.5t-16 -43q-156 -135 -365 -135q-232 0 -396 164t-164 396t164 396t396 164t396 -164t164 -396q0 -26 -18 -44t-44 -18h-932q30 -150 126 -246
q128 -128 308 -128q82 0 152 26.5t128 76.5q17 14 39 14zM735 1391q0 -44 -30 -74q-29 -30 -73 -30t-74 30t-30 74t30 73q30 30 74 30t73 -30q30 -29 30 -73z" />
    <glyph glyph-name="Eogonek" unicode="&#x118;" 
d="M1141 1600q25 0 43 -18t18 -44q0 -25 -18 -43t-43 -18h-924v-615h677q26 0 44 -18t18 -44t-18 -44t-44 -18h-677v-615h924q25 0 43 -18t18 -43q0 -26 -18 -44t-43 -18h-985q-26 0 -44 18t-18 44v1476q0 26 18 44t44 18h985zM915 33q15 29 54 31q28 0 45 -17
q16 -17 17 -42q0 -11 -2 -20q-14 -69 -120 -145q-44 -35 -44 -84q0 -21 8 -40t22.5 -33t33.5 -22t40 -8q30 0 56 17l73 53q16 13 37 13q26 0 44 -18.5t18 -44.5q0 -32 -20 -47l-83 -58q-59 -40 -125 -40q-94 0 -162 68q-66 66 -66 160q0 111 97 187q60 48 77 90z" />
    <glyph glyph-name="eogonek" unicode="&#x119;" 
d="M1073 622q-28 149 -125 246q-128 128 -308 128t-308 -128q-96 -96 -126 -246h867zM959 241q26 0 44 -18.5t18 -44.5t-16 -43q-156 -135 -365 -135q-232 0 -396 164t-164 396t164 396t396 164t396 -164t164 -396q0 -26 -18 -44t-44 -18h-932q30 -150 126 -246
q128 -128 308 -128q82 0 152 26.5t128 76.5q17 14 39 14zM580 33q15 29 54 31q28 0 45 -17q16 -17 17 -42q0 -11 -2 -20q-14 -69 -120 -145q-44 -35 -44 -84q0 -21 8 -40t22.5 -33t33.5 -22t40 -8q30 0 56 17l73 53q16 13 37 13q26 0 44 -18.5t18 -44.5q0 -32 -20 -47
l-83 -58q-59 -40 -125 -40q-94 0 -162 68q-66 66 -66 160q0 111 97 187q60 48 77 90z" />
    <glyph glyph-name="Ecaron" unicode="&#x11a;" 
d="M1141 1600q25 0 43 -18t18 -44q0 -25 -18 -43t-43 -18h-924v-615h677q26 0 44 -18t18 -44t-18 -44t-44 -18h-677v-615h924q25 0 43 -18t18 -43q0 -26 -18 -44t-43 -18h-985q-26 0 -44 18t-18 44v1476q0 26 18 44t44 18h985zM682 1774q-14 -8 -32 -8q-17 0 -31 8l-248 165
q-32 23 -32 55q0 26 18.5 44t44.5 18q21 0 39 -13l209 -139l209 139q18 13 40 13q26 0 44.5 -18t18.5 -44q0 -32 -33 -55z" />
    <glyph glyph-name="ecaron" unicode="&#x11b;" 
d="M1073 622q-28 149 -125 246q-128 128 -308 128t-308 -128q-96 -96 -126 -246h867zM959 241q26 0 44 -18.5t18 -44.5t-16 -43q-156 -135 -365 -135q-232 0 -396 164t-164 396t164 396t396 164t396 -164t164 -396q0 -26 -18 -44t-44 -18h-932q30 -150 126 -246
q128 -128 308 -128q82 0 152 26.5t128 76.5q17 14 39 14zM667 1294q-14 -8 -32 -8q-17 0 -31 8l-248 165q-32 23 -32 55q0 26 18.5 44t44.5 18q21 0 39 -13l209 -139l209 139q18 13 40 13q26 0 44.5 -18t18.5 -44q0 -32 -33 -55z" />
    <glyph glyph-name="Gcircumflex" unicode="&#x11c;" horiz-adv-x="1500" 
d="M1412 219q0 -27 -15 -41q-112 -87 -238 -132.5t-266 -45.5q-163 0 -306 61t-260 173q-112 117 -173 260t-61 306q0 331 234 565q235 235 566 235q285 0 507 -182q18 -18 18 -44q0 -25 -18 -43t-43 -18q-26 0 -51 24q-173 140 -413 140q-280 0 -479 -199
q-198 -198 -198 -478q0 -281 198 -479t479 -198q220 0 396 127v406h-345q-26 0 -43.5 18t-17.5 44t17.5 43.5t43.5 17.5h407q24 0 44 -18q17 -19 17 -43v-499zM1167 1883q33 -23 33 -55q0 -26 -18.5 -44t-44.5 -18q-22 0 -40 13l-209 139l-209 -139q-18 -13 -39 -13
q-26 0 -44.5 18t-18.5 44q0 32 32 55l248 165q14 8 31 8q18 0 32 -8z" />
    <glyph glyph-name="gcircumflex" unicode="&#x11d;" 
d="M640 996q-180 0 -308 -127q-128 -128 -128 -308q0 -179 128 -307t308 -128t308 128q127 127 127 307q0 181 -127 308q-128 127 -308 127zM1075 205q-183 -202 -435 -202q-232 0 -396 163q-164 164 -164 395q0 232 164 395q164 164 396 164t396 -164q164 -163 164 -395
v-566q0 -172 -125 -299q-176 -176 -426 -176t-425 176q-65 62 -105 135q-11 19 -11 37q0 26 18 44t44 18t45 -19q8 -7 14 -19q34 -60 83 -109q70 -70 154.5 -104.5t182.5 -34.5q198 0 338 140q88 106 88 211v210zM914 1403q33 -23 33 -55q0 -26 -18.5 -44t-44.5 -18
q-22 0 -40 13l-209 139l-209 -139q-18 -13 -39 -13q-26 0 -44.5 18t-18.5 44q0 32 32 55l248 165q14 8 31 8q18 0 32 -8z" />
    <glyph glyph-name="Gbreve" unicode="&#x11e;" horiz-adv-x="1500" 
d="M1412 219q0 -27 -15 -41q-112 -87 -238 -132.5t-266 -45.5q-163 0 -306 61t-260 173q-112 117 -173 260t-61 306q0 331 234 565q235 235 566 235q285 0 507 -182q18 -18 18 -44q0 -25 -18 -43t-43 -18q-26 0 -51 24q-173 140 -413 140q-280 0 -479 -199
q-198 -198 -198 -478q0 -281 198 -479t479 -198q220 0 396 127v406h-345q-26 0 -43.5 18t-17.5 44t17.5 43.5t43.5 17.5h407q24 0 44 -18q17 -19 17 -43v-499zM582 1994q0 26 18.5 44t44.5 18t44 -18t18 -44q0 -47 60 -78q56 -26 126 -26t127 26q61 30 61 78q0 26 18 44
t44 18t44 -18t19 -43q-6 -99 -90 -160q-47 -34 -102 -51.5t-121 -17.5q-64 0 -120.5 18t-102.5 50q-88 68 -88 160z" />
    <glyph glyph-name="gbreve" unicode="&#x11f;" 
d="M640 996q-180 0 -308 -127q-128 -128 -128 -308q0 -179 128 -307t308 -128t308 128q127 127 127 307q0 181 -127 308q-128 127 -308 127zM1075 205q-183 -202 -435 -202q-232 0 -396 163q-164 164 -164 395q0 232 164 395q164 164 396 164t396 -164q164 -163 164 -395
v-566q0 -172 -125 -299q-176 -176 -426 -176t-425 176q-65 62 -105 135q-11 19 -11 37q0 26 18 44t44 18t45 -19q8 -7 14 -19q34 -60 83 -109q70 -70 154.5 -104.5t182.5 -34.5q198 0 338 140q88 106 88 211v210zM330 1514q0 26 18.5 44t44.5 18t44 -18t18 -44q0 -47 60 -78
q56 -26 126 -26t127 26q61 30 61 78q0 26 18 44t44 18t44 -18t19 -43q-6 -99 -90 -160q-47 -34 -102 -51.5t-121 -17.5q-64 0 -120.5 18t-102.5 50q-88 68 -88 160z" />
    <glyph glyph-name="Gdotaccent" unicode="&#x120;" horiz-adv-x="1500" 
d="M1412 219q0 -27 -15 -41q-112 -87 -238 -132.5t-266 -45.5q-163 0 -306 61t-260 173q-112 117 -173 260t-61 306q0 331 234 565q235 235 566 235q285 0 507 -182q18 -18 18 -44q0 -25 -18 -43t-43 -18q-26 0 -51 24q-173 140 -413 140q-280 0 -479 -199
q-198 -198 -198 -478q0 -281 198 -479t479 -198q220 0 396 127v406h-345q-26 0 -43.5 18t-17.5 44t17.5 43.5t43.5 17.5h407q24 0 44 -18q17 -19 17 -43v-499zM988 1871q0 -44 -30 -74q-29 -30 -73 -30t-74 30t-30 74t30 73q30 30 74 30t73 -30q30 -29 30 -73z" />
    <glyph glyph-name="gdotaccent" unicode="&#x121;" 
d="M640 996q-180 0 -308 -127q-128 -128 -128 -308q0 -179 128 -307t308 -128t308 128q127 127 127 307q0 181 -127 308q-128 127 -308 127zM1075 205q-183 -202 -435 -202q-232 0 -396 163q-164 164 -164 395q0 232 164 395q164 164 396 164t396 -164q164 -163 164 -395
v-566q0 -172 -125 -299q-176 -176 -426 -176t-425 176q-65 62 -105 135q-11 19 -11 37q0 26 18 44t44 18t45 -19q8 -7 14 -19q34 -60 83 -109q70 -70 154.5 -104.5t182.5 -34.5q198 0 338 140q88 106 88 211v210zM735 1391q0 -44 -30 -74q-29 -30 -73 -30t-74 30t-30 74
t30 73q30 30 74 30t73 -30q30 -29 30 -73z" />
    <glyph glyph-name="Gcommaaccent" unicode="&#x122;" horiz-adv-x="1500" 
d="M1412 219q0 -27 -15 -41q-112 -87 -238 -132.5t-266 -45.5q-163 0 -306 61t-260 173q-112 117 -173 260t-61 306q0 331 234 565q235 235 566 235q285 0 507 -182q18 -18 18 -44q0 -25 -18 -43t-43 -18q-26 0 -51 24q-173 140 -413 140q-280 0 -479 -199
q-198 -198 -198 -478q0 -281 198 -479t479 -198q220 0 396 127v406h-345q-26 0 -43.5 18t-17.5 44t17.5 43.5t43.5 17.5h407q24 0 44 -18q17 -19 17 -43v-499zM1115 -281q0 -82 -66 -139q-34 -30 -74 -44t-88 -14q-56 0 -109 28l-91 54q-28 19 -28 53q0 26 18 44t44 18
q20 0 34 -10l81 -50q23 -13 51 -13q43 0 73.5 19.5t30.5 53.5q0 33 -30.5 52.5t-73.5 19.5q-29 0 -45.5 17t-16.5 41q0 21 13 33q19 17 77 17q42 -2 74.5 -13t62.5 -33q63 -53 63 -134z" />
    <glyph glyph-name="gcommaaccent" unicode="&#x123;" 
d="M640 996q-180 0 -308 -127q-128 -128 -128 -308q0 -179 128 -307t308 -128t308 128q127 127 127 307q0 181 -127 308q-128 127 -308 127zM1075 205q-183 -202 -435 -202q-232 0 -396 163q-164 164 -164 395q0 232 164 395q164 164 396 164t396 -164q164 -163 164 -395
v-566q0 -172 -125 -299q-176 -176 -426 -176t-425 176q-65 62 -105 135q-11 19 -11 37q0 26 18 44t44 18t45 -19q8 -7 14 -19q34 -60 83 -109q70 -70 154.5 -104.5t182.5 -34.5q198 0 338 140q88 106 88 211v210zM750 1301q0 -35 -24.5 -59t-58.5 -24q-51 0 -76 49
q-62 109 -62 226q0 85 40.5 177t111.5 180q11 11 28 11t29 -12t12 -29q0 -8 -4 -18q-26 -65 -40 -126.5t-14 -121.5q0 -58 13 -113t38 -107q7 -16 7 -33z" />
    <glyph glyph-name="Hcircumflex" unicode="&#x124;" 
d="M94 1538q0 26 18 44t44 18t43.5 -18t17.5 -44v-676h862v676q0 26 18 44t44 18q25 0 43 -18t18 -44v-1476q0 -26 -18 -44t-43 -18q-26 0 -44 18t-18 44v676h-862v-676q0 -26 -17.5 -44t-43.5 -18t-44 18t-18 44v1476zM928 1883q33 -23 33 -55q0 -26 -18.5 -44t-44.5 -18
q-22 0 -40 13l-209 139l-209 -139q-18 -13 -39 -13q-26 0 -44.5 18t-18.5 44q0 32 32 55l248 165q14 8 31 8q18 0 32 -8z" />
    <glyph glyph-name="hcircumflex" unicode="&#x125;" horiz-adv-x="1200" 
d="M81 1540q0 26 18 44t44 18t44 -18t18 -44v-598q184 178 394 178q216 0 366 -152q153 -152 153 -367v-539q0 -26 -18.5 -44t-44.5 -18t-44 18t-18 44v539q0 165 -116 278q-116 117 -278 117t-279 -117q-115 -114 -115 -278v-539q0 -26 -18 -44t-44 -18t-44 18t-18 44v1478
zM874 1883q33 -23 33 -55q0 -26 -18.5 -44t-44.5 -18q-22 0 -40 13l-209 139l-209 -139q-18 -13 -39 -13q-26 0 -44.5 18t-18.5 44q0 32 32 55l248 165q14 8 31 8q18 0 32 -8z" />
    <glyph glyph-name="Hbar" unicode="&#x126;" horiz-adv-x="1600" 
d="M244 1313v225q0 26 18 44t44 18t43.5 -18t17.5 -44v-225h862v225q0 26 18 44t44 18q25 0 43 -18t18 -44v-225h103q26 0 43.5 -18t17.5 -44t-17.5 -43.5t-43.5 -17.5h-103v-1128q0 -26 -18 -44t-43 -18q-26 0 -44 18t-18 44v676h-862v-676q0 -26 -17.5 -44t-43.5 -18
t-44 18t-18 44v1128h-102q-26 0 -44 17.5t-18 43.5t18 44t44 18h102zM367 1190v-328h862v328h-862z" />
    <glyph glyph-name="hbar" unicode="&#x127;" horiz-adv-x="1320" 
d="M204 1436v104q0 26 18.5 44t44.5 18t44 -18t18 -44v-104h352q26 0 44.5 -18t18.5 -44t-18.5 -44.5t-44.5 -18.5h-352v-369q184 178 394 178q214 0 366 -152q152 -151 152 -367v-539q0 -26 -18 -44t-44 -18t-44 18t-18 44v539q0 165 -116 278q-116 117 -278 117t-279 -117
q-115 -114 -115 -278v-539q0 -26 -18 -44t-44 -18t-44.5 18t-18.5 44v1249h-103q-26 0 -44.5 18.5t-18.5 44.5t18.5 44t44.5 18h103z" />
    <glyph glyph-name="Itilde" unicode="&#x128;" horiz-adv-x="640" 
d="M258 1538q0 26 17.5 44t43.5 18t44 -18t18 -44v-1476q0 -26 -18 -44t-44 -18t-43.5 18t-17.5 44v1476zM363 1838q-87 -78 -206 -78q-129 0 -221 92q-8 9 -12 20.5t-4 22.5q0 26 18 44.5t44 18.5q25 0 43 -17q56 -56 132 -56q67 0 116 40q88 79 208 79q129 0 220 -91
q17 -18 17 -44t-18 -44t-44 -18t-44 17q-54 56 -131 56q-65 0 -118 -42z" />
    <glyph glyph-name="itilde" unicode="&#x129;" horiz-adv-x="720" 
d="M290 1058q0 26 18 44t44 18t44.5 -18t18.5 -44v-996q0 -26 -18.5 -44t-44.5 -18t-44 18t-18 44v996zM403 1358q-87 -78 -206 -78q-129 0 -221 92q-8 9 -12 20.5t-4 22.5q0 26 18 44.5t44 18.5q25 0 43 -17q56 -56 132 -56q67 0 116 40q88 79 208 79q129 0 220 -91
q17 -18 17 -44t-18 -44t-44 -18t-44 17q-54 56 -131 56q-65 0 -118 -42z" />
    <glyph glyph-name="Imacron" unicode="&#x12a;" horiz-adv-x="480" 
d="M178 1538q0 26 17.5 44t43.5 18t44 -18t18 -44v-1476q0 -26 -18 -44t-44 -18t-43.5 18t-17.5 44v1476zM-11 1761q-26 0 -44.5 18.5t-18.5 44.5t18.5 44t44.5 18h497q26 0 44.5 -18t18.5 -44t-18.5 -44.5t-44.5 -18.5h-497z" />
    <glyph glyph-name="imacron" unicode="&#x12b;" horiz-adv-x="560" 
d="M210 1058q0 26 18 44t44 18t44.5 -18t18.5 -44v-996q0 -26 -18.5 -44t-44.5 -18t-44 18t-18 44v996zM29 1281q-26 0 -44.5 18.5t-18.5 44.5t18.5 44t44.5 18h497q26 0 44.5 -18t18.5 -44t-18.5 -44.5t-44.5 -18.5h-497z" />
    <glyph glyph-name="Ibreve" unicode="&#x12c;" horiz-adv-x="480" 
d="M175 1538q0 26 17.5 44t43.5 18t44 -18t18 -44v-1476q0 -26 -18 -44t-44 -18t-43.5 18t-17.5 44v1476zM-74 1994q0 26 18.5 44t44.5 18t44 -18t18 -44q0 -47 60 -78q56 -26 126 -26t127 26q61 30 61 78q0 26 18 44t44 18t44 -18t19 -43q-6 -99 -90 -160
q-47 -34 -102 -51.5t-121 -17.5q-64 0 -120.5 18t-102.5 50q-88 68 -88 160z" />
    <glyph glyph-name="ibreve" unicode="&#x12d;" horiz-adv-x="560" 
d="M205 1058q0 26 18 44t44 18t44.5 -18t18.5 -44v-996q0 -26 -18.5 -44t-44.5 -18t-44 18t-18 44v996zM-34 1514q0 26 18.5 44t44.5 18t44 -18t18 -44q0 -47 60 -78q56 -26 126 -26t127 26q61 30 61 78q0 26 18 44t44 18t44 -18t19 -43q-6 -99 -90 -160q-47 -34 -102 -51.5
t-121 -17.5q-64 0 -120.5 18t-102.5 50q-88 68 -88 160z" />
    <glyph glyph-name="Iogonek" unicode="&#x12e;" horiz-adv-x="480" 
d="M178 1538q0 26 17.5 44t43.5 18t44 -18t18 -44v-1476q0 -26 -18 -44t-44 -18t-43.5 18t-17.5 44v1476zM186 89q15 29 54 31q28 0 45 -17q16 -17 17 -42q0 -11 -2 -20q-14 -69 -120 -145q-44 -35 -44 -84q0 -21 8 -40t22.5 -33t33.5 -22t40 -8q30 0 56 17l73 53
q16 13 37 13q26 0 44 -18.5t18 -44.5q0 -32 -20 -47l-83 -58q-59 -40 -125 -40q-94 0 -162 68q-66 66 -66 160q0 111 97 187q60 48 77 90z" />
    <glyph glyph-name="iogonek" unicode="&#x12f;" horiz-adv-x="480" 
d="M315 1390q0 -35 -24 -59t-59 -24q-34 0 -58.5 24t-24.5 59q0 34 24.5 58.5t58.5 24.5q35 0 59 -24.5t24 -58.5zM170 1058q0 26 18 44t44 18t44.5 -18t18.5 -44v-996q0 -26 -18.5 -44t-44.5 -18t-44 18t-18 44v996zM180 96q15 29 54 31q28 0 45 -17q16 -17 17 -42
q0 -11 -2 -20q-14 -69 -120 -145q-44 -35 -44 -84q0 -21 8 -40t22.5 -33t33.5 -22t40 -8q30 0 56 17l73 53q16 13 37 13q26 0 44 -18.5t18 -44.5q0 -32 -20 -47l-83 -58q-59 -40 -125 -40q-94 0 -162 68q-66 66 -66 160q0 111 97 187q60 48 77 90z" />
    <glyph glyph-name="Idotaccent" unicode="&#x130;" horiz-adv-x="480" 
d="M178 1538q0 26 17.5 44t43.5 18t44 -18t18 -44v-1476q0 -26 -18 -44t-44 -18t-43.5 18t-17.5 44v1476zM335 1871q0 -44 -30 -74q-29 -30 -73 -30t-74 30t-30 74t30 73q30 30 74 30t73 -30q30 -29 30 -73z" />
    <glyph glyph-name="dotlessi" unicode="&#x131;" horiz-adv-x="480" 
d="M170 1058q0 26 18 44t44 18t44.5 -18t18.5 -44v-996q0 -26 -18.5 -44t-44.5 -18t-44 18t-18 44v996z" />
    <glyph glyph-name="IJ" unicode="&#x132;" horiz-adv-x="1520" 
d="M182 1538q0 26 17.5 44t43.5 18t44 -18t18 -44v-1476q0 -26 -18 -44t-44 -18t-43.5 18t-17.5 44v1476zM484 472q0 26 18 43.5t44 17.5t43.5 -17.5t17.5 -43.5q0 -144 102 -247q105 -102 247 -102q145 0 246 102q103 102 103 247v1066q0 26 18 44t43 18q26 0 44 -18
t18 -44v-1066q0 -196 -138 -335q-139 -137 -334 -137t-334 137q-138 141 -138 335z" />
    <glyph glyph-name="ij" unicode="&#x133;" horiz-adv-x="880" 
d="M315 1390q0 -35 -24 -59t-59 -24q-34 0 -58.5 24t-24.5 59q0 34 24.5 58.5t58.5 24.5q35 0 59 -24.5t24 -58.5zM170 1058q0 26 18 44t44 18t44.5 -18t18.5 -44v-996q0 -26 -18.5 -44t-44.5 -18t-44 18t-18 44v996zM723 1390q0 -35 -24 -59t-59 -24q-34 0 -58.5 24
t-24.5 59q0 34 24.5 58.5t58.5 24.5q35 0 59 -24.5t24 -58.5zM578 1058q0 26 18 44t44 18t44.5 -18t18.5 -44v-1061q0 -197 -140 -337t-337 -140q-26 0 -44.5 18t-18.5 44t18.5 44.5t44.5 18.5q146 0 248 103q104 103 104 249v1061z" />
    <glyph glyph-name="Jcircumflex" unicode="&#x134;" horiz-adv-x="1200" 
d="M95 472q0 26 18 43.5t44 17.5t43.5 -17.5t17.5 -43.5q0 -144 102 -247q105 -102 247 -102q145 0 246 102q103 102 103 247v1066q0 26 18 44t43 18q26 0 44 -18t18 -44v-1066q0 -196 -138 -335q-139 -137 -334 -137t-334 137q-138 141 -138 335zM1249 1883q33 -23 33 -55
q0 -26 -18.5 -44t-44.5 -18q-22 0 -40 13l-209 139l-209 -139q-18 -13 -39 -13q-26 0 -44.5 18t-18.5 44q0 32 32 55l248 165q14 8 31 8q18 0 32 -8z" />
    <glyph glyph-name="jcircumflex" unicode="&#x135;" horiz-adv-x="760" 
d="M416 1058q0 26 18 44t44 18t44.5 -18t18.5 -44v-1061q0 -197 -140 -337t-337 -140q-26 0 -44.5 18t-18.5 44t18.5 44.5t44.5 18.5q146 0 248 103q104 103 104 249v1061zM758 1362q5 -4 7.5 -6.5t6.5 -4.5q8 -9 13.5 -21t5.5 -23q0 -26 -18.5 -44.5t-44.5 -18.5
q-11 0 -21.5 4t-18.5 10l-209 139l-209 -139q-8 -6 -18 -10t-21 -4q-26 0 -44.5 18.5t-18.5 44.5q0 25 19 44l6 6t6 5q62 42 124.5 82.5t124.5 82.5h-1q16 8 32 8q17 0 33 -8h-1z" />
    <glyph glyph-name="Kcommaaccent" unicode="&#x136;" horiz-adv-x="1200" 
d="M95 1538q0 26 18 44t43 18q26 0 44 -18t18 -44v-752l795 795q19 19 46 19q26 0 44 -18t18 -44q0 -23 -18 -44l-589 -588l595 -808q11 -16 12 -33q0 -33 -25 -53q-17 -12 -35 -12q-34 0 -53 26l-583 790l-207 -207v-547q0 -26 -18 -44t-44 -18q-25 0 -43 18t-18 44v1476z
M799 -259q0 -82 -66 -139q-34 -30 -74 -44t-88 -14q-56 0 -109 28l-91 54q-28 19 -28 53q0 26 18 44t44 18q20 0 34 -10l81 -50q23 -13 51 -13q43 0 73.5 19.5t30.5 53.5q0 33 -30.5 52.5t-73.5 19.5q-29 0 -45.5 17t-16.5 41q0 21 13 33q19 17 77 17q42 -2 74.5 -13
t62.5 -33q63 -53 63 -134z" />
    <glyph glyph-name="kcommaaccent" unicode="&#x137;" horiz-adv-x="1120" 
d="M206 634l734 477q14 9 33 9q26 0 44 -18t18 -44q0 -32 -20 -47l-506 -331l509 -574q17 -18 17 -44t-18 -44t-44 -18t-45 20l-527 592l-195 -127v-423q0 -26 -18 -44t-44 -18t-44.5 18t-18.5 44v1478q0 26 18.5 44t44.5 18t44 -18t18 -44v-906zM783 -259q0 -82 -66 -139
q-34 -30 -74 -44t-88 -14q-56 0 -109 28l-91 54q-28 19 -28 53q0 26 18 44t44 18q20 0 34 -10l81 -50q23 -13 51 -13q43 0 73.5 19.5t30.5 53.5q0 33 -30.5 52.5t-73.5 19.5q-29 0 -45.5 17t-16.5 41q0 21 13 33q19 17 77 17q42 -2 74.5 -13t62.5 -33q63 -53 63 -134z" />
    <glyph glyph-name="kgreenlandic" unicode="&#x138;" horiz-adv-x="1120" 
d="M206 634l734 477q14 9 33 9q26 0 44 -18t18 -44q0 -33 -20 -47l-506 -331l509 -574q17 -18 17 -44t-18 -44t-44 -18t-45 20l-527 592l-195 -127v-423q0 -26 -18 -44t-44 -18t-44.5 18t-18.5 44v995q0 26 18.5 44t44.5 18t44 -18t18 -44v-423z" />
    <glyph glyph-name="Lacute" unicode="&#x139;" horiz-adv-x="1200" 
d="M95 1538q0 26 18 44t43 18q26 0 44 -18t18 -44v-1415h841q26 0 44 -18t18 -43q0 -26 -18 -44t-44 -18h-903q-25 0 -43 18t-18 44v1476zM367 1721q-17 -16 -42 -16q-26 0 -44 18.5t-18 44.5q0 25 14 41l252 252q18 18 45 18q26 0 44 -18t18 -44q0 -12 -4 -23.5t-13 -20.5z
" />
    <glyph glyph-name="lacute" unicode="&#x13a;" horiz-adv-x="480" 
d="M87 1540q0 26 18 44t44 18t44.5 -18t18.5 -44v-1416h103q26 0 44.5 -18t18.5 -44t-18.5 -44t-44.5 -18h-166q-26 0 -44 18t-18 44v1478zM153 1721q-17 -16 -42 -16q-26 0 -44 18.5t-18 44.5q0 25 14 41l252 252q18 18 45 18q26 0 44 -18t18 -44q0 -12 -4 -23.5t-13 -20.5
z" />
    <glyph glyph-name="Lcommaaccent" unicode="&#x13b;" horiz-adv-x="1200" 
d="M95 1538q0 26 18 44t43 18q26 0 44 -18t18 -44v-1415h841q26 0 44 -18t18 -43q0 -26 -18 -44t-44 -18h-903q-25 0 -43 18t-18 44v1476zM838 -259q0 -82 -66 -139q-34 -30 -74 -44t-88 -14q-56 0 -109 28l-91 54q-28 19 -28 53q0 26 18 44t44 18q20 0 34 -10l81 -50
q23 -13 51 -13q43 0 73.5 19.5t30.5 53.5q0 33 -30.5 52.5t-73.5 19.5q-29 0 -45.5 17t-16.5 41q0 21 13 33q19 17 77 17q42 -2 74.5 -13t62.5 -33q63 -53 63 -134z" />
    <glyph glyph-name="lcommaaccent" unicode="&#x13c;" horiz-adv-x="480" 
d="M87 1540q0 26 18 44t44 18t44.5 -18t18.5 -44v-1416h103q26 0 44.5 -18t18.5 -44t-18.5 -44t-44.5 -18h-166q-26 0 -44 18t-18 44v1478zM464 -259q0 -82 -66 -139q-34 -30 -74 -44t-88 -14q-56 0 -109 28l-91 54q-28 19 -28 53q0 26 18 44t44 18q20 0 34 -10l81 -50
q23 -13 51 -13q43 0 73.5 19.5t30.5 53.5q0 33 -30.5 52.5t-73.5 19.5q-29 0 -45.5 17t-16.5 41q0 21 13 33q19 17 77 17q42 -2 74.5 -13t62.5 -33q63 -53 63 -134z" />
    <glyph glyph-name="Lcaron" unicode="&#x13d;" horiz-adv-x="1200" 
d="M95 1538q0 26 18 44t43 18q26 0 44 -18t18 -44v-1415h841q26 0 44 -18t18 -43q0 -26 -18 -44t-44 -18h-903q-25 0 -43 18t-18 44v1476zM503 1519q0 35 24.5 59t58.5 24q51 0 76 -49q62 -109 62 -226q0 -85 -40.5 -177t-111.5 -180q-11 -11 -28 -11t-29 12t-12 29
q0 8 4 18q26 65 40 126.5t14 121.5q0 58 -13 113t-38 107q-7 16 -7 33z" />
    <glyph glyph-name="lcaron" unicode="&#x13e;" horiz-adv-x="680" 
d="M87 1540q0 26 18 44t44 18t44.5 -18t18.5 -44v-1416h103q26 0 44.5 -18t18.5 -44t-18.5 -44t-44.5 -18h-166q-26 0 -44 18t-18 44v1478zM356 1519q0 35 24.5 59t58.5 24q51 0 76 -49q62 -109 62 -226q0 -85 -40.5 -177t-111.5 -180q-11 -11 -28 -11t-29 12t-12 29
q0 8 4 18q26 65 40 126.5t14 121.5q0 58 -13 113t-38 107q-7 16 -7 33z" />
    <glyph glyph-name="Ldot" unicode="&#x13f;" horiz-adv-x="1200" 
d="M95 1538q0 26 18 44t43 18q26 0 44 -18t18 -44v-1415h841q26 0 44 -18t18 -43q0 -26 -18 -44t-44 -18h-903q-25 0 -43 18t-18 44v1476zM791 807q0 -45 -30 -73q-29 -30 -73 -30t-74 30q-30 28 -30 73q0 44 30 74t74 30t73 -30q30 -30 30 -74z" />
    <glyph glyph-name="ldot" unicode="&#x140;" horiz-adv-x="640" 
d="M87 1540q0 26 18 44t44 18t44.5 -18t18.5 -44v-1416h103q26 0 44.5 -18t18.5 -44t-18.5 -44t-44.5 -18h-166q-26 0 -44 18t-18 44v1478zM534 807q0 -45 -30 -73q-29 -30 -73 -30t-74 30q-30 28 -30 73q0 44 30 74t74 30t73 -30q30 -30 30 -74z" />
    <glyph glyph-name="Lslash" unicode="&#x141;" horiz-adv-x="1360" 
d="M246 829v709q0 26 18 44t44 18t43.5 -18t17.5 -44v-588l142 140q18 19 43 19q26 0 44 -19t18 -44q0 -24 -18 -43l-229 -227v-653h841q26 0 44 -18t18 -43q0 -26 -18 -44t-44 -18h-902q-26 0 -44 18t-18 44v593l-117 -114q-16 -19 -42 -19q-25 0 -44 19q-17 18 -17 44
q0 27 17 43z" />
    <glyph glyph-name="lslash" unicode="&#x142;" horiz-adv-x="720" 
d="M251 838v718q0 26 18.5 44t44.5 18t44 -18t18 -44v-596l143 142q17 19 44 19q26 0 44 -19q18 -18 18 -44q0 -24 -18 -44l-231 -229v-661h104q26 0 44 -18t18 -44t-18 -44t-44 -18h-166q-26 0 -44.5 18t-18.5 44v601l-118 -116q-18 -19 -42 -19q-26 0 -45 19
q-17 18 -17 44t17 44z" />
    <glyph glyph-name="Nacute" unicode="&#x143;" horiz-adv-x="1440" 
d="M216 62q0 -26 -17.5 -44t-43.5 -18t-44 18t-18 44v1476q0 26 18 44t44 18q29 0 47 -22l1040 -1337v1297q0 26 18 44t44 18q25 0 43 -18t18 -44v-1476q0 -26 -18 -44t-43 -18q-30 0 -46 18l-1042 1340v-1296zM711 1721q-17 -16 -42 -16q-26 0 -44 18.5t-18 44.5
q0 25 14 41l252 252q18 18 45 18q26 0 44 -18t18 -44q0 -12 -4 -23.5t-13 -20.5z" />
    <glyph glyph-name="nacute" unicode="&#x144;" horiz-adv-x="1200" 
d="M81 1058q0 26 18 44t44 18t44 -18t18 -44v-116q184 178 394 178q216 0 366 -152q153 -152 153 -367v-539q0 -26 -18.5 -44t-44.5 -18t-44 18t-18 44v539q0 165 -116 278q-116 117 -278 117t-279 -117q-115 -114 -115 -278v-539q0 -26 -18 -44t-44 -18t-44 18t-18 44v996z
M578 1241q-17 -16 -42 -16q-26 0 -44 18.5t-18 44.5q0 25 14 41l252 252q18 18 45 18q26 0 44 -18t18 -44q0 -12 -4 -23.5t-13 -20.5z" />
    <glyph glyph-name="Ncommaaccent" unicode="&#x145;" horiz-adv-x="1440" 
d="M216 62q0 -26 -17.5 -44t-43.5 -18t-44 18t-18 44v1476q0 26 18 44t44 18q29 0 47 -22l1040 -1337v1297q0 26 18 44t44 18q25 0 43 -18t18 -44v-1476q0 -26 -18 -44t-43 -18q-30 0 -46 18l-1042 1340v-1296zM956 -259q0 -82 -66 -139q-34 -30 -74 -44t-88 -14
q-56 0 -109 28l-91 54q-28 19 -28 53q0 26 18 44t44 18q20 0 34 -10l81 -50q23 -13 51 -13q43 0 73.5 19.5t30.5 53.5q0 33 -30.5 52.5t-73.5 19.5q-29 0 -45.5 17t-16.5 41q0 21 13 33q19 17 77 17q42 -2 74.5 -13t62.5 -33q63 -53 63 -134z" />
    <glyph glyph-name="ncommaaccent" unicode="&#x146;" horiz-adv-x="1200" 
d="M81 1058q0 26 18 44t44 18t44 -18t18 -44v-116q184 178 394 178q216 0 366 -152q153 -152 153 -367v-539q0 -26 -18.5 -44t-44.5 -18t-44 18t-18 44v539q0 165 -116 278q-116 117 -278 117t-279 -117q-115 -114 -115 -278v-539q0 -26 -18 -44t-44 -18t-44 18t-18 44v996z
M824 -259q0 -82 -66 -139q-34 -30 -74 -44t-88 -14q-56 0 -109 28l-91 54q-28 19 -28 53q0 26 18 44t44 18q20 0 34 -10l81 -50q23 -13 51 -13q43 0 73.5 19.5t30.5 53.5q0 33 -30.5 52.5t-73.5 19.5q-29 0 -45.5 17t-16.5 41q0 21 13 33q19 17 77 17q42 -2 74.5 -13
t62.5 -33q63 -53 63 -134z" />
    <glyph glyph-name="Ncaron" unicode="&#x147;" horiz-adv-x="1440" 
d="M216 62q0 -26 -17.5 -44t-43.5 -18t-44 18t-18 44v1476q0 26 18 44t44 18q29 0 47 -22l1040 -1337v1297q0 26 18 44t44 18q25 0 43 -18t18 -44v-1476q0 -26 -18 -44t-43 -18q-30 0 -46 18l-1042 1340v-1296zM760 1774q-14 -8 -32 -8q-17 0 -31 8l-248 165q-32 23 -32 55
q0 26 18.5 44t44.5 18q21 0 39 -13l209 -139l209 139q18 13 40 13q26 0 44.5 -18t18.5 -44q0 -32 -33 -55z" />
    <glyph glyph-name="ncaron" unicode="&#x148;" horiz-adv-x="1200" 
d="M81 1058q0 26 18 44t44 18t44 -18t18 -44v-116q184 178 394 178q216 0 366 -152q153 -152 153 -367v-539q0 -26 -18.5 -44t-44.5 -18t-44 18t-18 44v539q0 165 -116 278q-116 117 -278 117t-279 -117q-115 -114 -115 -278v-539q0 -26 -18 -44t-44 -18t-44 18t-18 44v996z
M627 1294q-14 -8 -32 -8q-17 0 -31 8l-248 165q-32 23 -32 55q0 26 18.5 44t44.5 18q21 0 39 -13l209 -139l209 139q18 13 40 13q26 0 44.5 -18t18.5 -44q0 -32 -33 -55z" />
    <glyph glyph-name="napostrophe" unicode="&#x149;" horiz-adv-x="1440" 
d="M322 1058q0 26 18 44t44 18t44 -18t18 -44v-116q184 178 394 178q216 0 366 -152q153 -152 153 -367v-539q0 -26 -18.5 -44t-44.5 -18t-44 18t-18 44v539q0 165 -116 278q-116 117 -278 117t-279 -117q-115 -114 -115 -278v-539q0 -26 -18 -44t-44 -18t-44 18t-18 44v996
zM93 1519q0 35 24.5 59t58.5 24q51 0 76 -49q62 -109 62 -226q0 -85 -40.5 -177t-111.5 -180q-11 -11 -28 -11t-29 12t-12 29q0 8 4 18q26 65 40 126.5t14 121.5q0 58 -13 113t-38 107q-7 16 -7 33z" />
    <glyph glyph-name="Eng" unicode="&#x14a;" horiz-adv-x="1440" 
d="M204 62q0 -26 -17.5 -44t-43.5 -18t-44 18t-18 44v1476q0 26 18 44t44 18t43.5 -18t17.5 -44v-193q27 30 64 69q186 186 449 186q134 0 244.5 -46.5t204.5 -140.5q187 -186 187 -449v-492q0 -196 -138 -335q-69 -69 -151.5 -103t-182.5 -34q-197 0 -333 139
q-18 18 -18 44q0 25 17.5 43t43.5 18t44 -17q102 -104 246 -104q145 0 246 102q103 102 103 247v492q0 214 -151 362q-147 151 -362 151q-212 0 -363 -151q-150 -150 -150 -362v-902z" />
    <glyph glyph-name="eng" unicode="&#x14b;" horiz-adv-x="1200" 
d="M993 601q0 165 -116 278q-116 117 -278 117t-279 -117q-115 -114 -115 -278v-539q0 -26 -18 -44t-44 -18t-44 18t-18 44v996q0 26 18 44t44 18t44 -18t18 -44v-116q184 178 394 178q216 0 366 -152q153 -152 153 -367v-770q0 -129 -92 -220q-90 -91 -219 -91
q-79 0 -139 32q-28 17 -29 54q0 26 18 43.5t44 17.5q14 0 23 -4q36 -18 83 -18q77 0 131 55q55 54 55 131v770z" />
    <glyph glyph-name="Omacron" unicode="&#x14c;" horiz-adv-x="1760" 
d="M891 1477q-278 0 -479 -199q-198 -198 -198 -478q0 -281 198 -479q199 -198 479 -198t478 198q199 198 199 479q0 280 -199 478q-199 199 -478 199zM1691 800q0 -331 -235 -566q-233 -234 -565 -234q-163 0 -306 61t-260 173q-112 117 -173 260t-61 306q0 331 234 565
q235 235 566 235q333 0 565 -235q235 -234 235 -565zM638 1761q-26 0 -44.5 18.5t-18.5 44.5t18.5 44t44.5 18h497q26 0 44.5 -18t18.5 -44t-18.5 -44.5t-44.5 -18.5h-497z" />
    <glyph glyph-name="omacron" unicode="&#x14d;" 
d="M1200 560q0 -232 -164 -396t-396 -164t-396 164t-164 396t164 396t396 164t396 -164t164 -396zM640 996q-180 0 -308 -128t-128 -308t128 -308t308 -128t308 128q127 127 127 308t-127 308q-128 128 -308 128zM387 1281q-26 0 -44.5 18.5t-18.5 44.5t18.5 44t44.5 18h497
q26 0 44.5 -18t18.5 -44t-18.5 -44.5t-44.5 -18.5h-497z" />
    <glyph glyph-name="Obreve" unicode="&#x14e;" horiz-adv-x="1760" 
d="M891 1477q-278 0 -479 -199q-198 -198 -198 -478q0 -281 198 -479q199 -198 479 -198t478 198q199 198 199 479q0 280 -199 478q-199 199 -478 199zM1691 800q0 -331 -235 -566q-233 -234 -565 -234q-163 0 -306 61t-260 173q-112 117 -173 260t-61 306q0 331 234 565
q235 235 566 235q333 0 565 -235q235 -234 235 -565zM581 1994q0 26 18.5 44t44.5 18t44 -18t18 -44q0 -47 60 -78q56 -26 126 -26t127 26q61 30 61 78q0 26 18 44t44 18t44 -18t19 -43q-6 -99 -90 -160q-47 -34 -102 -51.5t-121 -17.5q-64 0 -120.5 18t-102.5 50
q-88 68 -88 160z" />
    <glyph glyph-name="obreve" unicode="&#x14f;" 
d="M1200 560q0 -232 -164 -396t-396 -164t-396 164t-164 396t164 396t396 164t396 -164t164 -396zM640 996q-180 0 -308 -128t-128 -308t128 -308t308 -128t308 128q127 127 127 308t-127 308q-128 128 -308 128zM330 1514q0 26 18.5 44t44.5 18t44 -18t18 -44q0 -47 60 -78
q56 -26 126 -26t127 26q61 30 61 78q0 26 18 44t44 18t44 -18t19 -43q-6 -99 -90 -160q-47 -34 -102 -51.5t-121 -17.5q-64 0 -120.5 18t-102.5 50q-88 68 -88 160z" />
    <glyph glyph-name="Ohungarumlaut" unicode="&#x150;" horiz-adv-x="1760" 
d="M891 1477q-278 0 -479 -199q-198 -198 -198 -478q0 -281 198 -479q199 -198 479 -198t478 198q199 198 199 479q0 280 -199 478q-199 199 -478 199zM1691 800q0 -331 -235 -566q-233 -234 -565 -234q-163 0 -306 61t-260 173q-112 117 -173 260t-61 306q0 331 234 565
q235 235 566 235q333 0 565 -235q235 -234 235 -565zM697 1713q-12 -25 -41 -27q-24 0 -36 22q-4 9 -4 19t3 18l95 295q9 24 32 34q13 5 25 5q13 0 24 -4q18 -8 28.5 -24t10.5 -34q0 -12 -5 -23zM1019 1713q-12 -25 -41 -27q-24 0 -36 22q-4 9 -4 19t3 18l95 295q9 24 32 34
q13 5 25 5q13 0 24 -4q18 -8 28.5 -24t10.5 -34q0 -12 -5 -23z" />
    <glyph glyph-name="ohungarumlaut" unicode="&#x151;" 
d="M1200 560q0 -232 -164 -396t-396 -164t-396 164t-164 396t164 396t396 164t396 -164t164 -396zM640 996q-180 0 -308 -128t-128 -308t128 -308t308 -128t308 128q127 127 127 308t-127 308q-128 128 -308 128zM446 1274q-12 -25 -41 -27q-24 0 -36 22q-4 9 -4 19t3 18
l95 295q9 24 32 34q13 5 25 5q13 0 24 -4q18 -8 28.5 -24t10.5 -34q0 -12 -5 -23zM768 1274q-12 -25 -41 -27q-24 0 -36 22q-4 9 -4 19t3 18l95 295q9 24 32 34q13 5 25 5q13 0 24 -4q18 -8 28.5 -24t10.5 -34q0 -12 -5 -23z" />
    <glyph glyph-name="OE" unicode="&#x152;" horiz-adv-x="2160" 
d="M877 1477q-280 0 -479 -199q-198 -197 -198 -478q0 -282 198 -479q198 -198 479 -198h102v1354h-102zM877 0q-164 0 -307 61t-259 173q-112 117 -173 260t-61 306q0 331 234 565q234 235 566 235h1149q26 0 44 -18t18 -44q0 -25 -18 -43t-44 -18h-924v-615h678
q26 0 44 -18t18 -44t-18 -44.5t-44 -18.5h-678v-614h923q26 0 44 -18t18 -43q0 -26 -18 -44t-44 -18h-1148z" />
    <glyph glyph-name="oe" unicode="&#x153;" horiz-adv-x="2240" 
d="M631 996q-180 0 -308 -128t-128 -308t128 -308t308 -128t308 128t128 308t-128 308t-308 128zM2060 622q-30 151 -125 246q-130 128 -308 128q-180 0 -308 -128q-50 -49 -80.5 -110t-45.5 -136h867zM1027 164q-164 -164 -396 -164t-396 164t-164 396t164 396t396 164
t396 -164q47 -47 103 -136q25 44 50 77.5t50 58.5q164 164 397 164q232 0 396 -164t164 -396q0 -26 -18.5 -44t-44.5 -18h-931q30 -152 126 -246q128 -128 308 -128q81 0 151.5 26.5t128.5 76.5q17 14 39 14q26 0 44 -18.5t18 -44.5t-19 -44q-153 -134 -362 -134
q-233 0 -397 164q-57 60 -98 136q-44 -76 -105 -136z" />
    <glyph glyph-name="Racute" unicode="&#x154;" horiz-adv-x="1200" 
d="M218 1477v-698h349q144 0 246 102t102 247q0 147 -102 246q-102 103 -246 103h-349zM567 1600q196 0 333 -138q138 -138 138 -334t-137 -333q-65 -65 -160 -108l369 -592q11 -16 11 -33q0 -26 -18 -44t-44 -18q-32 0 -54 33l-391 625q-21 -2 -47 -2h-349v-594
q0 -26 -18 -44t-44 -18q-25 0 -43 18t-18 44v1476q0 26 18 44t43 18h411zM446 1721q-17 -16 -42 -16q-26 0 -44 18.5t-18 44.5q0 25 14 41l252 252q18 18 45 18q26 0 44 -18t18 -44q0 -12 -4 -23.5t-13 -20.5z" />
    <glyph glyph-name="racute" unicode="&#x155;" horiz-adv-x="960" 
d="M83 1058q0 26 18 44t44 18t44 -18t18 -44v-141q203 203 436 203q125 0 214 -39q16 -6 29 -19q17 -17 17 -44q0 -26 -18 -44t-44 -18q-16 0 -28 6q-70 34 -170 34q-180 0 -308 -128q-128 -127 -128 -308v-498q0 -26 -18 -44t-44 -18t-44 18t-18 44v996zM429 1241
q-17 -16 -42 -16q-26 0 -44 18.5t-18 44.5q0 25 14 41l252 252q18 18 45 18q26 0 44 -18t18 -44q0 -12 -4 -23.5t-13 -20.5z" />
    <glyph glyph-name="Rcommaaccent" unicode="&#x156;" horiz-adv-x="1200" 
d="M218 1477v-698h349q144 0 246 102t102 247q0 147 -102 246q-102 103 -246 103h-349zM567 1600q196 0 333 -138q138 -138 138 -334t-137 -333q-65 -65 -160 -108l369 -592q11 -16 11 -33q0 -26 -18 -44t-44 -18q-32 0 -54 33l-391 625q-21 -2 -47 -2h-349v-594
q0 -26 -18 -44t-44 -18q-25 0 -43 18t-18 44v1476q0 26 18 44t43 18h411zM838 -259q0 -82 -66 -139q-34 -30 -74 -44t-88 -14q-56 0 -109 28l-91 54q-28 19 -28 53q0 26 18 44t44 18q20 0 34 -10l81 -50q23 -13 51 -13q43 0 73.5 19.5t30.5 53.5q0 33 -30.5 52.5t-73.5 19.5
q-29 0 -45.5 17t-16.5 41q0 21 13 33q19 17 77 17q42 -2 74.5 -13t62.5 -33q63 -53 63 -134z" />
    <glyph glyph-name="rcommaaccent" unicode="&#x157;" horiz-adv-x="960" 
d="M83 1058q0 26 18 44t44 18t44 -18t18 -44v-141q203 203 436 203q125 0 214 -39q16 -6 29 -19q17 -17 17 -44q0 -26 -18 -44t-44 -18q-16 0 -28 6q-70 34 -170 34q-180 0 -308 -128q-128 -127 -128 -308v-498q0 -26 -18 -44t-44 -18t-44 18t-18 44v996zM621 -259
q0 -82 -66 -139q-34 -30 -74 -44t-88 -14q-56 0 -109 28l-91 54q-28 19 -28 53q0 26 18 44t44 18q20 0 34 -10l81 -50q23 -13 51 -13q43 0 73.5 19.5t30.5 53.5q0 33 -30.5 52.5t-73.5 19.5q-29 0 -45.5 17t-16.5 41q0 21 13 33q19 17 77 17q42 -2 74.5 -13t62.5 -33
q63 -53 63 -134z" />
    <glyph glyph-name="Rcaron" unicode="&#x158;" horiz-adv-x="1200" 
d="M218 1477v-698h349q144 0 246 102t102 247q0 147 -102 246q-102 103 -246 103h-349zM567 1600q196 0 333 -138q138 -138 138 -334t-137 -333q-65 -65 -160 -108l369 -592q11 -16 11 -33q0 -26 -18 -44t-44 -18q-32 0 -54 33l-391 625q-21 -2 -47 -2h-349v-594
q0 -26 -18 -44t-44 -18q-25 0 -43 18t-18 44v1476q0 26 18 44t43 18h411zM523 1774q-14 -8 -32 -8q-17 0 -31 8l-248 165q-32 23 -32 55q0 26 18.5 44t44.5 18q21 0 39 -13l209 -139l209 139q18 13 40 13q26 0 44.5 -18t18.5 -44q0 -32 -33 -55z" />
    <glyph glyph-name="rcaron" unicode="&#x159;" horiz-adv-x="960" 
d="M83 1058q0 26 18 44t44 18t44 -18t18 -44v-141q203 203 436 203q125 0 214 -39q16 -6 29 -19q17 -17 17 -44q0 -26 -18 -44t-44 -18q-16 0 -28 6q-70 34 -170 34q-180 0 -308 -128q-128 -127 -128 -308v-498q0 -26 -18 -44t-44 -18t-44 18t-18 44v996zM506 1294
q-14 -8 -32 -8q-17 0 -31 8l-248 165q-32 23 -32 55q0 26 18.5 44t44.5 18q21 0 39 -13l209 -139l209 139q18 13 40 13q26 0 44.5 -18t18.5 -44q0 -32 -33 -55z" />
    <glyph glyph-name="Sacute" unicode="&#x15a;" horiz-adv-x="1060" 
d="M96 253q0 26 17.5 44t43.5 18q33 0 53 -28q13 -19 30 -40q45 -52 109 -86.5t160 -37.5q125 0 223 83q53 46 88 110.5t35 158.5q0 126 -83 222q-46 54 -106.5 85t-130.5 37q-78 8 -146.5 43t-119.5 94q-44 54 -68 117t-24 132q2 187 137 301q109 94 254 94q168 0 296 -139
q22 -26 38 -53q9 -15 9 -34q0 -25 -18 -43t-43 -18q-29 0 -41 16q-16 22 -39 50q-75 88 -181 95q-109 7 -195 -64q-86 -72 -93 -179q-4 -55 11 -104t51 -91q36 -43 81.5 -65.5t99.5 -27.5q95 -10 177.5 -52.5t145.5 -113.5q53 -65 82 -141t29 -157q-2 -138 -46.5 -220.5
t-119.5 -145.5q-134 -113 -302 -113q-211 0 -364 167q-17 19 -37 48q-13 17 -13 38zM524 1721q-17 -16 -42 -16q-26 0 -44 18.5t-18 44.5q0 25 14 41l252 252q18 18 45 18q26 0 44 -18t18 -44q0 -12 -4 -23.5t-13 -20.5z" />
    <glyph glyph-name="sacute" unicode="&#x15b;" horiz-adv-x="1060" 
d="M273 580h1q-46 17 -77 33.5t-48 34.5q-67 69 -67 161q0 93 70 165q144 146 376 146q124 0 233 -52.5t197 -148.5q11 -14 11 -35q0 -26 -18.5 -44.5t-44.5 -18.5q-25 0 -39 16l-31 31q-128 128 -308 128q-181 0 -291 -116q-30 -35 -30 -86q2 -30 18 -52t47 -33l511 -169
h-1q46 -17 77 -33.5t47 -34.5q68 -68 68 -161q0 -94 -71 -165q-143 -146 -375 -146q-251 0 -430 200q-11 15 -11 36q0 26 18 44.5t44 18.5q24 0 40 -16l31 -31q128 -128 308 -128t289 115q31 35 31 86q-5 64 -65 86zM470 1241q-17 -16 -42 -16q-26 0 -44 18.5t-18 44.5
q0 25 14 41l252 252q18 18 45 18q26 0 44 -18t18 -44q0 -12 -4 -23.5t-13 -20.5z" />
    <glyph glyph-name="Scircumflex" unicode="&#x15c;" horiz-adv-x="1060" 
d="M96 253q0 26 17.5 44t43.5 18q33 0 53 -28q13 -19 30 -40q45 -52 109 -86.5t160 -37.5q125 0 223 83q53 46 88 110.5t35 158.5q0 126 -83 222q-46 54 -106.5 85t-130.5 37q-78 8 -146.5 43t-119.5 94q-44 54 -68 117t-24 132q2 187 137 301q109 94 254 94q168 0 296 -139
q22 -26 38 -53q9 -15 9 -34q0 -25 -18 -43t-43 -18q-29 0 -41 16q-16 22 -39 50q-75 88 -181 95q-109 7 -195 -64q-86 -72 -93 -179q-4 -55 11 -104t51 -91q36 -43 81.5 -65.5t99.5 -27.5q95 -10 177.5 -52.5t145.5 -113.5q53 -65 82 -141t29 -157q-2 -138 -46.5 -220.5
t-119.5 -145.5q-134 -113 -302 -113q-211 0 -364 167q-17 19 -37 48q-13 17 -13 38zM830 1883q33 -23 33 -55q0 -26 -18.5 -44t-44.5 -18q-22 0 -40 13l-209 139l-209 -139q-18 -13 -39 -13q-26 0 -44.5 18t-18.5 44q0 32 32 55l248 165q14 8 31 8q18 0 32 -8z" />
    <glyph glyph-name="scircumflex" unicode="&#x15d;" horiz-adv-x="1060" 
d="M273 580h1q-46 17 -77 33.5t-48 34.5q-67 69 -67 161q0 93 70 165q144 146 376 146q124 0 233 -52.5t197 -148.5q11 -14 11 -35q0 -26 -18.5 -44.5t-44.5 -18.5q-25 0 -39 16l-31 31q-128 128 -308 128q-181 0 -291 -116q-30 -35 -30 -86q2 -30 18 -52t47 -33l511 -169
h-1q46 -17 77 -33.5t47 -34.5q68 -68 68 -161q0 -94 -71 -165q-143 -146 -375 -146q-251 0 -430 200q-11 15 -11 36q0 26 18 44.5t44 18.5q24 0 40 -16l31 -31q128 -128 308 -128t289 115q31 35 31 86q-5 64 -65 86zM804 1403q33 -23 33 -55q0 -26 -18.5 -44t-44.5 -18
q-22 0 -40 13l-209 139l-209 -139q-18 -13 -39 -13q-26 0 -44.5 18t-18.5 44q0 32 32 55l248 165q14 8 31 8q18 0 32 -8z" />
    <glyph glyph-name="Scedilla" unicode="&#x15e;" horiz-adv-x="1060" 
d="M96 253q0 26 17.5 44t43.5 18q33 0 53 -28q13 -19 30 -40q45 -52 109 -86.5t160 -37.5q125 0 223 83q53 46 88 110.5t35 158.5q0 126 -83 222q-46 54 -106.5 85t-130.5 37q-78 8 -146.5 43t-119.5 94q-44 54 -68 117t-24 132q2 187 137 301q109 94 254 94q168 0 296 -139
q22 -26 38 -53q9 -15 9 -34q0 -25 -18 -43t-43 -18q-29 0 -41 16q-16 22 -39 50q-75 88 -181 95q-109 7 -195 -64q-86 -72 -93 -179q-4 -55 11 -104t51 -91q36 -43 81.5 -65.5t99.5 -27.5q95 -10 177.5 -52.5t145.5 -113.5q53 -65 82 -141t29 -157q-2 -138 -46.5 -220.5
t-119.5 -145.5q-134 -113 -302 -113q-211 0 -364 167q-17 19 -37 48q-13 17 -13 38zM478 60q17 17 43 17t44.5 -18t18.5 -44q0 -8 -2 -16l-21 -78q51 -22 82 -46q65 -57 65 -140q0 -81 -66 -139q-67 -58 -162 -58q-53 0 -109 28l-91 54q-28 20 -28 53q0 26 18 44t44 18
q19 0 34 -9l81 -51q24 -12 51 -12q43 0 73.5 19.5t30.5 52.5q0 34 -30.5 53.5t-73.5 19.5q-26 0 -44 18t-18 44q0 11 3 20l40 143q5 15 17 27z" />
    <glyph glyph-name="scedilla" unicode="&#x15f;" horiz-adv-x="1060" 
d="M273 580h1q-46 17 -77 33.5t-48 34.5q-67 69 -67 161q0 93 70 165q144 146 376 146q124 0 233 -52.5t197 -148.5q11 -14 11 -35q0 -26 -18.5 -44.5t-44.5 -18.5q-25 0 -39 16l-31 31q-128 128 -308 128q-181 0 -291 -116q-30 -35 -30 -86q2 -30 18 -52t47 -33l511 -169
h-1q46 -17 77 -33.5t47 -34.5q68 -68 68 -161q0 -94 -71 -165q-143 -146 -375 -146q-251 0 -430 200q-11 15 -11 36q0 26 18 44.5t44 18.5q24 0 40 -16l31 -31q128 -128 308 -128t289 115q31 35 31 86q-5 64 -65 86zM472 60q17 17 43 17t44.5 -18t18.5 -44q0 -8 -2 -16
l-21 -78q51 -22 82 -46q65 -57 65 -140q0 -81 -66 -139q-67 -58 -162 -58q-53 0 -109 28l-91 54q-28 20 -28 53q0 26 18 44t44 18q19 0 34 -9l81 -51q24 -12 51 -12q43 0 73.5 19.5t30.5 52.5q0 34 -30.5 53.5t-73.5 19.5q-26 0 -44 18t-18 44q0 11 3 20l40 143q5 15 17 27z
" />
    <glyph glyph-name="Scaron" unicode="&#x160;" horiz-adv-x="1060" 
d="M96 253q0 26 17.5 44t43.5 18q33 0 53 -28q13 -19 30 -40q45 -52 109 -86.5t160 -37.5q125 0 223 83q53 46 88 110.5t35 158.5q0 126 -83 222q-46 54 -106.5 85t-130.5 37q-78 8 -146.5 43t-119.5 94q-44 54 -68 117t-24 132q2 187 137 301q109 94 254 94q168 0 296 -139
q22 -26 38 -53q9 -15 9 -34q0 -25 -18 -43t-43 -18q-29 0 -41 16q-16 22 -39 50q-75 88 -181 95q-109 7 -195 -64q-86 -72 -93 -179q-4 -55 11 -104t51 -91q36 -43 81.5 -65.5t99.5 -27.5q95 -10 177.5 -52.5t145.5 -113.5q53 -65 82 -141t29 -157q-2 -138 -46.5 -220.5
t-119.5 -145.5q-134 -113 -302 -113q-211 0 -364 167q-17 19 -37 48q-13 17 -13 38zM573 1774q-14 -8 -32 -8q-17 0 -31 8l-248 165q-32 23 -32 55q0 26 18.5 44t44.5 18q21 0 39 -13l209 -139l209 139q18 13 40 13q26 0 44.5 -18t18.5 -44q0 -32 -33 -55z" />
    <glyph glyph-name="scaron" unicode="&#x161;" horiz-adv-x="1060" 
d="M273 580h1q-46 17 -77 33.5t-48 34.5q-67 69 -67 161q0 93 70 165q144 146 376 146q124 0 233 -52.5t197 -148.5q11 -14 11 -35q0 -26 -18.5 -44.5t-44.5 -18.5q-25 0 -39 16l-31 31q-128 128 -308 128q-181 0 -291 -116q-30 -35 -30 -86q2 -30 18 -52t47 -33l511 -169
h-1q46 -17 77 -33.5t47 -34.5q68 -68 68 -161q0 -94 -71 -165q-143 -146 -375 -146q-251 0 -430 200q-11 15 -11 36q0 26 18 44.5t44 18.5q24 0 40 -16l31 -31q128 -128 308 -128t289 115q31 35 31 86q-5 64 -65 86zM557 1294q-14 -8 -32 -8q-17 0 -31 8l-248 165
q-32 23 -32 55q0 26 18.5 44t44.5 18q21 0 39 -13l209 -139l209 139q18 13 40 13q26 0 44.5 -18t18.5 -44q0 -32 -33 -55z" />
    <glyph glyph-name="Tcommaaccent" unicode="&#x162;" horiz-adv-x="1360" 
d="M155 1477q-25 0 -43 18t-18 43q0 26 18 44t43 18h1067q26 0 44 -18t18 -44q0 -25 -18 -43t-44 -18h-472v-1415q0 -26 -17.5 -44t-43.5 -18t-44 18t-18 44v1415h-472zM644 110q17 17 43 17t44.5 -18t18.5 -44q0 -8 -2 -16l-21 -78q51 -22 82 -46q65 -57 65 -140
q0 -81 -66 -139q-67 -58 -162 -58q-53 0 -109 28l-91 54q-28 20 -28 53q0 26 18 44t44 18q19 0 34 -9l81 -51q24 -12 51 -12q43 0 73.5 19.5t30.5 52.5q0 34 -30.5 53.5t-73.5 19.5q-26 0 -44 18t-18 44q0 11 3 20l40 143q5 15 17 27z" />
    <glyph glyph-name="tcommaaccent" unicode="&#x163;" horiz-adv-x="800" 
d="M644 124q26 0 44.5 -18t18.5 -44t-18.5 -44t-44.5 -18q-394 0 -394 394v602h-103q-26 0 -44.5 18t-18.5 44t18.5 44t44.5 18h103v419q0 26 18 44t44 18t44.5 -18t18.5 -44v-419h187q26 0 44.5 -18t18.5 -44t-18.5 -44t-44.5 -18h-187v-602q0 -270 269 -270zM472 80
q17 17 43 17t44.5 -18t18.5 -44q0 -8 -2 -16l-21 -78q51 -22 82 -46q65 -57 65 -140q0 -81 -66 -139q-67 -58 -162 -58q-53 0 -109 28l-91 54q-28 20 -28 53q0 26 18 44t44 18q19 0 34 -9l81 -51q24 -12 51 -12q43 0 73.5 19.5t30.5 52.5q0 34 -30.5 53.5t-73.5 19.5
q-26 0 -44 18t-18 44q0 11 3 20l40 143q5 15 17 27z" />
    <glyph glyph-name="Tcaron" unicode="&#x164;" horiz-adv-x="1360" 
d="M155 1477q-25 0 -43 18t-18 43q0 26 18 44t43 18h1067q26 0 44 -18t18 -44q0 -25 -18 -43t-44 -18h-472v-1415q0 -26 -17.5 -44t-43.5 -18t-44 18t-18 44v1415h-472zM720 1774q-14 -8 -32 -8q-17 0 -31 8l-248 165q-32 23 -32 55q0 26 18.5 44t44.5 18q21 0 39 -13
l209 -139l209 139q18 13 40 13q26 0 44.5 -18t18.5 -44q0 -32 -33 -55z" />
    <glyph glyph-name="tcaron" unicode="&#x165;" horiz-adv-x="1040" 
d="M644 124q26 0 44.5 -18t18.5 -44t-18.5 -44t-44.5 -18q-394 0 -394 394v602h-103q-26 0 -44.5 18t-18.5 44t18.5 44t44.5 18h103v419q0 26 18 44t44 18t44.5 -18t18.5 -44v-419h187q26 0 44.5 -18t18.5 -44t-18.5 -44t-44.5 -18h-187v-602q0 -270 269 -270zM728 1519
q0 35 24.5 59t58.5 24q51 0 76 -49q62 -109 62 -226q0 -85 -40.5 -177t-111.5 -180q-11 -11 -28 -11t-29 12t-12 29q0 8 4 18q26 65 40 126.5t14 121.5q0 58 -13 113t-38 107q-7 16 -7 33z" />
    <glyph glyph-name="Tbar" unicode="&#x166;" horiz-adv-x="1360" 
d="M615 779v698h-472q-25 0 -43 18t-18 43q0 26 18 44t43 18h1067q26 0 44 -18t18 -44q0 -25 -18 -43t-44 -18h-472v-698h349q26 0 44 -17.5t18 -43.5t-18 -44t-44 -18h-349v-594q0 -26 -17.5 -44t-43.5 -18t-44 18t-18 44v594h-349q-25 0 -43 18t-18 44t18 43.5t43 17.5
h349z" />
    <glyph glyph-name="tbar" unicode="&#x167;" horiz-adv-x="800" 
d="M375 581v-187q0 -270 269 -270q26 0 44.5 -18t18.5 -44t-18.5 -44t-44.5 -18q-394 0 -394 394v187h-105q-26 0 -44 18t-18 44t18 44t44 18h105v291h-103q-26 0 -44.5 18t-18.5 44t18.5 44t44.5 18h103v436q0 26 18 44t44 18t44.5 -18t18.5 -44v-436h187q26 0 44.5 -18
t18.5 -44t-18.5 -44t-44.5 -18h-187v-291h186q26 0 44.5 -18t18.5 -44t-18.5 -44t-44.5 -18h-186z" />
    <glyph glyph-name="Utilde" unicode="&#x168;" 
d="M94 1538q0 26 18 44t44 18t43.5 -18t17.5 -44v-984q0 -179 127 -305q126 -126 304 -126q179 0 305 126t126 305v984q0 26 18 44t44 18q25 0 43 -18t18 -44v-984q0 -230 -162 -392t-392 -162t-392 162q-81 81 -121.5 178.5t-40.5 213.5v984zM694 1838q-87 -78 -206 -78
q-129 0 -221 92q-8 9 -12 20.5t-4 22.5q0 26 18 44.5t44 18.5q25 0 43 -17q56 -56 132 -56q67 0 116 40q88 79 208 79q129 0 220 -91q17 -18 17 -44t-18 -44t-44 -18t-44 17q-54 56 -131 56q-65 0 -118 -42z" />
    <glyph glyph-name="utilde" unicode="&#x169;" horiz-adv-x="1200" 
d="M1118 62q0 -26 -18.5 -44t-44.5 -18t-44 18t-18 44v116q-184 -178 -394 -178q-213 0 -367 151q-151 152 -151 368v539q0 26 18 44t44 18t44 -18t18 -44v-539q0 -164 115 -279q119 -116 279 -116q162 0 278 116q116 115 116 279v539q0 26 18 44t44 18t44.5 -18t18.5 -44
v-996zM641 1358q-87 -78 -206 -78q-129 0 -221 92q-8 9 -12 20.5t-4 22.5q0 26 18 44.5t44 18.5q25 0 43 -17q56 -56 132 -56q67 0 116 40q88 79 208 79q129 0 220 -91q17 -18 17 -44t-18 -44t-44 -18t-44 17q-54 56 -131 56q-65 0 -118 -42z" />
    <glyph glyph-name="Umacron" unicode="&#x16a;" 
d="M94 1538q0 26 18 44t44 18t43.5 -18t17.5 -44v-984q0 -179 127 -305q126 -126 304 -126q179 0 305 126t126 305v984q0 26 18 44t44 18q25 0 43 -18t18 -44v-984q0 -230 -162 -392t-392 -162t-392 162q-81 81 -121.5 178.5t-40.5 213.5v984zM400 1761q-26 0 -44.5 18.5
t-18.5 44.5t18.5 44t44.5 18h497q26 0 44.5 -18t18.5 -44t-18.5 -44.5t-44.5 -18.5h-497z" />
    <glyph glyph-name="umacron" unicode="&#x16b;" horiz-adv-x="1200" 
d="M1118 62q0 -26 -18.5 -44t-44.5 -18t-44 18t-18 44v116q-184 -178 -394 -178q-213 0 -367 151q-151 152 -151 368v539q0 26 18 44t44 18t44 -18t18 -44v-539q0 -164 115 -279q119 -116 279 -116q162 0 278 116q116 115 116 279v539q0 26 18 44t44 18t44.5 -18t18.5 -44
v-996zM347 1281q-26 0 -44.5 18.5t-18.5 44.5t18.5 44t44.5 18h497q26 0 44.5 -18t18.5 -44t-18.5 -44.5t-44.5 -18.5h-497z" />
    <glyph glyph-name="Ubreve" unicode="&#x16c;" 
d="M94 1538q0 26 18 44t44 18t43.5 -18t17.5 -44v-984q0 -179 127 -305q126 -126 304 -126q179 0 305 126t126 305v984q0 26 18 44t44 18q25 0 43 -18t18 -44v-984q0 -230 -162 -392t-392 -162t-392 162q-81 81 -121.5 178.5t-40.5 213.5v984zM343 1994q0 26 18.5 44
t44.5 18t44 -18t18 -44q0 -47 60 -78q56 -26 126 -26t127 26q61 30 61 78q0 26 18 44t44 18t44 -18t19 -43q-6 -99 -90 -160q-47 -34 -102 -51.5t-121 -17.5q-64 0 -120.5 18t-102.5 50q-88 68 -88 160z" />
    <glyph glyph-name="ubreve" unicode="&#x16d;" horiz-adv-x="1200" 
d="M1118 62q0 -26 -18.5 -44t-44.5 -18t-44 18t-18 44v116q-184 -178 -394 -178q-213 0 -367 151q-151 152 -151 368v539q0 26 18 44t44 18t44 -18t18 -44v-539q0 -164 115 -279q119 -116 279 -116q162 0 278 116q116 115 116 279v539q0 26 18 44t44 18t44.5 -18t18.5 -44
v-996zM290 1514q0 26 18.5 44t44.5 18t44 -18t18 -44q0 -47 60 -78q56 -26 126 -26t127 26q61 30 61 78q0 26 18 44t44 18t44 -18t19 -43q-6 -99 -90 -160q-47 -34 -102 -51.5t-121 -17.5q-64 0 -120.5 18t-102.5 50q-88 68 -88 160z" />
    <glyph glyph-name="Uring" unicode="&#x16e;" 
d="M94 1538q0 26 18 44t44 18t43.5 -18t17.5 -44v-984q0 -179 127 -305q126 -126 304 -126q179 0 305 126t126 305v984q0 26 18 44t44 18q25 0 43 -18t18 -44v-984q0 -230 -162 -392t-392 -162t-392 162q-81 81 -121.5 178.5t-40.5 213.5v984zM835 1892q0 -77 -55 -134
q-55 -55 -133 -55q-77 0 -134 55q-55 57 -55 134q0 78 55 133q57 55 134 55q78 0 133 -55t55 -133zM724 1815q32 32 32 77t-32 77t-77 32t-77 -32t-32 -77t32 -77t77 -32t77 32z" />
    <glyph glyph-name="uring" unicode="&#x16f;" horiz-adv-x="1200" 
d="M1118 62q0 -26 -18.5 -44t-44.5 -18t-44 18t-18 44v116q-184 -178 -394 -178q-213 0 -367 151q-151 152 -151 368v539q0 26 18 44t44 18t44 -18t18 -44v-539q0 -164 115 -279q119 -116 279 -116q162 0 278 116q116 115 116 279v539q0 26 18 44t44 18t44.5 -18t18.5 -44
v-996zM782 1412q0 -77 -55 -134q-55 -55 -133 -55q-77 0 -134 55q-55 57 -55 134q0 78 55 133q57 55 134 55q78 0 133 -55t55 -133zM671 1335q32 32 32 77t-32 77t-77 32t-77 -32t-32 -77t32 -77t77 -32t77 32z" />
    <glyph glyph-name="Uhungarumlaut" unicode="&#x170;" 
d="M94 1538q0 26 18 44t44 18t43.5 -18t17.5 -44v-984q0 -179 127 -305q126 -126 304 -126q179 0 305 126t126 305v984q0 26 18 44t44 18q25 0 43 -18t18 -44v-984q0 -230 -162 -392t-392 -162t-392 162q-81 81 -121.5 178.5t-40.5 213.5v984zM459 1714q-12 -25 -41 -27
q-24 0 -36 22q-4 9 -4 19t3 18l95 295q9 24 32 34q13 5 25 5q13 0 24 -4q18 -8 28.5 -24t10.5 -34q0 -12 -5 -23zM781 1714q-12 -25 -41 -27q-24 0 -36 22q-4 9 -4 19t3 18l95 295q9 24 32 34q13 5 25 5q13 0 24 -4q18 -8 28.5 -24t10.5 -34q0 -12 -5 -23z" />
    <glyph glyph-name="uhungarumlaut" unicode="&#x171;" horiz-adv-x="1200" 
d="M1118 62q0 -26 -18.5 -44t-44.5 -18t-44 18t-18 44v116q-184 -178 -394 -178q-213 0 -367 151q-151 152 -151 368v539q0 26 18 44t44 18t44 -18t18 -44v-539q0 -164 115 -279q119 -116 279 -116q162 0 278 116q116 115 116 279v539q0 26 18 44t44 18t44.5 -18t18.5 -44
v-996zM406 1234q-12 -25 -41 -27q-24 0 -36 22q-4 9 -4 19t3 18l95 295q9 24 32 34q13 5 25 5q13 0 24 -4q18 -8 28.5 -24t10.5 -34q0 -12 -5 -23zM728 1234q-12 -25 -41 -27q-24 0 -36 22q-4 9 -4 19t3 18l95 295q9 24 32 34q13 5 25 5q13 0 24 -4q18 -8 28.5 -24t10.5 -34
q0 -12 -5 -23z" />
    <glyph glyph-name="Uogonek" unicode="&#x172;" 
d="M94 1538q0 26 18 44t44 18t43.5 -18t17.5 -44v-984q0 -179 127 -305q126 -126 304 -126q179 0 305 126t126 305v984q0 26 18 44t44 18q25 0 43 -18t18 -44v-984q0 -230 -162 -392t-392 -162t-392 162q-81 81 -121.5 178.5t-40.5 213.5v984zM593 36q15 29 54 31
q28 0 45 -17q16 -17 17 -42q0 -11 -2 -20q-14 -69 -120 -145q-44 -35 -44 -84q0 -21 8 -40t22.5 -33t33.5 -22t40 -8q30 0 56 17l73 53q16 13 37 13q26 0 44 -18.5t18 -44.5q0 -32 -20 -47l-83 -58q-59 -40 -125 -40q-94 0 -162 68q-66 66 -66 160q0 111 97 187q60 48 77 90
z" />
    <glyph glyph-name="uogonek" unicode="&#x173;" 
d="M1118 62q0 -26 -18.5 -44t-44.5 -18t-44 18t-18 44v116q-184 -178 -394 -178q-213 0 -367 151q-151 152 -151 368v539q0 26 18 44t44 18t44 -18t18 -44v-539q0 -164 115 -279q119 -116 279 -116q162 0 278 116q116 115 116 279v539q0 26 18 44t44 18t44.5 -18t18.5 -44
v-996zM1002 90q15 29 54 31q28 0 45 -17q16 -17 17 -42q0 -11 -2 -20q-14 -69 -120 -145q-44 -35 -44 -84q0 -21 8 -40t22.5 -33t33.5 -22t40 -8q30 0 56 17l73 53q16 13 37 13q26 0 44 -18.5t18 -44.5q0 -32 -20 -47l-83 -58q-59 -40 -125 -40q-94 0 -162 68
q-66 66 -66 160q0 111 97 187q60 48 77 90z" />
    <glyph glyph-name="Wcircumflex" unicode="&#x174;" horiz-adv-x="1920" 
d="M929 1583q19 17 43 17q26 0 44 -17q10 -11 15 -24l352 -1266l351 1266q5 14 16 25q17 16 43 16t43.5 -18t17.5 -44q0 -13 -5 -30l-402 -1454q-6 -22 -20 -36q-20 -18 -44 -18q-26 0 -44 18q-14 15 -20 35l-347 1252l-345 -1251q-7 -21 -21 -36q-19 -18 -44 -18t-43 18
q-15 15 -21 35l-403 1455q-5 17 -5 30q0 26 18 44t44 18t44 -17q10 -11 14 -24l352 -1266l352 1267q3 11 15 23zM1247 1883q33 -23 33 -55q0 -26 -18.5 -44t-44.5 -18q-22 0 -40 13l-209 139l-209 -139q-18 -13 -39 -13q-26 0 -44.5 18t-18.5 44q0 32 32 55l248 165
q14 8 31 8q18 0 32 -8z" />
    <glyph glyph-name="wcircumflex" unicode="&#x175;" horiz-adv-x="1600" 
d="M760 1103q18 17 43 17q26 0 43 -17q12 -12 18 -31l271 -813l274 825q4 10 12 18q18 18 46 18q26 0 44 -18t18 -44q0 -12 -5 -26l-331 -993q-4 -12 -15 -23q-16 -16 -43 -16t-44 17q-9 9 -14 22l-274 822l-274 -822q-4 -12 -13 -21q-18 -18 -45 -18t-44 17q-9 9 -14 22
l-331 993q-5 15 -5 26q0 26 18 44t44 18t45 -18q7 -7 12 -19l275 -824l271 813q7 20 18 31zM1074 1403q33 -23 33 -55q0 -26 -18.5 -44t-44.5 -18q-22 0 -40 13l-209 139l-209 -139q-18 -13 -39 -13q-26 0 -44.5 18t-18.5 44q0 32 32 55l248 165q14 8 31 8q18 0 32 -8z" />
    <glyph glyph-name="Ycircumflex" unicode="&#x176;" 
d="M710 62q0 -26 -18 -44t-44 -18t-43.5 18t-17.5 44v720l-483 722q-10 16 -10 34q0 26 18 44t44 18q30 0 49 -25l443 -664l443 664q18 25 50 25q25 0 43 -18t18 -44q0 -20 -10 -34l-482 -722v-720zM927 1883q33 -23 33 -55q0 -26 -18.5 -44t-44.5 -18q-22 0 -40 13
l-209 139l-209 -139q-18 -13 -39 -13q-26 0 -44.5 18t-18.5 44q0 32 32 55l248 165q14 8 31 8q18 0 32 -8z" />
    <glyph glyph-name="ycircumflex" unicode="&#x177;" horiz-adv-x="1120" 
d="M490 63l-405 970q-4 13 -4 25q0 26 18.5 44t44.5 18t44 -18q9 -9 15 -25l355 -850l355 850q6 16 17 27q16 16 43 16q26 0 44 -18t19 -44q0 -10 -4 -22l-616 -1474q-5 -14 -14 -23q-19 -19 -45 -19t-44 18t-18 44q0 13 4 22zM834 1403q33 -23 33 -55q0 -26 -18.5 -44
t-44.5 -18q-22 0 -40 13l-209 139l-209 -139q-18 -13 -39 -13q-26 0 -44.5 18t-18.5 44q0 32 32 55l248 165q14 8 31 8q18 0 32 -8z" />
    <glyph glyph-name="Ydieresis" unicode="&#x178;" 
d="M710 62q0 -26 -18 -44t-44 -18t-43.5 18t-17.5 44v720l-483 722q-10 16 -10 34q0 26 18 44t44 18q30 0 49 -25l443 -664l443 664q18 25 50 25q25 0 43 -18t18 -44q0 -20 -10 -34l-482 -722v-720zM484 1870q0 -35 -24 -59t-59 -24t-59 24t-24 59q0 34 24 58.5t59 24.5
t59 -24.5t24 -58.5zM982 1870q0 -35 -24.5 -59t-58.5 -24q-35 0 -59 24t-24 59q0 34 24 58.5t59 24.5q34 0 58.5 -24.5t24.5 -58.5z" />
    <glyph glyph-name="Zacute" unicode="&#x179;" horiz-adv-x="1440" 
d="M155 1477q-26 0 -44 18t-18 43q0 26 18 44t44 18h1149q25 0 43 -18t18 -44q0 -20 -10 -34l-1074 -1381h1023q25 0 43 -18t18 -43q0 -26 -18 -44t-43 -18h-1149q-26 0 -44 18t-18 44q0 20 14 39l1070 1376h-1022zM711 1721q-17 -16 -42 -16q-26 0 -44 18.5t-18 44.5
q0 25 14 41l252 252q18 18 45 18q26 0 44 -18t18 -44q0 -12 -4 -23.5t-13 -20.5z" />
    <glyph glyph-name="zacute" unicode="&#x17a;" horiz-adv-x="1120" 
d="M973 124q26 0 44 -18t18 -44t-18 -44t-44 -18h-829q-26 0 -44.5 18t-18.5 44q0 21 12 38l746 896h-695q-26 0 -44.5 18t-18.5 44t18.5 44t44.5 18h829q26 0 44 -18t18 -44q0 -24 -14 -41l-746 -893h698zM538 1241q-17 -16 -42 -16q-26 0 -44 18.5t-18 44.5q0 25 14 41
l252 252q18 18 45 18q26 0 44 -18t18 -44q0 -12 -4 -23.5t-13 -20.5z" />
    <glyph glyph-name="Zdotaccent" unicode="&#x17b;" horiz-adv-x="1440" 
d="M155 1477q-26 0 -44 18t-18 43q0 26 18 44t44 18h1149q25 0 43 -18t18 -44q0 -20 -10 -34l-1074 -1381h1023q25 0 43 -18t18 -43q0 -26 -18 -44t-43 -18h-1149q-26 0 -44 18t-18 44q0 20 14 39l1070 1376h-1022zM828 1871q0 -44 -30 -74q-29 -30 -73 -30t-74 30t-30 74
t30 73q30 30 74 30t73 -30q30 -29 30 -73z" />
    <glyph glyph-name="zdotaccent" unicode="&#x17c;" horiz-adv-x="1120" 
d="M973 124q26 0 44 -18t18 -44t-18 -44t-44 -18h-829q-26 0 -44.5 18t-18.5 44q0 21 12 38l746 896h-695q-26 0 -44.5 18t-18.5 44t18.5 44t44.5 18h829q26 0 44 -18t18 -44q0 -24 -14 -41l-746 -893h698zM655 1391q0 -44 -30 -74q-29 -30 -73 -30t-74 30t-30 74t30 73
q30 30 74 30t73 -30q30 -29 30 -73z" />
    <glyph glyph-name="Zcaron" unicode="&#x17d;" horiz-adv-x="1440" 
d="M155 1477q-26 0 -44 18t-18 43q0 26 18 44t44 18h1149q25 0 43 -18t18 -44q0 -20 -10 -34l-1074 -1381h1023q25 0 43 -18t18 -43q0 -26 -18 -44t-43 -18h-1149q-26 0 -44 18t-18 44q0 20 14 39l1070 1376h-1022zM760 1774q-14 -8 -32 -8q-17 0 -31 8l-248 165
q-32 23 -32 55q0 26 18.5 44t44.5 18q21 0 39 -13l209 -139l209 139q18 13 40 13q26 0 44.5 -18t18.5 -44q0 -32 -33 -55z" />
    <glyph glyph-name="zcaron" unicode="&#x17e;" horiz-adv-x="1120" 
d="M973 124q26 0 44 -18t18 -44t-18 -44t-44 -18h-829q-26 0 -44.5 18t-18.5 44q0 21 12 38l746 896h-695q-26 0 -44.5 18t-18.5 44t18.5 44t44.5 18h829q26 0 44 -18t18 -44q0 -24 -14 -41l-746 -893h698zM587 1294q-14 -8 -32 -8q-17 0 -31 8l-248 165q-32 23 -32 55
q0 26 18.5 44t44.5 18q21 0 39 -13l209 -139l209 139q18 13 40 13q26 0 44.5 -18t18.5 -44q0 -32 -33 -55z" />
    <glyph glyph-name="longs" unicode="&#x17f;" horiz-adv-x="640" 
d="M562 1600q26 0 44 -18t18 -44t-18 -44.5t-44 -18.5q-353 0 -353 -352v-1061q0 -26 -18 -44t-44 -18t-44 18t-18 44v1061q0 477 477 477z" />
    <glyph glyph-name="florin" unicode="&#x192;" horiz-adv-x="960" 
d="M415 933h-104q-26 0 -44 18.5t-18 44.5t18 44t44 18h104v65q0 477 477 477q26 0 44 -18t18 -44t-18 -44.5t-44 -18.5q-353 0 -353 -352v-65h271q26 0 44 -18t18 -44t-18 -44.5t-44 -18.5h-270v-936q-2 -477 -478 -477q-26 0 -44 18t-18 44t18 44.5t44 18.5q353 0 353 352
v936z" />
    <glyph glyph-name="Aringacute" unicode="&#x1fa;" horiz-adv-x="1440" 
d="M978 697l-261 672l-260 -672h521zM793 1647q32 32 32 77t-32 77t-77 32t-77 -32t-32 -77t32 -77t77 -32t77 32zM673 2063q18 17 44 17t44 -17.5t18 -43.5t-17 -43l-69 -69q90 8 154 -51q55 -53 55 -131q0 -77 -55 -132q-22 -24 -67 -44l567 -1460q6 -14 6 -27
q0 -26 -18 -44t-43 -18q-24 0 -38 12q-12 10 -20 26l-208 536h-617l-209 -536q-4 -10 -13 -20q-18 -18 -44 -18t-44 18t-18 44q0 13 6 27l568 1458q-50 23 -71 46q-54 54 -54 132q0 40 23 85q21 41 56 70q-10 4 -19 13q-18 19 -18 44q0 22 16 41z" />
    <glyph glyph-name="aringacute" unicode="&#x1fb;" 
d="M652 996q-180 0 -308 -128t-128 -308t128 -308t308 -128t308 128q127 127 127 308t-127 308q-128 128 -308 128zM1087 203q-202 -203 -435 -203q-232 0 -396 164t-164 396t164 396t396 164t396 -164t164 -396v-498q0 -26 -18 -44t-44 -18t-44.5 18t-18.5 44v141z
M834 1412q0 -77 -55 -134q-55 -55 -133 -55q-77 0 -134 55q-55 57 -55 134q0 78 55 133q57 55 134 55q78 0 133 -55t55 -133zM723 1335q32 32 32 77t-32 77t-77 32t-77 -32t-32 -77t32 -77t77 -32t77 32zM603 1660q-17 -16 -42 -16q-26 0 -44 18.5t-18 44.5q0 25 14 41
l252 252q18 18 45 18q26 0 44 -18t18 -44q0 -12 -4 -23.5t-13 -20.5z" />
    <glyph glyph-name="AEacute" unicode="&#x1fc;" horiz-adv-x="1760" 
d="M900 1300l-289 -521h289v521zM1618 1600q26 0 43.5 -18t17.5 -44q0 -25 -17.5 -43t-43.5 -18h-595v-698h431q25 0 43 -17.5t18 -43.5t-18 -44t-43 -18h-431v-533h595q26 0 43.5 -18t17.5 -43q0 -26 -17.5 -44t-43.5 -18h-657q-26 0 -43.5 18t-17.5 44v594h-358l-349 -627
q-19 -29 -52 -29q-26 0 -44 18t-18 44q0 17 7 28l823 1482q17 28 52 28h657zM991 1721q-17 -16 -42 -16q-26 0 -44 18.5t-18 44.5q0 25 14 41l252 252q18 18 45 18q26 0 44 -18t18 -44q0 -12 -4 -23.5t-13 -20.5z" />
    <glyph glyph-name="aeacute" unicode="&#x1fd;" horiz-adv-x="2240" 
d="M631 996q-180 0 -308 -128t-128 -308t128 -308t308 -128t308 128t128 308t-128 308t-308 128zM2060 622q-30 151 -125 246q-130 128 -308 128q-180 0 -308 -128q-50 -49 -80.5 -110t-45.5 -136h867zM1191 62q0 -26 -18 -44t-44 -18t-44 18t-18 44v141
q-203 -203 -436 -203q-232 0 -396 164t-164 396t164 396t396 164t396 -164q47 -47 102 -134q26 42 51 75.5t50 58.5q164 164 397 164q232 0 396 -164t164 -396q0 -26 -18.5 -44t-44.5 -18h-931q30 -152 126 -246q128 -128 308 -128q81 0 151.5 26.5t128.5 76.5q17 14 39 14
q26 0 44 -18.5t18 -44.5q0 -28 -16 -43q-156 -135 -365 -135q-233 0 -436 203v-141zM1098 1241q-17 -16 -42 -16q-26 0 -44 18.5t-18 44.5q0 25 14 41l252 252q18 18 45 18q26 0 44 -18t18 -44q0 -12 -4 -23.5t-13 -20.5z" />
    <glyph glyph-name="Oslashacute" unicode="&#x1fe;" horiz-adv-x="1760" 
d="M1487 1320q192 -228 192 -520q0 -331 -235 -566q-233 -234 -565 -234q-291 0 -520 192l-174 -175q-18 -17 -44 -17t-44 18t-18 44q0 25 16 42l176 176q-192 229 -192 520q0 331 234 565q235 235 566 235q290 0 520 -192l175 175q18 17 44 17t43.5 -18t17.5 -44
q0 -24 -14 -40zM1312 1321q-195 156 -433 156q-278 0 -479 -199q-198 -198 -198 -478q0 -236 156 -433zM446 279q196 -156 433 -156q280 0 478 198q199 198 199 479q0 237 -156 434zM831 1721q-17 -16 -42 -16q-26 0 -44 18.5t-18 44.5q0 25 14 41l252 252q18 18 45 18
q26 0 44 -18t18 -44q0 -12 -4 -23.5t-13 -20.5z" />
    <glyph glyph-name="oslashacute" unicode="&#x1ff;" 
d="M901 909q-128 87 -261 87q-180 0 -308 -128t-128 -308q0 -132 85 -261zM379 209q129 -85 261 -85q180 0 308 128q127 127 127 308q0 132 -85 261zM1091 1099q19 21 47 21q26 0 44 -18t18 -44t-17 -44l-104 -105q121 -157 121 -349q0 -232 -164 -396t-396 -164
q-193 0 -350 121l-103 -103q-19 -18 -45 -18t-44 18t-18 44t16 44l105 105q-121 155 -121 349q0 232 164 396t396 164q193 0 350 -121zM591 1241q-17 -16 -42 -16q-26 0 -44 18.5t-18 44.5q0 25 14 41l252 252q18 18 45 18q26 0 44 -18t18 -44q0 -12 -4 -23.5t-13 -20.5z
" />
    <glyph glyph-name="uni0259" unicode="&#x259;" 
d="M207.131 498.076q27.9971 -148.982 124.984 -245.971q127.984 -127.984 307.963 -127.984t307.963 127.984q95.9883 95.9883 125.984 245.971h-866.895zM321.117 879.029q-25.9971 0 -43.9951 18.498q-17.9971 18.498 -17.9971 44.4941q0 25.9971 15.998 42.9951
q155.98 134.983 364.955 134.983q231.972 0 395.951 -163.98q163.98 -163.979 163.98 -395.951t-163.98 -395.951q-163.979 -163.98 -395.951 -163.98t-395.951 163.98q-163.98 163.979 -163.98 395.951q0 25.9971 17.998 43.9941q17.998 17.998 43.9941 17.998h931.887
q-29.9961 149.982 -125.984 245.971q-127.984 127.984 -307.963 127.984q-81.9902 0 -151.981 -26.4971t-127.984 -76.4912q-16.998 -13.998 -38.9951 -13.998z" />
    <glyph glyph-name="circumflex" unicode="&#x2c6;" horiz-adv-x="800" 
d="M674 1403q33 -23 33 -55q0 -26 -18.5 -44t-44.5 -18q-22 0 -40 13l-209 139l-209 -139q-18 -13 -39 -13q-26 0 -44.5 18t-18.5 44q0 32 32 55l248 165q14 8 31 8q18 0 32 -8z" />
    <glyph glyph-name="caron" unicode="&#x2c7;" horiz-adv-x="800" 
d="M427 1294q-14 -8 -32 -8q-17 0 -31 8l-248 165q-32 23 -32 55q0 26 18.5 44t44.5 18q21 0 39 -13l209 -139l209 139q18 13 40 13q26 0 44.5 -18t18.5 -44q0 -32 -33 -55z" />
    <glyph glyph-name="uni02C9" unicode="&#x2c9;" horiz-adv-x="800" 
d="M147 1281q-26 0 -44.5 18.5t-18.5 44.5t18.5 44t44.5 18h497q26 0 44.5 -18t18.5 -44t-18.5 -44.5t-44.5 -18.5h-497z" />
    <glyph glyph-name="breve" unicode="&#x2d8;" horiz-adv-x="800" 
d="M84 1514q0 26 18.5 44t44.5 18t44 -18t18 -44q0 -47 60 -78q56 -26 126 -26t127 26q61 30 61 78q0 26 18 44t44 18t44 -18t19 -43q-6 -99 -90 -160q-47 -34 -102 -51.5t-121 -17.5q-64 0 -120.5 18t-102.5 50q-88 68 -88 160z" />
    <glyph glyph-name="dotaccent" unicode="&#x2d9;" horiz-adv-x="400" 
d="M295 1391q0 -44 -30 -74q-29 -30 -73 -30t-74 30t-30 74t30 73q30 30 74 30t73 -30q30 -29 30 -73z" />
    <glyph glyph-name="ring" unicode="&#x2da;" horiz-adv-x="560" 
d="M463 1412q0 -77 -55 -134q-55 -55 -133 -55q-77 0 -134 55q-55 57 -55 134q0 78 55 133q57 55 134 55q78 0 133 -55t55 -133zM352 1335q32 32 32 77t-32 77t-77 32t-77 -32t-32 -77t32 -77t77 -32t77 32z" />
    <glyph glyph-name="ogonek" unicode="&#x2db;" horiz-adv-x="640" 
d="M260 33q15 29 54 31q28 0 45 -17q16 -17 17 -42q0 -11 -2 -20q-14 -69 -120 -145q-44 -35 -44 -84q0 -21 8 -40t22.5 -33t33.5 -22t40 -8q30 0 56 17l73 53q16 13 37 13q26 0 44 -18.5t18 -44.5q0 -32 -20 -47l-83 -58q-59 -40 -125 -40q-94 0 -162 68q-66 66 -66 160
q0 111 97 187q60 48 77 90z" />
    <glyph glyph-name="tilde" unicode="&#x2dc;" horiz-adv-x="960" 
d="M517 1358q-87 -78 -206 -78q-129 0 -221 92q-8 9 -12 20.5t-4 22.5q0 26 18 44.5t44 18.5q25 0 43 -17q56 -56 132 -56q67 0 116 40q88 79 208 79q129 0 220 -91q17 -18 17 -44t-18 -44t-44 -18t-44 17q-54 56 -131 56q-65 0 -118 -42z" />
    <glyph glyph-name="hungarumlaut" unicode="&#x2dd;" horiz-adv-x="720" 
d="M166 1234q-12 -25 -41 -27q-24 0 -36 22q-4 9 -4 19t3 18l95 295q9 24 32 34q13 5 25 5q13 0 24 -4q18 -8 28.5 -24t10.5 -34q0 -12 -5 -23zM488 1234q-12 -25 -41 -27q-24 0 -36 22q-4 9 -4 19t3 18l95 295q9 24 32 34q13 5 25 5q13 0 24 -4q18 -8 28.5 -24t10.5 -34
q0 -12 -5 -23z" />
    <glyph glyph-name="tonos" unicode="&#x384;" horiz-adv-x="560" 
d="M191 1241q-17 -16 -42 -16q-26 0 -44 18.5t-18 44.5q0 25 14 41l252 252q18 18 45 18q26 0 44 -18t18 -44q0 -12 -4 -23.5t-13 -20.5z" />
    <glyph glyph-name="dieresistonos" unicode="&#x385;" horiz-adv-x="960" 
d="M417 1243q-19 -16 -43 -16q-26 0 -44 18.5t-18 44.5t15 41l252 252q18 18 44 18t44 -18t18 -44q0 -27 -16 -44zM228 1373q0 -35 -24 -59t-59 -24t-59 24t-24 59q0 34 24 58.5t59 24.5t59 -24.5t24 -58.5zM892 1373q0 -35 -24.5 -59t-58.5 -24q-35 0 -59 24t-24 59
q0 34 24 58.5t59 24.5q34 0 58.5 -24.5t24.5 -58.5z" />
    <glyph glyph-name="Alphatonos" unicode="&#x386;" horiz-adv-x="1440" 
d="M263 1241q-17 -16 -42 -16q-26 0 -44 18.5t-18 44.5q0 25 14 41l252 252q18 18 45 18q26 0 44 -18t18 -44q0 -12 -4 -23.5t-13 -20.5zM408 574l-209 -536q-6 -14 -14 -22q-17 -16 -43 -16t-44 18t-18 44q0 13 6 27l571 1467q6 16 16 27q17 17 43 17t44 -18q10 -10 16 -26
l570 -1467q6 -14 6 -27q0 -26 -18 -44t-43 -18q-26 0 -43 15q-9 9 -15 23l-208 536h-617zM977 697l-261 672l-260 -672h521z" />
    <glyph glyph-name="anoteleia" unicode="&#x387;" horiz-adv-x="400" 
d="M295 1007q0 -45 -30 -73q-29 -30 -73 -30t-74 30q-30 28 -30 73q0 44 30 74t74 30t73 -30q30 -30 30 -74z" />
    <glyph glyph-name="Epsilontonos" unicode="&#x388;" horiz-adv-x="1640" 
d="M63 1241q-17 -16 -42 -16q-26 0 -44 18.5t-18 44.5q0 25 14 41l252 252q18 18 45 18q26 0 44 -18t18 -44q0 -12 -4 -23.5t-13 -20.5zM1497 1600q25 0 43 -18t18 -44q0 -25 -18 -43t-43 -18h-924v-615h677q26 0 44 -18t18 -44t-18 -44t-44 -18h-677v-615h924q25 0 43 -18
t18 -43q0 -26 -18 -44t-43 -18h-985q-26 0 -44 18t-18 44v1476q0 26 18 44t44 18h985z" />
    <glyph glyph-name="Etatonos" unicode="&#x389;" horiz-adv-x="1640" 
d="M63 1241q-17 -16 -42 -16q-26 0 -44 18.5t-18 44.5q0 25 14 41l252 252q18 18 45 18q26 0 44 -18t18 -44q0 -12 -4 -23.5t-13 -20.5zM450 1538q0 26 18 44t44 18t43.5 -18t17.5 -44v-676h862v676q0 26 18 44t44 18q25 0 43 -18t18 -44v-1476q0 -26 -18 -44t-43 -18
q-26 0 -44 18t-18 44v676h-862v-676q0 -26 -17.5 -44t-43.5 -18t-44 18t-18 44v1476z" />
    <glyph glyph-name="Iotatonos" unicode="&#x38a;" horiz-adv-x="760" 
d="M63 1241q-17 -16 -42 -16q-26 0 -44 18.5t-18 44.5q0 25 14 41l252 252q18 18 45 18q26 0 44 -18t18 -44q0 -12 -4 -23.5t-13 -20.5zM470 1538q0 26 17.5 44t43.5 18t44 -18t18 -44v-1476q0 -26 -18 -44t-44 -18t-43.5 18t-17.5 44v1476z" />
    <glyph glyph-name="Omicrontonos" unicode="&#x38c;" horiz-adv-x="1800" 
d="M64 1241q-17 -16 -42 -16q-26 0 -44 18.5t-18 44.5q0 25 14 41l252 252q18 18 45 18q26 0 44 -18t18 -44q0 -12 -4 -23.5t-13 -20.5zM917 1477q-278 0 -479 -199q-198 -198 -198 -478q0 -281 198 -479q199 -198 479 -198t478 198q199 198 199 479q0 280 -199 478
q-199 199 -478 199zM1717 800q0 -331 -235 -566q-233 -234 -565 -234q-163 0 -306 61t-260 173q-112 117 -173 260t-61 306q0 331 234 565q235 235 566 235q333 0 565 -235q235 -234 235 -565z" />
    <glyph glyph-name="Upsilontonos" unicode="&#x38e;" horiz-adv-x="1640" 
d="M64 1241q-17 -16 -42 -16q-26 0 -44 18.5t-18 44.5q0 25 14 41l252 252q18 18 45 18q26 0 44 -18t18 -44q0 -12 -4 -23.5t-13 -20.5zM1066 62q0 -26 -18 -44t-44 -18t-43.5 18t-17.5 44v720l-483 722q-10 16 -10 34q0 26 18 44t44 18q30 0 49 -25l443 -664l443 664
q18 25 50 25q25 0 43 -18t18 -44q0 -20 -10 -34l-482 -722v-720z" />
    <glyph glyph-name="Omegatonos" unicode="&#x38f;" horiz-adv-x="1800" 
d="M66 1241q-17 -16 -42 -16q-26 0 -44 18.5t-18 44.5q0 25 14 41l252 252q18 18 45 18q26 0 44 -18t18 -44q0 -12 -4 -23.5t-13 -20.5zM674 123q26 0 44 -18t18 -43q0 -26 -18 -44t-44 -18h-492q-26 0 -44 18t-18 44q0 25 18 43t44 18h192q-29 33 -52 61.5t-38 48.5v-1
q-81 118 -122.5 258.5t-41.5 309.5q0 331 234 565q235 235 566 235q333 0 565 -235q235 -234 235 -565q0 -169 -41 -309.5t-123 -258.5v1q-14 -20 -37 -48.5t-52 -61.5h192q26 0 43.5 -18t17.5 -43q0 -26 -17.5 -44t-43.5 -18h-493q-25 0 -43 18t-18 44q0 25 18 43t43 18
q183 0 308 201q123 196 123 476t-199 478q-199 199 -478 199q-278 0 -479 -199q-198 -198 -198 -478t123 -476q126 -201 308 -201z" />
    <glyph glyph-name="iotadieresistonos" unicode="&#x390;" horiz-adv-x="760" 
d="M321 1058q0 26 18 44t44 18t44.5 -18t18.5 -44v-996q0 -26 -18.5 -44t-44.5 -18t-44 18t-18 44v996zM327 1243q-19 -16 -43 -16q-26 0 -44 18.5t-18 44.5t15 41l252 252q18 18 44 18t44 -18t18 -44q0 -27 -16 -44zM138 1373q0 -35 -24 -59t-59 -24t-59 24t-24 59
q0 34 24 58.5t59 24.5t59 -24.5t24 -58.5zM802 1373q0 -35 -24.5 -59t-58.5 -24q-35 0 -59 24t-24 59q0 34 24 58.5t59 24.5q34 0 58.5 -24.5t24.5 -58.5z" />
    <glyph glyph-name="Alpha" unicode="&#x391;" horiz-adv-x="1440" 
d="M421 574l-209 -536q-6 -14 -14 -22q-17 -16 -43 -16t-44 18t-18 44q0 13 6 27l571 1467q6 16 16 27q17 17 43 17t44 -18q10 -10 16 -26l570 -1467q6 -14 6 -27q0 -26 -18 -44t-43 -18q-26 0 -43 15q-9 9 -15 23l-208 536h-617zM990 697l-261 672l-260 -672h521z" />
    <glyph glyph-name="Beta" unicode="&#x392;" horiz-adv-x="1120" 
d="M218 1477v-533h267q111 0 188 78q79 79 79 188t-79 188t-188 79h-267zM218 821v-698h349q145 0 246 102q103 102 103 247q0 144 -103 246q-100 103 -246 103h-349zM485 1600q162 0 276 -114t114 -276t-134 -296q100 -48 161 -108q137 -139 137 -334q0 -196 -138 -335
q-139 -137 -334 -137h-410q-26 0 -44 18t-18 44v1476q0 26 18 44t44 18h328z" />
    <glyph glyph-name="Gamma" unicode="&#x393;" 
d="M82 1538q1 26 19 44t44 18h985q25 0 43 -18t18 -44q0 -25 -18 -43t-43 -18h-925v-1415q0 -26 -17.5 -44t-43.5 -18t-44 18t-18 44v1476z" />
    <glyph glyph-name="uni0394" unicode="&#x394;" horiz-adv-x="1440" 
d="M141 0q-26 0 -44.5 18t-18.5 44q0 19 9 39l578 1478q5 13 11 20q18 19 45 19q26 0 45 -19q7 -8 12 -21l577 -1477q9 -23 9 -39q0 -26 -18 -44t-44 -18h-1161zM1211 124l-490 1260l-489 -1260h979z" />
    <glyph glyph-name="Epsilon" unicode="&#x395;" 
d="M1141 1600q25 0 43 -18t18 -44q0 -25 -18 -43t-43 -18h-924v-615h677q26 0 44 -18t18 -44t-18 -44t-44 -18h-677v-615h924q25 0 43 -18t18 -43q0 -26 -18 -44t-43 -18h-985q-26 0 -44 18t-18 44v1476q0 26 18 44t44 18h985z" />
    <glyph glyph-name="Zeta" unicode="&#x396;" horiz-adv-x="1440" 
d="M155 1477q-26 0 -44 18t-18 43q0 26 18 44t44 18h1149q25 0 43 -18t18 -44q0 -20 -10 -34l-1074 -1381h1023q25 0 43 -18t18 -43q0 -26 -18 -44t-43 -18h-1149q-26 0 -44 18t-18 44q0 20 14 39l1070 1376h-1022z" />
    <glyph glyph-name="Eta" unicode="&#x397;" 
d="M94 1538q0 26 18 44t44 18t43.5 -18t17.5 -44v-676h862v676q0 26 18 44t44 18q25 0 43 -18t18 -44v-1476q0 -26 -18 -44t-43 -18q-26 0 -44 18t-18 44v676h-862v-676q0 -26 -17.5 -44t-43.5 -18t-44 18t-18 44v1476z" />
    <glyph glyph-name="Theta" unicode="&#x398;" horiz-adv-x="1760" 
d="M891 1477q-278 0 -479 -199q-198 -198 -198 -478q0 -281 198 -479q199 -198 479 -198t478 198q199 198 199 479q0 280 -199 478q-199 199 -478 199zM1691 800q0 -331 -235 -566q-233 -234 -565 -234q-163 0 -306 61t-260 173q-112 117 -173 260t-61 306q0 331 234 565
q235 235 566 235q333 0 565 -235q235 -234 235 -565zM469 756q-26 0 -44.5 18t-18.5 44t18.5 44.5t44.5 18.5h829q26 0 44 -18.5t18 -44.5t-18 -44t-44 -18h-829z" />
    <glyph glyph-name="Iota" unicode="&#x399;" horiz-adv-x="480" 
d="M182 1538q0 26 17.5 44t43.5 18t44 -18t18 -44v-1476q0 -26 -18 -44t-44 -18t-43.5 18t-17.5 44v1476z" />
    <glyph glyph-name="Kappa" unicode="&#x39a;" horiz-adv-x="1200" 
d="M95 1538q0 26 18 44t43 18q26 0 44 -18t18 -44v-752l795 795q19 19 46 19q26 0 44 -18t18 -44q0 -23 -18 -44l-589 -588l595 -808q11 -16 12 -33q0 -33 -25 -53q-17 -12 -35 -12q-34 0 -53 26l-583 790l-207 -207v-547q0 -26 -18 -44t-44 -18q-25 0 -43 18t-18 44v1476z
" />
    <glyph glyph-name="Lambda" unicode="&#x39b;" horiz-adv-x="1440" 
d="M200 38q-4 -10 -13 -20q-18 -18 -44 -18t-44 18t-18 44q0 13 6 27l571 1467q6 16 16 27q17 17 43 17t44 -18q10 -11 16 -26l570 -1467q6 -14 6 -27q0 -26 -18 -44t-43 -18q-23 0 -38 12q-11 10 -19 25l-518 1332z" />
    <glyph glyph-name="Mu" unicode="&#x39c;" horiz-adv-x="1760" 
d="M214 1278v-1216q0 -26 -17.5 -44t-43.5 -18t-44 18t-18 44v1476q0 26 18 44t44 18q37 0 54 -32l684 -1369l684 1369q18 32 55 32q26 0 43.5 -18t17.5 -44v-1476q0 -26 -17.5 -44t-43.5 -18t-44 18t-18 44v1216l-624 -1249q-18 -29 -53 -29q-40 0 -57 39z" />
    <glyph glyph-name="Nu" unicode="&#x39d;" horiz-adv-x="1440" 
d="M216 62q0 -26 -17.5 -44t-43.5 -18t-44 18t-18 44v1476q0 26 18 44t44 18q29 0 47 -22l1040 -1337v1297q0 26 18 44t44 18q25 0 43 -18t18 -44v-1476q0 -26 -18 -44t-43 -18q-30 0 -46 18l-1042 1340v-1296z" />
    <glyph glyph-name="Xi" unicode="&#x39e;" 
d="M1129 1600q25 0 43 -18t18 -44q0 -25 -18 -43t-43 -18h-985q-26 0 -44 18t-18 43q0 26 18 44t44 18h985zM1129 123q25 0 43 -18t18 -43q0 -26 -18 -44t-43 -18h-985q-26 0 -44 18t-18 44q0 25 18 43t44 18h985zM227 862h819q26 0 44 -18t18 -44t-18 -44t-44 -18h-820
q-23 1 -41.5 18.5t-18.5 43.5q0 25 17.5 42.5t43.5 19.5z" />
    <glyph glyph-name="Omicron" unicode="&#x39f;" horiz-adv-x="1760" 
d="M891 1477q-278 0 -479 -199q-198 -198 -198 -478q0 -281 198 -479q199 -198 479 -198t478 198q199 198 199 479q0 280 -199 478q-199 199 -478 199zM1691 800q0 -331 -235 -566q-233 -234 -565 -234q-163 0 -306 61t-260 173q-112 117 -173 260t-61 306q0 331 234 565
q235 235 566 235q333 0 565 -235q235 -234 235 -565z" />
    <glyph glyph-name="Pi" unicode="&#x3a0;" horiz-adv-x="1360" 
d="M1210 1600q26 0 44 -18t18 -44v-1476q0 -26 -18 -44t-44 -18t-43.5 18t-17.5 44v1415h-944v-1415q0 -26 -18 -44t-44 -18q-25 0 -43 18t-18 44v1476q0 26 18 44t43 18h1067z" />
    <glyph glyph-name="Rho" unicode="&#x3a1;" horiz-adv-x="1080" 
d="M219 1477v-780h266q161 0 275 114q115 115 115 276t-115 275q-114 115 -275 115h-266zM485 1600q214 0 362 -151q151 -148 151 -362q0 -212 -151 -363q-150 -150 -362 -150h-266v-512q0 -26 -18 -44t-44 -18t-43.5 18t-17.5 44v1476q0 26 17.5 44t43.5 18h328z" />
    <glyph glyph-name="Sigma" unicode="&#x3a3;" 
d="M1129 1600q25 0 43 -18t18 -44q0 -25 -18 -43t-43 -18h-859l499 -641q11 -14 11 -36q0 -21 -11 -36l-499 -641h859q25 0 43 -18t18 -43q0 -26 -18 -44t-43 -18h-985q-26 0 -44 18t-18 44q0 18 10 32l547 706l-547 706q-10 14 -10 32q0 26 18 44t44 18h985z" />
    <glyph glyph-name="Tau" unicode="&#x3a4;" horiz-adv-x="1360" 
d="M155 1477q-25 0 -43 18t-18 43q0 26 18 44t43 18h1067q26 0 44 -18t18 -44q0 -25 -18 -43t-44 -18h-472v-1415q0 -26 -17.5 -44t-43.5 -18t-44 18t-18 44v1415h-472z" />
    <glyph glyph-name="Upsilon" unicode="&#x3a5;" 
d="M710 62q0 -26 -18 -44t-44 -18t-43.5 18t-17.5 44v720l-483 722q-10 16 -10 34q0 26 18 44t44 18q30 0 49 -25l443 -664l443 664q18 25 50 25q25 0 43 -18t18 -44q0 -20 -10 -34l-482 -722v-720z" />
    <glyph glyph-name="Phi" unicode="&#x3a6;" horiz-adv-x="1760" 
d="M818 1312q-121 -12 -226.5 -49.5t-188.5 -97.5q-98 -75 -149.5 -166.5t-51.5 -198.5t51.5 -198.5t149.5 -165.5q82 -60 188 -98.5t227 -49.5v1024zM941 288q123 12 227 49.5t188 98.5q98 74 149 165.5t51 198.5q0 216 -200 365q-166 123 -415 147v-1024zM818 1538
q0 26 17.5 44t43.5 18t44 -18t18 -44v-104q152 -10 277.5 -57t228.5 -129h-1q233 -186 233 -448q0 -261 -233 -447q-205 -168 -505 -187v-104q0 -26 -18 -44t-44 -18t-43.5 18t-17.5 44v104q-299 19 -506 187q-233 185 -233 447q0 128 60.5 242t172.5 206q101 78 230 126.5
t276 59.5v104z" />
    <glyph glyph-name="Chi" unicode="&#x3a7;" horiz-adv-x="1440" 
d="M729 901l523 672q23 27 52 27q25 0 43 -18t18 -44q0 -20 -10 -35l-547 -703l544 -699q13 -16 13 -39q0 -26 -18 -44t-43 -18q-29 0 -47 21l-528 677l-528 -677q-17 -21 -46 -21q-26 0 -44 18t-18 44q0 22 14 39l543 699l-546 704q-11 13 -11 34q0 26 18 44t44 18
q30 0 51 -27z" />
    <glyph glyph-name="Psi" unicode="&#x3a8;" horiz-adv-x="1440" 
d="M81 1538q0 26 18 44t44 18t43.5 -18t17.5 -44v-410q0 -211 151 -362q118 -119 301 -148v920q0 26 17.5 44t43.5 18t44 -18t18 -44v-920q181 28 301 148q150 150 150 362v410q0 26 18 44t44 18q25 0 43 -18t18 -44v-410q0 -264 -186 -449q-79 -80 -175.5 -125.5
t-212.5 -59.5v-432q0 -26 -18 -44t-44 -18t-43.5 18t-17.5 44v432q-232 29 -388 185q-187 187 -187 449v410z" />
    <glyph glyph-name="uni03A9" unicode="&#x3a9;" horiz-adv-x="1760" 
d="M633 123q26 0 44 -18t18 -43q0 -26 -18 -44t-44 -18h-492q-26 0 -44 18t-18 44q0 25 18 43t44 18h192q-29 33 -52 61.5t-38 48.5v-1q-81 118 -122.5 258.5t-41.5 309.5q0 331 234 565q235 235 566 235q333 0 565 -235q235 -234 235 -565q0 -169 -41 -309.5t-123 -258.5v1
q-14 -20 -37 -48.5t-52 -61.5h192q26 0 43.5 -18t17.5 -43q0 -26 -17.5 -44t-43.5 -18h-493q-25 0 -43 18t-18 44q0 25 18 43t43 18q183 0 308 201q123 196 123 476t-199 478q-199 199 -478 199q-278 0 -479 -199q-198 -198 -198 -478t123 -476q126 -201 308 -201z" />
    <glyph glyph-name="Iotadieresis" unicode="&#x3aa;" horiz-adv-x="480" 
d="M183 1538q0 26 17.5 44t43.5 18t44 -18t18 -44v-1476q0 -26 -18 -44t-44 -18t-43.5 18t-17.5 44v1476zM78 1870q0 -35 -24 -59t-59 -24t-59 24t-24 59q0 34 24 58.5t59 24.5t59 -24.5t24 -58.5zM576 1870q0 -35 -24.5 -59t-58.5 -24q-35 0 -59 24t-24 59q0 34 24 58.5
t59 24.5q34 0 58.5 -24.5t24.5 -58.5z" />
    <glyph glyph-name="Upsilondieresis" unicode="&#x3ab;" 
d="M710 62q0 -26 -18 -44t-44 -18t-43.5 18t-17.5 44v720l-483 722q-10 16 -10 34q0 26 18 44t44 18q30 0 49 -25l443 -664l443 664q18 25 50 25q25 0 43 -18t18 -44q0 -20 -10 -34l-482 -722v-720zM482 1870q0 -35 -24 -59t-59 -24t-59 24t-24 59q0 34 24 58.5t59 24.5
t59 -24.5t24 -58.5zM980 1870q0 -35 -24.5 -59t-58.5 -24q-35 0 -59 24t-24 59q0 34 24 58.5t59 24.5q34 0 58.5 -24.5t24.5 -58.5z" />
    <glyph glyph-name="alphatonos" unicode="&#x3ac;" horiz-adv-x="1440" 
d="M1094 560l-34 112q-16 56 -46 107t-68 89q-63 61 -141 94.5t-167 33.5q-180 0 -308 -128q-127 -127 -127 -308t127 -308q128 -128 308 -128t308 128q39 38 68 88.5t46 107.5zM1158 340q-32 -58 -63 -102.5t-60 -73.5q-164 -164 -397 -164q-232 0 -396 164t-164 396
t164 396t396 164q233 0 397 -164q29 -29 59 -71.5t62 -102.5l87 297q5 13 15 24q17 17 44 17q26 0 44 -18t18 -44q0 -9 -2 -17l-140 -479l140 -483q2 -8 2 -17q0 -26 -18 -44t-44 -18q-27 0 -44 17q-10 11 -15 26zM582 1241q-17 -16 -42 -16q-26 0 -44 18.5t-18 44.5
q0 25 14 41l252 252q18 18 45 18q26 0 44 -18t18 -44q0 -12 -4 -23.5t-13 -20.5z" />
    <glyph glyph-name="epsilontonos" unicode="&#x3ad;" horiz-adv-x="880" 
d="M394 1120q233 0 397 -164q19 -19 19 -47q0 -26 -18 -44t-44 -18t-52 27q-127 122 -302 122q-76 0 -131 -55t-55 -132q0 -78 55 -132q55 -55 131 -55h83q26 0 44.5 -18t18.5 -44t-18.5 -44t-44.5 -18h-83q-76 0 -131 -55q-55 -54 -55 -132q0 -77 55 -132t131 -55
q175 0 302 122q26 27 52 27t44 -18t18 -44q0 -28 -19 -47q-164 -164 -397 -164q-129 0 -220 90q-91 91 -91 221q0 138 123 249q-123 111 -123 249q0 130 91 220q91 91 220 91zM426 1241q-17 -16 -42 -16q-26 0 -44 18.5t-18 44.5q0 25 14 41l252 252q18 18 45 18
q26 0 44 -18t18 -44q0 -12 -4 -23.5t-13 -20.5z" />
    <glyph glyph-name="etatonos" unicode="&#x3ae;" horiz-adv-x="1200" 
d="M993 601q0 165 -116 278q-116 117 -278 117t-279 -117q-115 -114 -115 -278v-539q0 -26 -18 -44t-44 -18t-44 18t-18 44v996q0 26 18 44t44 18t44 -18t18 -44v-116q184 178 394 178q216 0 366 -152q153 -152 153 -367v-1021q0 -26 -18.5 -44t-44.5 -18t-44 18t-18 44
v1021zM579 1241q-17 -16 -42 -16q-26 0 -44 18.5t-18 44.5q0 25 14 41l252 252q18 18 45 18q26 0 44 -18t18 -44q0 -12 -4 -23.5t-13 -20.5z" />
    <glyph glyph-name="iotatonos" unicode="&#x3af;" horiz-adv-x="480" 
d="M170 1058q0 26 18 44t44 18t44.5 -18t18.5 -44v-996q0 -26 -18.5 -44t-44.5 -18t-44 18t-18 44v996zM212 1241q-17 -16 -42 -16q-26 0 -44 18.5t-18 44.5q0 25 14 41l252 252q18 18 45 18q26 0 44 -18t18 -44q0 -12 -4 -23.5t-13 -20.5z" />
    <glyph glyph-name="upsilondieresistonos" unicode="&#x3b0;" horiz-adv-x="1200" 
d="M599 0q-213 0 -367 151q-151 152 -151 368v539q0 26 18 44t44 18t44 -18t18 -44v-539q0 -164 115 -279q119 -116 279 -116q162 0 278 116q116 115 116 279v539q0 26 18 44t44 18t44.5 -18t18.5 -44v-539q0 -215 -153 -368q-151 -151 -366 -151zM537 1243q-19 -16 -43 -16
q-26 0 -44 18.5t-18 44.5t15 41l252 252q18 18 44 18t44 -18t18 -44q0 -27 -16 -44zM348 1373q0 -35 -24 -59t-59 -24t-59 24t-24 59q0 34 24 58.5t59 24.5t59 -24.5t24 -58.5zM1012 1373q0 -35 -24.5 -59t-58.5 -24q-35 0 -59 24t-24 59q0 34 24 58.5t59 24.5
q34 0 58.5 -24.5t24.5 -58.5z" />
    <glyph glyph-name="alpha" unicode="&#x3b1;" horiz-adv-x="1440" 
d="M1094 560l-34 112q-16 56 -46 107t-68 89q-63 61 -141 94.5t-167 33.5q-180 0 -308 -128q-127 -127 -127 -308t127 -308q128 -128 308 -128t308 128q39 38 68 88.5t46 107.5zM1158 340q-32 -58 -63 -102.5t-60 -73.5q-164 -164 -397 -164q-232 0 -396 164t-164 396
t164 396t396 164q233 0 397 -164q29 -29 59 -71.5t62 -102.5l87 297q5 13 15 24q17 17 44 17q26 0 44 -18t18 -44q0 -9 -2 -17l-140 -479l140 -483q2 -8 2 -17q0 -26 -18 -44t-44 -18q-27 0 -44 17q-10 11 -15 26z" />
    <glyph glyph-name="beta" unicode="&#x3b2;" horiz-adv-x="1120" 
d="M206 475q2 -146 103 -247q104 -104 249 -104q146 0 249 103q104 104 104 250t-104 249q-102 104 -249 104h-83q-26 0 -44 18t-18 44t18 44t44 18q111 0 190 79q80 80 80 191t-80 189q-80 80 -190 80q-112 0 -190 -80q-79 -78 -79 -189v-749zM896 815q139 -139 139 -338
t-140 -338q-139 -139 -337 -139q-182 0 -352 152v-571q0 -26 -18 -44t-44 -18t-44.5 18t-18.5 44v1643q0 83 29 152t86 127q58 57 127 86t152 29q164 0 279 -115t115 -279q0 -165 -135 -300q101 -48 162 -109z" />
    <glyph glyph-name="gamma" unicode="&#x3b3;" horiz-adv-x="1200" 
d="M537 50l-452 984q-4 11 -4 24q0 26 18 44t44 18t45 -18q6 -6 11 -15l400 -875l400 875q4 9 10 15q20 18 46 18t44.5 -18t18.5 -44q0 -14 -5 -24l-452 -984v-469q0 -26 -18 -44t-44 -18t-44 18t-18 44v469z" />
    <glyph glyph-name="delta" unicode="&#x3b4;" 
d="M640 996q-180 0 -308 -128t-128 -308t128 -308t308 -128t308 128q127 127 127 308t-127 308q-128 128 -308 128zM1055 1618q26 0 44 -18t18 -44t-18 -44.5t-44 -18.5h-659l601 -501q99 -90 151 -198.5t52 -233.5q0 -232 -164 -396t-396 -164t-396 164t-164 396t164 396
q147 149 403 165l-467 391q-17 17 -17 44q0 26 18 44t44 18h830z" />
    <glyph glyph-name="epsilon" unicode="&#x3b5;" horiz-adv-x="880" 
d="M394 1120q233 0 397 -164q19 -19 19 -47q0 -26 -18 -44t-44 -18t-52 27q-127 122 -302 122q-76 0 -131 -55t-55 -132q0 -78 55 -132q55 -55 131 -55h83q26 0 44.5 -18t18.5 -44t-18.5 -44t-44.5 -18h-83q-76 0 -131 -55q-55 -54 -55 -132q0 -77 55 -132t131 -55
q175 0 302 122q26 27 52 27t44 -18t18 -44q0 -28 -19 -47q-164 -164 -397 -164q-129 0 -220 90q-91 91 -91 221q0 138 123 249q-123 111 -123 249q0 130 91 220q91 91 220 91z" />
    <glyph glyph-name="zeta" unicode="&#x3b6;" horiz-adv-x="1120" 
d="M724 -478q-26 0 -44 18t-18 44t18 44.5t44 18.5q78 0 132 55q55 55 55 121q0 67 -55 122t-132 55q-267 0 -455 188t-188 455q0 156 64 285t188 226l454 323h-478q-26 0 -44 18.5t-18 44.5t18 44t44 18h664q26 0 44 -18t18 -44q0 -33 -35 -57l-596 -430
q-198 -161 -198 -410q0 -214 151 -367q154 -152 367 -152q130 0 220 -91q91 -90 91 -210q0 -119 -91 -210q-90 -91 -220 -91z" />
    <glyph glyph-name="eta" unicode="&#x3b7;" horiz-adv-x="1200" 
d="M993 601q0 165 -116 278q-116 117 -278 117t-279 -117q-115 -114 -115 -278v-539q0 -26 -18 -44t-44 -18t-44 18t-18 44v996q0 26 18 44t44 18t44 -18t18 -44v-116q184 178 394 178q216 0 366 -152q153 -152 153 -367v-1021q0 -26 -18.5 -44t-44.5 -18t-44 18t-18 44
v1021z" />
    <glyph glyph-name="theta" unicode="&#x3b8;" horiz-adv-x="1120" 
d="M910 871q-15 379 -161 541q-81 81 -191 81q-112 0 -191 -81q-145 -161 -160 -541h703zM207 747q15 -380 160 -543q78 -80 191 -80q111 0 191 80q146 164 161 543h-703zM81 809q0 240 52 415.5t146 278.5q57 54 128 84.5t151 30.5q81 0 151.5 -30.5t127.5 -84.5
q95 -103 146.5 -278.5t51.5 -415.5t-51.5 -415.5t-146.5 -278.5q-57 -54 -127.5 -84.5t-151.5 -30.5q-80 0 -151 30.5t-128 84.5q-94 103 -146 278.5t-52 415.5z" />
    <glyph glyph-name="iota" unicode="&#x3b9;" horiz-adv-x="480" 
d="M170 1058q0 26 18 44t44 18t44.5 -18t18.5 -44v-996q0 -26 -18.5 -44t-44.5 -18t-44 18t-18 44v996z" />
    <glyph glyph-name="kappa" unicode="&#x3ba;" horiz-adv-x="1120" 
d="M81 1058q0 26 18.5 44t44.5 18t44 -18t18 -44v-424l734 477q14 9 33 9q26 0 44 -18t18 -44q0 -34 -26 -51l-500 -327l509 -574q17 -18 17 -44t-18 -44t-44 -18t-45 20l-527 592l-195 -127v-423q0 -26 -18 -44t-44 -18t-44.5 18t-18.5 44v996z" />
    <glyph glyph-name="lambda" unicode="&#x3bb;" horiz-adv-x="1120" 
d="M295 1525q-6 14 -7 33q1 25 18.5 42.5t43.5 17.5t45 -19q10 -10 15 -24l622 -1491q3 -8 3 -22q0 -26 -18 -44t-44 -18q-27 0 -44 16q-8 8 -16 25l-355 852l-355 -852q-5 -12 -15 -22q-18 -19 -44 -19t-44.5 18t-18.5 44q0 12 3 22l406 973z" />
    <glyph glyph-name="uni03BC" unicode="&#x3bc;" horiz-adv-x="1199" 
d="M205 519q0 -164 115 -279q119 -116 279 -116q162 0 278 116q116 115 116 279v539q0 26 18 44t44 18t44.5 -18t18.5 -44v-996q0 -26 -18.5 -44t-44.5 -18t-44 18t-18 44v116q-184 -178 -394 -178t-394 178v-598q0 -26 -18 -44t-44 -18t-44 18t-18 44v1478q0 26 18 44
t44 18t44 -18t18 -44v-539z" />
    <glyph glyph-name="nu" unicode="&#x3bd;" horiz-adv-x="1200" 
d="M642 15q-15 -15 -43 -15q-27 0 -44 17q-7 7 -10 14l-460 1003q-4 10 -4 24q0 26 18 44t44 18t45 -17q6 -6 11 -16l400 -875l400 875q4 8 11 15q19 18 45 18t44.5 -17.5t18.5 -44.5q0 -13 -5 -24l-460 -1003q-4 -9 -11 -16z" />
    <glyph glyph-name="xi" unicode="&#x3be;" horiz-adv-x="960" 
d="M601 124q130 0 220 -91q91 -90 91 -210q0 -123 -91 -214q-90 -91 -220 -91q-26 0 -44 18t-18 44t18 44.5t44 18.5q77 0 132 55t55 125q0 67 -55 122q-57 55 -132 55q-214 0 -367 151q-152 154 -152 368t153 367q17 16 41 35.5t54 41.5q-21 17 -35.5 29.5t-25.5 23.5
q-104 104 -104 239q0 140 103 243q104 104 250 104h207q26 0 44.5 -18t18.5 -44t-18.5 -44.5t-44.5 -18.5h-207q-95 0 -162 -67q-66 -68 -66 -155q0 -85 66 -152q67 -66 162 -66h207q26 0 44.5 -18t18.5 -44t-18.5 -44t-44.5 -18h-124q-162 0 -279 -117q-115 -114 -115 -277
q0 -164 115 -279q119 -116 279 -116z" />
    <glyph glyph-name="omicron" unicode="&#x3bf;" 
d="M1200 560q0 -232 -164 -396t-396 -164t-396 164t-164 396t164 396t396 164t396 -164t164 -396zM640 996q-180 0 -308 -128t-128 -308t128 -308t308 -128t308 128q127 127 127 308t-127 308q-128 128 -308 128z" />
    <glyph glyph-name="pi" unicode="&#x3c0;" 
d="M142 996q-26 0 -44 18t-18 44t18 44t44 18h996q26 0 44 -18t18 -44t-18 -44t-44 -18h-104v-934q0 -26 -18 -44t-44 -18t-44.5 18t-18.5 44v934h-539v-934q0 -26 -18 -44t-44 -18t-44 18t-18 44v934h-104z" />
    <glyph glyph-name="rho" unicode="&#x3c1;" 
d="M204 560q0 -180 128 -308t308 -128t308 128q127 127 127 308t-127 308q-128 128 -308 128t-308 -128t-128 -308zM204 -418q0 -26 -18 -44t-44 -18t-44 18t-18 44v978q0 232 164 396t396 164t396 -164t164 -396t-164 -396t-396 -164t-396 164l-40 39v-621z" />
    <glyph glyph-name="sigma1" unicode="&#x3c2;" horiz-adv-x="1040" 
d="M642 -356q77 0 132 55t55 124q0 67 -55 122q-57 55 -132 55q-232 0 -396 164t-164 396t164 396t396 164q156 0 280 -73q31 -20 31 -55q0 -26 -18 -44t-44 -18q-19 0 -38 13q-95 53 -211 53q-180 0 -308 -128q-127 -127 -127 -308t127 -308q128 -128 308 -128
q130 0 220 -91q91 -90 91 -210q0 -122 -91 -213q-90 -91 -220 -91q-26 0 -44 18t-18 44t18 44.5t44 18.5z" />
    <glyph glyph-name="sigma" unicode="&#x3c3;" horiz-adv-x="1440" 
d="M1074 560q0 180 -128 308t-308 128t-308 -128q-127 -127 -127 -308t127 -308q128 -128 308 -128t308 128t128 308zM995 996l40 -40q81 -82 122 -180t41 -216t-41 -216t-122 -180q-164 -164 -397 -164q-232 0 -396 164t-164 396t164 396t396 164h664q26 0 44 -18t18 -44
t-18 -44t-44 -18h-307z" />
    <glyph glyph-name="tau" unicode="&#x3c4;" horiz-adv-x="1120" 
d="M144 996q-26 0 -44.5 18t-18.5 44t18.5 44t44.5 18h829q26 0 44 -18t18 -44t-18 -44t-44 -18h-352v-934q0 -26 -18.5 -44t-44.5 -18t-44 18t-18 44v934h-352z" />
    <glyph glyph-name="upsilon" unicode="&#x3c5;" horiz-adv-x="1200" 
d="M599 0q-213 0 -367 151q-151 152 -151 368v539q0 26 18 44t44 18t44 -18t18 -44v-539q0 -164 115 -279q119 -116 279 -116q162 0 278 116q116 115 116 279v539q0 26 18 44t44 18t44.5 -18t18.5 -44v-539q0 -215 -153 -368q-151 -151 -366 -151z" />
    <glyph glyph-name="phi" unicode="&#x3c6;" 
d="M578 892q0 95 66 161q69 67 162 67q64 0 113 -29q63 -38 117 -93q164 -164 164 -417t-164 -417q-134 -134 -334 -161v-422q0 -26 -18 -44t-44 -18t-44 18t-18 44v422q-200 27 -334 161q-164 164 -164 417t164 417q52 52 114 89q16 9 33 9q26 0 44 -18t18 -44
q0 -39 -30 -54q-49 -29 -91 -71q-128 -128 -128 -328q0 -201 128 -329q97 -97 246 -125v765zM806 996q-43 0 -73.5 -31t-30.5 -73v-765q149 28 246 125q127 127 127 329q0 201 -127 328q-39 43 -90 73q-26 14 -52 14z" />
    <glyph glyph-name="chi" unicode="&#x3c7;" horiz-adv-x="1120" 
d="M487 320l-399 710q-7 12 -7 29q0 25 18.5 43t44.5 18q37 0 52 -28l362 -646l362 646q16 28 53 28q26 0 44 -18t18 -43q0 -16 -7 -29l-398 -710l398 -710q7 -13 7 -29q0 -25 -18 -43t-44 -18q-36 0 -52 26l-363 645l-363 -645q-16 -26 -51 -26q-26 0 -44.5 18t-18.5 43
q0 18 8 29z" />
    <glyph glyph-name="psi" unicode="&#x3c8;" horiz-adv-x="1440" 
d="M1240 1058q0 26 18 44t44 18t44 -18t18 -44v-415q0 -267 -187 -454q-81 -81 -178.5 -127t-214.5 -60v-421q0 -26 -18.5 -44t-44.5 -18t-44 18t-18 44v421q-234 29 -392 187q-189 189 -189 454v415q0 26 18.5 44t44.5 18t44 -18t18 -44v-415q0 -216 152 -366
q120 -122 304 -149v930q0 26 18 44t44 18t44.5 -18t18.5 -44v-930q183 27 304 149q152 150 152 366v415z" />
    <glyph glyph-name="omega" unicode="&#x3c9;" horiz-adv-x="1440" 
d="M659 809q0 26 18 44t44 18t44.5 -18t18.5 -44v-456q0 -97 66 -162q67 -67 162 -67q94 0 160 67q68 66 68 162q0 368 -160 676q-6 12 -6 29q0 26 18 44t44 18q28 0 43 -16q8 -10 15 -23q170 -331 170 -728q0 -147 -103 -250t-249 -103q-165 0 -291 150
q-126 -150 -290 -150q-146 0 -250 103q-103 105 -103 250q0 397 167 720q11 22 18 29q16 18 44 18q26 0 44 -18t18 -44q0 -17 -6 -29q-160 -308 -160 -676q0 -96 66 -162q67 -67 162 -67q94 0 161 67t67 162v456z" />
    <glyph glyph-name="iotadieresis" unicode="&#x3ca;" horiz-adv-x="600" 
d="M239 1058q0 26 18 44t44 18t44.5 -18t18.5 -44v-996q0 -26 -18.5 -44t-44.5 -18t-44 18t-18 44v996zM135 1390q0 -35 -24 -59t-59 -24t-59 24t-24 59q0 34 24 58.5t59 24.5t59 -24.5t24 -58.5zM633 1390q0 -35 -24.5 -59t-58.5 -24q-35 0 -59 24t-24 59q0 34 24 58.5
t59 24.5q34 0 58.5 -24.5t24.5 -58.5z" />
    <glyph glyph-name="upsilondieresis" unicode="&#x3cb;" horiz-adv-x="1200" 
d="M599 0q-213 0 -367 151q-151 152 -151 368v539q0 26 18 44t44 18t44 -18t18 -44v-539q0 -164 115 -279q119 -116 279 -116q162 0 278 116q116 115 116 279v539q0 26 18 44t44 18t44.5 -18t18.5 -44v-539q0 -215 -153 -368q-151 -151 -366 -151zM431 1390q0 -35 -24 -59
t-59 -24t-59 24t-24 59q0 34 24 58.5t59 24.5t59 -24.5t24 -58.5zM929 1390q0 -35 -24.5 -59t-58.5 -24q-35 0 -59 24t-24 59q0 34 24 58.5t59 24.5q34 0 58.5 -24.5t24.5 -58.5z" />
    <glyph glyph-name="omicrontonos" unicode="&#x3cc;" 
d="M1200 560q0 -232 -164 -396t-396 -164t-396 164t-164 396t164 396t396 164t396 -164t164 -396zM640 996q-180 0 -308 -128t-128 -308t128 -308t308 -128t308 128q127 127 127 308t-127 308q-128 128 -308 128zM620 1241q-17 -16 -42 -16q-26 0 -44 18.5t-18 44.5
q0 25 14 41l252 252q18 18 45 18q26 0 44 -18t18 -44q0 -12 -4 -23.5t-13 -20.5z" />
    <glyph glyph-name="upsilontonos" unicode="&#x3cd;" horiz-adv-x="1200" 
d="M599 0q-213 0 -367 151q-151 152 -151 368v539q0 26 18 44t44 18t44 -18t18 -44v-539q0 -164 115 -279q119 -116 279 -116q162 0 278 116q116 115 116 279v539q0 26 18 44t44 18t44.5 -18t18.5 -44v-539q0 -215 -153 -368q-151 -151 -366 -151zM579 1241q-17 -16 -42 -16
q-26 0 -44 18.5t-18 44.5q0 25 14 41l252 252q18 18 45 18q26 0 44 -18t18 -44q0 -12 -4 -23.5t-13 -20.5z" />
    <glyph glyph-name="omegatonos" unicode="&#x3ce;" horiz-adv-x="1440" 
d="M659 809q0 26 18 44t44 18t44.5 -18t18.5 -44v-456q0 -97 66 -162q67 -67 162 -67q94 0 160 67q68 66 68 162q0 368 -160 676q-6 12 -6 29q0 26 18 44t44 18q28 0 43 -16q8 -10 15 -23q170 -331 170 -728q0 -147 -103 -250t-249 -103q-165 0 -291 150
q-126 -150 -290 -150q-146 0 -250 103q-103 105 -103 250q0 397 167 720q11 22 18 29q16 18 44 18q26 0 44 -18t18 -44q0 -17 -6 -29q-160 -308 -160 -676q0 -96 66 -162q67 -67 162 -67q94 0 161 67t67 162v456zM701 1241q-17 -16 -42 -16q-26 0 -44 18.5t-18 44.5
q0 25 14 41l252 252q18 18 45 18q26 0 44 -18t18 -44q0 -12 -4 -23.5t-13 -20.5z" />
    <glyph glyph-name="afii10023" unicode="&#x401;" 
d="M1141 1600q25 0 43 -18t18 -44q0 -25 -18 -43t-43 -18h-924v-615h677q26 0 44 -18t18 -44t-18 -44t-44 -18h-677v-615h924q25 0 43 -18t18 -43q0 -26 -18 -44t-43 -18h-985q-26 0 -44 18t-18 44v1476q0 26 18 44t44 18h985zM486 1870q0 -35 -24 -59t-59 -24t-59 24
t-24 59q0 34 24 58.5t59 24.5t59 -24.5t24 -58.5zM984 1870q0 -35 -24.5 -59t-58.5 -24q-35 0 -59 24t-24 59q0 34 24 58.5t59 24.5q34 0 58.5 -24.5t24.5 -58.5z" />
    <glyph glyph-name="afii10051" unicode="&#x402;" horiz-adv-x="1640" 
d="M613 1477h-471q-26 0 -44 18t-18 43q0 26 18 44t44 18h1066q26 0 44 -18t18 -44q0 -25 -18 -43t-44 -18h-472v-684q84 75 171 113t178 38q195 0 334 -139q138 -137 138 -333t-138 -335q-139 -137 -334 -137q-26 0 -43.5 18t-17.5 44q0 25 17.5 43t43.5 18q145 0 246 102
q103 102 103 247q0 144 -103 246q-100 103 -246 103q-144 0 -246 -102q-103 -103 -103 -246v-411q0 -26 -17.5 -44t-43.5 -18t-44 18t-18 44v1415z" />
    <glyph glyph-name="afii10052" unicode="&#x403;" horiz-adv-x="1200" 
d="M83 1537q0 27 18.5 45t43.5 18h902q26 0 44 -18t18 -44q0 -25 -18 -43t-44 -18h-840v-1416q-1 -25 -18 -43q-20 -18 -45 -18t-43 18t-18 44v1475zM618 1721q-17 -16 -42 -16q-26 0 -44 18.5t-18 44.5q0 25 14 41l252 252q18 18 45 18q26 0 44 -18t18 -44q0 -12 -4 -23.5
t-13 -20.5z" />
    <glyph glyph-name="afii10053" unicode="&#x404;" horiz-adv-x="1480" 
d="M205 738q30 -250 198 -416q199 -199 478 -199q242 0 422 148q15 10 35 10q26 0 44 -18t18 -44t-15 -41q-112 -87 -238 -132.5t-266 -45.5q-163 0 -306 61t-260 173q-112 117 -173 260t-61 306q0 331 234 565q235 235 566 235q285 0 507 -182q18 -18 18 -44q0 -25 -18 -43
t-43 -18q-26 0 -51 24q-173 140 -413 140q-280 0 -478 -198q-168 -168 -198 -417h758q26 0 44 -18t18 -44t-18 -44t-44 -18h-758z" />
    <glyph glyph-name="afii10054" unicode="&#x405;" horiz-adv-x="1060" 
d="M96 253q0 26 17.5 44t43.5 18q33 0 53 -28q13 -19 30 -40q45 -52 109 -86.5t160 -37.5q125 0 223 83q53 46 88 110.5t35 158.5q0 126 -83 222q-46 54 -106.5 85t-130.5 37q-78 8 -146.5 43t-119.5 94q-44 54 -68 117t-24 132q2 187 137 301q109 94 254 94q168 0 296 -139
q22 -26 38 -53q9 -15 9 -34q0 -25 -18 -43t-43 -18q-29 0 -41 16q-16 22 -39 50q-75 88 -181 95q-109 7 -195 -64q-86 -72 -93 -179q-4 -55 11 -104t51 -91q36 -43 81.5 -65.5t99.5 -27.5q95 -10 177.5 -52.5t145.5 -113.5q53 -65 82 -141t29 -157q-2 -138 -46.5 -220.5
t-119.5 -145.5q-134 -113 -302 -113q-211 0 -364 167q-17 19 -37 48q-13 17 -13 38z" />
    <glyph glyph-name="afii10055" unicode="&#x406;" horiz-adv-x="480" 
d="M182 1538q0 26 17.5 44t43.5 18t44 -18t18 -44v-1476q0 -26 -18 -44t-44 -18t-43.5 18t-17.5 44v1476z" />
    <glyph glyph-name="afii10056" unicode="&#x407;" horiz-adv-x="480" 
d="M178 1538q0 26 17.5 44t43.5 18t44 -18t18 -44v-1476q0 -26 -18 -44t-44 -18t-43.5 18t-17.5 44v1476zM73 1870q0 -35 -24 -59t-59 -24t-59 24t-24 59q0 34 24 58.5t59 24.5t59 -24.5t24 -58.5zM571 1870q0 -35 -24.5 -59t-58.5 -24q-35 0 -59 24t-24 59q0 34 24 58.5
t59 24.5q34 0 58.5 -24.5t24.5 -58.5z" />
    <glyph glyph-name="afii10057" unicode="&#x408;" horiz-adv-x="1120" 
d="M95 472q0 26 18 43.5t44 17.5t43.5 -17.5t17.5 -43.5q0 -144 102 -247q105 -102 247 -102q145 0 246 102q103 102 103 247v1066q0 26 18 44t43 18q26 0 44 -18t18 -44v-1066q0 -196 -138 -335q-139 -137 -334 -137t-334 137q-138 141 -138 335z" />
    <glyph glyph-name="afii10058" unicode="&#x409;" horiz-adv-x="2080" 
d="M1091 738l239 -615h245q127 0 217 90t90 218t-90 217q-89 90 -217 90h-484zM1287 0q-25 0 -44 18q-7 8 -12 19l-518 1332l-517 -1331q-4 -9 -13 -20q-18 -18 -44 -18t-44 18t-18 44q0 13 6 27l571 1467q6 17 16 27q17 17 43 17t44 -18q10 -10 16 -26l269 -694h533
q177 0 304 -127q126 -126 126 -304q0 -179 -126 -305t-304 -126h-288z" />
    <glyph glyph-name="afii10059" unicode="&#x40a;" horiz-adv-x="1920" 
d="M1412 123q127 0 217 90t90 218t-90 217q-89 90 -217 90h-390v-615h390zM1412 862q177 0 304 -127q126 -126 126 -304q0 -179 -126 -305t-304 -126h-452q-26 0 -43.5 18t-17.5 44v676h-698v-676q0 -26 -17.5 -44t-43.5 -18t-44 18t-18 44v1476q0 26 18 44t44 18t43.5 -18
t17.5 -44v-676h698v676q0 26 17.5 44t43.5 18t44 -18t18 -44v-676h390z" />
    <glyph glyph-name="afii10060" unicode="&#x40b;" horiz-adv-x="1640" 
d="M1434 472q0 144 -103 246q-100 103 -246 103q-144 0 -246 -102q-103 -103 -103 -246v-411q0 -26 -17.5 -44t-43.5 -18t-44 18t-18 44v1415h-471q-26 0 -44 18t-18 43q0 26 18 44t44 18h1066q26 0 44 -18t18 -44q0 -25 -18 -43t-44 -18h-472v-684q84 75 171 113t178 38
q195 0 334 -139q138 -137 138 -333v-410q0 -26 -18 -44t-44 -18q-25 0 -43 18t-18 44v410z" />
    <glyph glyph-name="afii10061" unicode="&#x40c;" horiz-adv-x="1200" 
d="M95 1538q0 26 18 44t43 18q26 0 44 -18t18 -44v-752l795 795q19 19 46 19q26 0 44 -18t18 -44q0 -23 -18 -44l-589 -588l595 -808q11 -16 12 -33q0 -33 -25 -53q-17 -12 -35 -12q-34 0 -53 26l-583 790l-207 -207v-547q0 -26 -18 -44t-44 -18q-25 0 -43 18t-18 44v1476z
M588 1721q-17 -16 -42 -16q-26 0 -44 18.5t-18 44.5q0 25 14 41l252 252q18 18 45 18q26 0 44 -18t18 -44q0 -12 -4 -23.5t-13 -20.5z" />
    <glyph glyph-name="afii10062" unicode="&#x40e;" horiz-adv-x="1437" 
d="M717 603l523 969q15 28 52 28q25 0 43 -18t18 -44q0 -15 -9 -32l-724 -1346q-22 -38 -54 -70q-90 -90 -218 -90q-103 0 -177 55q-31 25 -31 54q0 26 17.5 43.5t43.5 17.5q21 0 35 -11q48 -36 112 -36q74 0 130 54q24 24 35 47l134 248l-557 1034q-9 17 -9 32q0 26 18 44
t44 18q35 0 52 -29zM410 1994q0 26 18.5 44t44.5 18t44 -18t18 -44q0 -47 60 -78q56 -26 126 -26t127 26q61 30 61 78q0 26 18 44t44 18t44 -18t19 -43q-6 -99 -90 -160q-47 -34 -102 -51.5t-121 -17.5q-64 0 -120.5 18t-102.5 50q-88 68 -88 160z" />
    <glyph glyph-name="afii10145" unicode="&#x40f;" 
d="M698 -267q0 -26 -18 -43.5t-44 -17.5t-43.5 17.5t-17.5 43.5v267h-431q-26 0 -44 18t-18 44v1476q0 26 18 44t44 18t43.5 -18t17.5 -44v-1415h862v1415q0 26 18 44t44 18q25 0 43 -18t18 -44v-1476q0 -26 -18 -44t-43 -18h-431v-267z" />
    <glyph glyph-name="afii10017" unicode="&#x410;" horiz-adv-x="1440" 
d="M421 574l-209 -536q-6 -14 -14 -22q-17 -16 -43 -16t-44 18t-18 44q0 13 6 27l571 1467q6 16 16 27q17 17 43 17t44 -18q10 -10 16 -26l570 -1467q6 -14 6 -27q0 -26 -18 -44t-43 -18q-26 0 -43 15q-9 9 -15 23l-208 536h-617zM990 697l-261 672l-260 -672h521z" />
    <glyph glyph-name="afii10018" unicode="&#x411;" horiz-adv-x="1120" 
d="M555 123q145 0 246 102q103 102 103 247q0 144 -103 246q-100 103 -246 103h-349v-698h349zM555 944q195 0 334 -139q138 -137 138 -333t-138 -335q-139 -137 -334 -137h-410q-26 0 -44 18t-18 44v1476q0 26 18 44t44 18h656q26 0 44 -18t18 -44q0 -25 -18 -43t-44 -18
h-595v-533h349z" />
    <glyph glyph-name="afii10019" unicode="&#x412;" horiz-adv-x="1120" 
d="M218 1477v-533h267q111 0 188 78q79 79 79 188t-79 188t-188 79h-267zM218 821v-698h349q145 0 246 102q103 102 103 247q0 144 -103 246q-100 103 -246 103h-349zM485 1600q162 0 276 -114t114 -276t-134 -296q100 -48 161 -108q137 -139 137 -334q0 -196 -138 -335
q-139 -137 -334 -137h-410q-26 0 -44 18t-18 44v1476q0 26 18 44t44 18h328z" />
    <glyph glyph-name="afii10020" unicode="&#x413;" horiz-adv-x="1200" 
d="M83 1537q0 27 18.5 45t43.5 18h902q26 0 44 -18t18 -44q0 -25 -18 -43t-44 -18h-840v-1416q-1 -25 -18 -43q-20 -18 -45 -18t-43 18t-18 44v1475z" />
    <glyph glyph-name="afii10021" unicode="&#x414;" horiz-adv-x="1600" 
d="M313 123h969l-484 1246zM1455 123q26 0 43.5 -18t17.5 -43v-329q0 -26 -17.5 -43.5t-43.5 -17.5t-44 17.5t-18 43.5v267h-1190v-267q0 -26 -17.5 -43.5t-43.5 -17.5t-44 17.5t-18 43.5v329q0 25 18 43t44 18h40l557 1433q6 16 16 27q17 17 43 17t44 -18q10 -11 16 -26
l557 -1433h40z" />
    <glyph glyph-name="afii10022" unicode="&#x415;" 
d="M1141 1600q25 0 43 -18t18 -44q0 -25 -18 -43t-43 -18h-924v-615h677q26 0 44 -18t18 -44t-18 -44t-44 -18h-677v-615h924q25 0 43 -18t18 -43q0 -26 -18 -44t-43 -18h-985q-26 0 -44 18t-18 44v1476q0 26 18 44t44 18h985z" />
    <glyph glyph-name="afii10024" unicode="&#x416;" horiz-adv-x="2080" 
d="M1889 31l-579 785l-207 -207v-547q0 -26 -18 -44t-44 -18t-43.5 18t-17.5 44v547l-207 207l-588 -795q-16 -21 -47 -21q-25 0 -43 18t-18 43q0 22 13 39l593 806l-587 588q-19 19 -19 44q0 26 18 44t44 18q27 0 46 -19l795 -795v752q0 26 17.5 44t43.5 18t44 -18t18 -44
v-752l795 795q19 19 46 19q26 0 43.5 -18t17.5 -44q0 -25 -18 -44l-588 -588l595 -808q11 -16 11 -37q0 -25 -18 -43t-44 -18q-33 0 -54 31z" />
    <glyph glyph-name="afii10025" unicode="&#x417;" horiz-adv-x="1080" 
d="M535 779q-26 0 -44 18t-18 44t18 44t44 18q120 0 203 84q84 84 84 203q0 117 -84 203q-84 84 -203 84t-203 -84t-84 -203q0 -26 -18 -44t-44 -18t-43.5 18t-17.5 44q0 170 120 290t290 120t290 -120t120 -290q0 -171 -120 -291q-28 -27 -65 -54q53 -32 95 -74
q131 -133 131 -320q0 -188 -132 -320q-131 -131 -319 -131q-187 0 -320 131q-131 133 -131 320q0 26 17.5 44t43.5 18t44 -18t18 -44q0 -135 96 -232q97 -96 232 -96q134 0 232 96q96 97 96 232q0 134 -96 232q-96 96 -232 96z" />
    <glyph glyph-name="afii10026" unicode="&#x418;" horiz-adv-x="1440" 
d="M1224.02 62q0 -26 17.498 -44t43.4951 -18q25.9961 0 43.9941 18t17.998 44v1476q0 26 -17.998 44t-43.9941 18q-28.9971 0 -46.9941 -22l-1039.87 -1337v1297q0 26 -17.998 44t-43.9951 18q-24.9971 0 -42.9941 -18q-17.998 -18 -17.998 -44v-1476q0 -26 17.998 -44
q17.9971 -18 42.9941 -18q29.9971 0 45.9951 18l1041.87 1340v-1296z" />
    <glyph glyph-name="afii10027" unicode="&#x419;" horiz-adv-x="1440" 
d="M1224 1358l-1042 -1340q-16 -18 -46 -18q-25 0 -43 18t-18 44v1476q0 26 18 44t43 18q26 0 44 -18t18 -44v-1297l1040 1337q18 22 47 22q26 0 44 -18t18 -44v-1476q0 -26 -18 -44t-44 -18t-43.5 18t-17.5 44v1296zM399 1994q0 26 18.5 44t44.5 18t44 -18t18 -44
q0 -47 60 -78q56 -26 126 -26t127 26q61 30 61 78q0 26 18 44t44 18t44 -18t19 -43q-6 -99 -90 -160q-47 -34 -102 -51.5t-121 -17.5q-64 0 -120.5 18t-102.5 50q-88 68 -88 160z" />
    <glyph glyph-name="afii10028" unicode="&#x41a;" horiz-adv-x="1200" 
d="M95 1538q0 26 18 44t43 18q26 0 44 -18t18 -44v-752l795 795q19 19 46 19q26 0 44 -18t18 -44q0 -23 -18 -44l-589 -588l595 -808q11 -16 12 -33q0 -33 -25 -53q-17 -12 -35 -12q-34 0 -53 26l-583 790l-207 -207v-547q0 -26 -18 -44t-44 -18q-25 0 -43 18t-18 44v1476z
" />
    <glyph glyph-name="afii10029" unicode="&#x41b;" horiz-adv-x="1440" 
d="M200 38q-4 -10 -13 -20q-18 -18 -44 -18t-44 18t-18 44q0 13 6 27l571 1467q6 16 16 27q17 17 43 17t44 -18q10 -11 16 -26l570 -1467q6 -14 6 -27q0 -26 -18 -44t-43 -18q-23 0 -38 12q-11 10 -19 25l-518 1332z" />
    <glyph glyph-name="afii10030" unicode="&#x41c;" horiz-adv-x="1920" 
d="M929 17.1934q19 -16.998 43 -16.998q26 0 44 16.998q10 10.998 15 23.9971l352 1265.85l351 -1265.85q5 -13.998 16 -24.9971q17 -15.998 43 -15.998t43.5 17.998t17.5 43.9941q0 12.999 -5 29.9961l-402 1453.82q-6 21.9971 -20 35.9951q-20 17.998 -44 17.998
q-26 0 -44 -17.998q-14 -14.998 -20 -34.9951l-347 -1251.85l-345 1250.85q-7 20.9971 -21 35.9951q-19 17.998 -44 17.998t-43 -17.998q-15 -14.998 -21 -34.9951l-403 -1454.82q-5 -16.9971 -5 -29.9961q0 -25.9961 18 -43.9941t44 -17.998t44 16.998
q10 10.998 14 23.9971l352 1265.85l352 -1266.85q3 -10.999 15 -22.9971z" />
    <glyph glyph-name="afii10031" unicode="&#x41d;" 
d="M94 1538q0 26 18 44t44 18t43.5 -18t17.5 -44v-676h862v676q0 26 18 44t44 18q25 0 43 -18t18 -44v-1476q0 -26 -18 -44t-43 -18q-26 0 -44 18t-18 44v676h-862v-676q0 -26 -17.5 -44t-43.5 -18t-44 18t-18 44v1476z" />
    <glyph glyph-name="afii10032" unicode="&#x41e;" horiz-adv-x="1760" 
d="M891 1477q-278 0 -479 -199q-198 -198 -198 -478q0 -281 198 -479q199 -198 479 -198t478 198q199 198 199 479q0 280 -199 478q-199 199 -478 199zM1691 800q0 -331 -235 -566q-233 -234 -565 -234q-163 0 -306 61t-260 173q-112 117 -173 260t-61 306q0 331 234 565
q235 235 566 235q333 0 565 -235q235 -234 235 -565z" />
    <glyph glyph-name="afii10033" unicode="&#x41f;" 
d="M1129 1600q25 0 43 -18t18 -44v-1476q0 -26 -18 -44t-43 -18q-26 0 -44 18t-18 44v1415h-862v-1415q0 -26 -17.5 -44t-43.5 -18t-44 18t-18 44v1476q0 26 18 44t44 18h985z" />
    <glyph glyph-name="afii10034" unicode="&#x420;" horiz-adv-x="1080" 
d="M219 1477v-780h266q161 0 275 114q115 115 115 276t-115 275q-114 115 -275 115h-266zM485 1600q214 0 362 -151q151 -148 151 -362q0 -212 -151 -363q-150 -150 -362 -150h-266v-512q0 -26 -18 -44t-44 -18t-43.5 18t-17.5 44v1476q0 26 17.5 44t43.5 18h328z" />
    <glyph glyph-name="afii10035" unicode="&#x421;" horiz-adv-x="1480" 
d="M1350 281q26 0 44 -18t18 -44q0 -25 -15 -41q-112 -87 -238 -132.5t-266 -45.5q-163 0 -306 61t-260 173q-112 117 -173 260t-61 306q0 331 234 565q235 235 566 235q285 0 507 -182q18 -18 18 -44q0 -25 -18 -43t-43 -18q-26 0 -51 24q-173 140 -413 140
q-280 0 -479 -199q-198 -198 -198 -478q0 -281 198 -479t479 -198q242 0 424 149q13 9 33 9z" />
    <glyph glyph-name="afii10036" unicode="&#x422;" horiz-adv-x="1360" 
d="M155 1477q-25 0 -43 18t-18 43q0 26 18 44t43 18h1067q26 0 44 -18t18 -44q0 -25 -18 -43t-44 -18h-472v-1415q0 -26 -17.5 -44t-43.5 -18t-44 18t-18 44v1415h-472z" />
    <glyph glyph-name="afii10037" unicode="&#x423;" horiz-adv-x="1437" 
d="M717 603l523 969q15 28 52 28q25 0 43 -18t18 -44q0 -15 -9 -32l-724 -1346q-22 -38 -54 -70q-90 -90 -218 -90q-103 0 -177 55q-31 25 -31 54q0 26 17.5 43.5t43.5 17.5q21 0 35 -11q48 -36 112 -36q74 0 130 54q24 24 35 47l134 248l-557 1034q-9 17 -9 32q0 26 18 44
t44 18q35 0 52 -29z" />
    <glyph glyph-name="afii10038" unicode="&#x424;" horiz-adv-x="1760" 
d="M818 1312q-121 -12 -226.5 -49.5t-188.5 -97.5q-98 -75 -149.5 -166.5t-51.5 -198.5t51.5 -198.5t149.5 -165.5q82 -60 188 -98.5t227 -49.5v1024zM941 288q123 12 227 49.5t188 98.5q98 74 149 165.5t51 198.5q0 216 -200 365q-166 123 -415 147v-1024zM818 1538
q0 26 17.5 44t43.5 18t44 -18t18 -44v-104q152 -10 277.5 -57t228.5 -129h-1q233 -186 233 -448q0 -261 -233 -447q-205 -168 -505 -187v-104q0 -26 -18 -44t-44 -18t-43.5 18t-17.5 44v104q-299 19 -506 187q-233 185 -233 447q0 128 60.5 242t172.5 206q101 78 230 126.5
t276 59.5v104z" />
    <glyph glyph-name="afii10039" unicode="&#x425;" horiz-adv-x="1440" 
d="M729 901l523 672q23 27 52 27q25 0 43 -18t18 -44q0 -20 -10 -35l-547 -703l544 -699q13 -16 13 -39q0 -26 -18 -44t-43 -18q-29 0 -47 21l-528 677l-528 -677q-17 -21 -46 -21q-26 0 -44 18t-18 44q0 22 14 39l543 699l-546 704q-11 13 -11 34q0 26 18 44t44 18
q30 0 51 -27z" />
    <glyph glyph-name="afii10040" unicode="&#x426;" horiz-adv-x="1440" 
d="M143 0q-26 0 -44 18t-18 44v1476q0 26 18 44t44 18t43.5 -18t17.5 -44v-1415h862v1415q0 26 18 44t43 18q26 0 44 -18t18 -44v-1415h103q25 0 43 -18t18 -43q0 -96 -19.5 -181.5t-57.5 -166.5q-7 -17 -14 -24q-18 -18 -44 -18t-44 17.5t-18 43.5q0 16 7 29q43 80 61 238
h-1081z" />
    <glyph glyph-name="afii10041" unicode="&#x427;" 
d="M1190 62q0 -26 -18 -44t-43 -18q-26 0 -44 18t-18 44v713l-39 -39q-81 -81 -178.5 -121.5t-213.5 -40.5t-213.5 40.5t-178.5 121.5t-121.5 178.5t-40.5 213.5v410q0 26 18 44t44 18t43.5 -18t17.5 -44v-410q0 -178 127 -304q126 -127 304 -127q179 0 305 127
q126 126 126 304v410q0 26 18 44t44 18q25 0 43 -18t18 -44v-1476z" />
    <glyph glyph-name="afii10042" unicode="&#x428;" horiz-adv-x="1600" 
d="M80 1538q0 26 18 44t44 18t43.5 -18t17.5 -44v-1415h534v1415q0 26 17.5 44t43.5 18t44 -18t18 -44v-1415h533v1415q0 26 18 44t44 18t43.5 -18t17.5 -44v-1476q0 -26 -17.5 -44t-43.5 -18h-1313q-26 0 -44 18t-18 44v1476z" />
    <glyph glyph-name="afii10043" unicode="&#x429;" horiz-adv-x="1760" 
d="M141 0q-26 0 -44 18t-18 44v1476q0 26 18 44t44 18t43.5 -18t17.5 -44v-1415h534v1415q0 26 17.5 44t43.5 18t44 -18t18 -44v-1415h533v1415q0 26 18 44t44 18q25 0 43 -18t18 -44v-1415h103q26 0 43.5 -18t17.5 -43q0 -190 -77 -348q-7 -17 -14 -24q-18 -18 -44 -18
t-44 17.5t-18 43.5q0 14 8 29q20 39 35.5 98t24.5 140h-1409z" />
    <glyph glyph-name="afii10044" unicode="&#x42a;" horiz-adv-x="1360" 
d="M841 123q126 0 218 90q90 91 90 218t-90 217t-218 90h-389v-615h389zM390 1600q26 0 44 -18t18 -44v-676h389q178 0 305 -127q126 -126 126 -304q0 -179 -126 -305t-305 -126h-451q-26 0 -43.5 18t-17.5 44v1415h-267q-26 0 -44 18t-18 43q0 26 18 44t44 18h328z" />
    <glyph glyph-name="afii10045" unicode="&#x42b;" horiz-adv-x="1440" 
d="M594 123q126 0 218 90q90 91 90 218t-90 217t-218 90h-390v-615h390zM204 862h390q178 0 305 -127q126 -126 126 -304q0 -179 -126 -305t-305 -126h-451q-26 0 -44 18t-18 44v1476q0 26 18 44t44 18t43.5 -18t17.5 -44v-676zM1230 1538q0 26 18 44t44 18q25 0 43 -18
t18 -44v-1476q0 -26 -18 -44t-43 -18q-26 0 -44 18t-18 44v1476z" />
    <glyph glyph-name="afii10046" unicode="&#x42c;" horiz-adv-x="1120" 
d="M596 123q126 0 218 90q90 91 90 218t-90 217t-218 90h-390v-615h390zM206 862h390q178 0 305 -127q126 -126 126 -304q0 -179 -126 -305t-305 -126h-451q-26 0 -44 18t-18 44v1476q0 26 18 44t44 18t43.5 -18t17.5 -44v-676z" />
    <glyph glyph-name="afii10047" unicode="&#x42d;" horiz-adv-x="1480" 
d="M1287.03 738q-29.9971 -250 -197.977 -416q-198.976 -199 -477.941 -199q-241.971 0 -421.948 148q-14.998 10 -34.9961 10q-25.9971 0 -43.9941 -18q-17.998 -18 -17.998 -44t14.998 -41q111.986 -87 237.971 -132.5q125.985 -45.5 265.968 -45.5q162.98 0 305.963 61
t259.968 173q111.986 117 172.979 260q60.9922 143 60.9922 306q0 331 -233.972 565q-234.971 235 -565.931 235q-284.965 0 -506.938 -182q-17.998 -18 -17.998 -44q0 -25 17.998 -43q17.9971 -18 42.9941 -18q25.9971 0 50.9941 24q172.979 140 412.949 140
q279.966 0 477.941 -198q167.979 -168 197.977 -417h-757.908q-25.9961 0 -43.9941 -18t-17.998 -44t17.998 -44t43.9941 -18h757.908z" />
    <glyph glyph-name="afii10048" unicode="&#x42e;" horiz-adv-x="2080" 
d="M1205 1477q-278 0 -479 -199q-197 -197 -197 -478q0 -282 197 -479q199 -198 479 -198t478 198q199 198 199 479q0 280 -199 478q-199 199 -478 199zM407 862q27 298 233 504q234 234 565 234q332 0 566 -235q234 -234 234 -565t-234 -566q-234 -234 -566 -234
q-331 0 -565 235q-206 206 -233 503h-207v-676q0 -26 -17.5 -44t-43.5 -18t-44 18t-18 44v1476q0 26 18 44t44 18t43.5 -18t17.5 -44v-676h207z" />
    <glyph glyph-name="afii10049" unicode="&#x42f;" horiz-adv-x="1200" 
d="M982.024 1477v-698h-348.957q-143.982 0 -245.97 102q-101.988 102 -101.988 247q0 147 101.988 246q101.987 103 245.97 103h348.957zM633.067 1600q-195.976 0 -332.959 -138q-137.983 -138 -137.983 -334t136.983 -333q64.9922 -65 159.98 -108l-368.955 -592
q-10.999 -16 -10.999 -33q0 -26 17.998 -44t43.9941 -18q31.9961 0 53.9941 33l390.952 625q20.9971 -2 46.9941 -2h348.957v-594q0 -26 17.998 -44t43.9951 -18q24.9961 0 42.9941 18t17.998 44v1476q0 26 -17.998 44t-42.9941 18h-410.95z" />
    <glyph glyph-name="afii10065" unicode="&#x430;" 
d="M652 996q-180 0 -308 -128t-128 -308t128 -308t308 -128t308 128q127 127 127 308t-127 308q-128 128 -308 128zM1087 203q-202 -203 -435 -203q-232 0 -396 164t-164 396t164 396t396 164t396 -164t164 -396v-498q0 -26 -18 -44t-44 -18t-44.5 18t-18.5 44v141z" />
    <glyph glyph-name="afii10066" unicode="&#x431;" 
d="M1075 560q0 181 -127 308q-128 128 -308 128t-308 -128t-128 -308t128 -308t308 -128t308 128q127 127 127 308zM204 917l40 39q164 164 396 164t396 -164t164 -396t-164 -396t-396 -164t-396 164t-164 396v415q0 232 164 396t396 164h48q183 0 338 77q12 6 29 6
q26 0 44 -18t18 -44q0 -28 -18 -44q-6 -7 -17 -13q-89 -45 -187 -67t-207 -22h-48q-181 0 -308 -127q-128 -128 -128 -308v-58z" />
    <glyph glyph-name="afii10067" unicode="&#x432;" horiz-adv-x="1040" 
d="M559 622q77 0 132 55t55 132q0 75 -55 132q-55 55 -132 55h-352v-374h352zM642 124q75 0 132 55q55 57 55 132q0 77 -55 132q-57 55 -132 55h-435v-374h435zM559 1120q130 0 220 -91q91 -90 91 -220q0 -59 -22 -113t-65 -105q50 -27 80 -59q90 -92 90 -221
q0 -130 -91 -221q-90 -90 -220 -90h-498q-26 0 -44 18t-18 44v996q0 26 18 44t44 18h415z" />
    <glyph glyph-name="afii10068" unicode="&#x433;" horiz-adv-x="880" 
d="M208 62q0 -26 -18 -44t-44 -18t-44 18t-18 44v747q0 130 90 220q91 91 221 91h332q26 0 44 -18t18 -44t-18 -44t-44 -18h-332q-77 0 -132 -55q-55 -57 -55 -132v-747z" />
    <glyph glyph-name="afii10069" unicode="&#x434;" 
d="M640 996q-180 0 -308 -127q-128 -128 -128 -308q0 -179 128 -307t308 -128t308 128q127 127 127 307q0 181 -127 308q-128 127 -308 127zM1075 205q-183 -202 -435 -202q-232 0 -396 163q-164 164 -164 395q0 232 164 395q164 164 396 164t396 -164q164 -163 164 -395
v-566q0 -172 -125 -299q-176 -176 -426 -176t-425 176q-65 62 -105 135q-11 19 -11 37q0 26 18 44t44 18t45 -19q8 -7 14 -19q34 -60 83 -109q70 -70 154.5 -104.5t182.5 -34.5q198 0 338 140q88 106 88 211v210z" />
    <glyph glyph-name="afii10070" unicode="&#x435;" 
d="M1073 622q-28 149 -125 246q-128 128 -308 128t-308 -128q-96 -96 -126 -246h867zM959 241q26 0 44 -18.5t18 -44.5t-16 -43q-156 -135 -365 -135q-232 0 -396 164t-164 396t164 396t396 164t396 -164t164 -396q0 -26 -18 -44t-44 -18h-932q30 -150 126 -246
q128 -128 308 -128q82 0 152 26.5t128 76.5q17 14 39 14z" />
    <glyph glyph-name="afii10072" unicode="&#x436;" horiz-adv-x="1760" 
d="M822 560v498q0 26 18 44t44 18t44.5 -18t18.5 -44v-498l642 544q17 16 42 16q26 0 44 -18t18 -44q0 -27 -16 -43l-534 -452l532 -456q18 -16 18 -45q0 -26 -18 -44t-44 -18q-25 0 -40 15l-545 466l-99 -85v-334q0 -26 -18.5 -44t-44.5 -18t-44 18t-18 44v334l-99 85
l-545 -466q-17 -15 -40 -15q-26 0 -44.5 18t-18.5 44q0 27 19 45l532 456l-534 452q-17 16 -17 43q0 26 18.5 44t44.5 18q25 0 41 -16z" />
    <glyph glyph-name="afii10073" unicode="&#x437;" horiz-adv-x="960" 
d="M228 238q37 -45 62 -62q78 -52 187 -52t189 59t80 138q0 89 -79.5 153.5t-189.5 64.5q-26 0 -44 18t-18 44t18 44t44 18q107 0 188 42.5t81 113.5q0 80 -80.5 128t-188.5 48q-109 0 -187 -53q-38 -27 -61 -60q-4 -7 -9 -13q-19 -18 -45 -18q-25 0 -43.5 18t-18.5 44
q0 19 9 33q27 43 74 81q116 92 281 92t279 -86.5t114 -213.5q0 -126 -154 -215q154 -134 154 -283q0 -128 -114.5 -224.5t-278.5 -96.5q-165 0 -281 93q-42 33 -69 72q-12 16 -12 37q0 26 18.5 44t43.5 18q32 0 51 -26z" />
    <glyph glyph-name="afii10074" unicode="&#x438;" horiz-adv-x="1200" 
d="M1118 62q0 -26 -18.5 -44t-44.5 -18t-44 18t-18 44v116q-184 -178 -394 -178q-213 0 -367 151q-151 152 -151 368v539q0 26 18 44t44 18t44 -18t18 -44v-539q0 -164 115 -279q119 -116 279 -116q162 0 278 116q116 115 116 279v539q0 26 18 44t44 18t44.5 -18t18.5 -44
v-996z" />
    <glyph glyph-name="afii10075" unicode="&#x439;" horiz-adv-x="1200" 
d="M1118 62q0 -26 -18.5 -44t-44.5 -18t-44 18t-18 44v116q-184 -178 -394 -178q-213 0 -367 151q-151 152 -151 368v539q0 26 18 44t44 18t44 -18t18 -44v-539q0 -164 115 -279q119 -116 279 -116q162 0 278 116q116 115 116 279v539q0 26 18 44t44 18t44.5 -18t18.5 -44
v-996zM288 1514q0 26 18.5 44t44.5 18t44 -18t18 -44q0 -47 60 -78q56 -26 126 -26t127 26q61 30 61 78q0 26 18 44t44 18t44 -18t19 -43q-6 -99 -90 -160q-47 -34 -102 -51.5t-121 -17.5q-64 0 -120.5 18t-102.5 50q-88 68 -88 160z" />
    <glyph glyph-name="afii10076" unicode="&#x43a;" horiz-adv-x="1040" 
d="M82 1058q0 26 18 44t44 18t44.5 -18t18.5 -44v-498l642 544q17 16 42 16q26 0 44 -18t18 -44q0 -25 -16 -43l-534 -452l532 -456q18 -17 18 -45q0 -26 -18 -44t-44 -18q-23 0 -40 15l-545 466l-99 -85v-334q0 -26 -18.5 -44t-44.5 -18t-44 18t-18 44v996z" />
    <glyph glyph-name="afii10077" unicode="&#x43b;" horiz-adv-x="1200" 
d="M642 1103q-15 14.998 -43 14.998q-27 0 -44 -16.998q-7 -6.99902 -10 -13.998l-460 -1002.88q-4 -9.99902 -4 -23.9971q0 -25.9961 18 -43.9941t44 -17.998t45 16.998q6 5.99902 11 15.998l400 874.893l400 -874.893q4 -7.99902 11 -14.998q19 -17.998 45 -17.998
t44.5 17.498t18.5 44.4941q0 12.999 -5 23.9971l-460 1002.88q-4 8.99902 -11 15.998z" />
    <glyph glyph-name="afii10078" unicode="&#x43c;" horiz-adv-x="1600" 
d="M760 16.1348q18 -16.998 43 -16.998q26 0 43 16.998q12 11.998 18 30.9961l271 812.9l274 -824.898q4 -9.99902 12 -17.998q18 -17.998 46 -17.998q26 0 44 17.998t18 43.9941q0 11.999 -5 25.9971l-331 992.879q-4 11.998 -15 22.9971q-16 15.998 -43 15.998
t-44 -16.998q-9 -8.99902 -14 -21.9971l-274 -821.899l-274 821.899q-4 11.998 -13 20.9971q-18 17.998 -45 17.998t-44 -16.998q-9 -8.99902 -14 -21.9971l-331 -992.879q-5 -14.998 -5 -25.9971q0 -25.9961 18 -43.9941t44 -17.998t45 17.998q7 6.99902 12 18.9971
l275 823.899l271 -812.9q7 -19.998 18 -30.9961z" />
    <glyph glyph-name="afii10079" unicode="&#x43d;" horiz-adv-x="1080" 
d="M206 498v-436q0 -26 -18 -44t-44 -18t-44 18t-18 44v996q0 26 18 44t44 18t44 -18t18 -44v-436h664v436q0 26 18 44t44 18t44 -18t18 -44v-996q0 -26 -18 -44t-44 -18t-44 18t-18 44v436h-664z" />
    <glyph glyph-name="afii10080" unicode="&#x43e;" 
d="M1200 560q0 -232 -164 -396t-396 -164t-396 164t-164 396t164 396t396 164t396 -164t164 -396zM640 996q-180 0 -308 -128t-128 -308t128 -308t308 -128t308 128q127 127 127 308t-127 308q-128 128 -308 128z" />
    <glyph glyph-name="afii10081" unicode="&#x43f;" horiz-adv-x="1200" 
d="M81 1058q0 26 18 44t44 18t44 -18t18 -44v-116q184 178 394 178q216 0 366 -152q153 -152 153 -367v-539q0 -26 -18.5 -44t-44.5 -18t-44 18t-18 44v539q0 165 -116 278q-116 117 -278 117t-279 -117q-115 -114 -115 -278v-539q0 -26 -18 -44t-44 -18t-44 18t-18 44v996z
" />
    <glyph glyph-name="afii10082" unicode="&#x440;" 
d="M204 560q0 -180 128 -308t308 -128t308 128q127 127 127 308t-127 308q-128 128 -308 128t-308 -128t-128 -308zM204 -418q0 -26 -18 -44t-44 -18t-44 18t-18 44v978q0 232 164 396t396 164t396 -164t164 -396t-164 -396t-396 -164t-396 164l-40 39v-621z" />
    <glyph glyph-name="afii10083" unicode="&#x441;" horiz-adv-x="1120" 
d="M975 243q26 0 44 -18.5t18 -44.5t-19 -45q-76 -65 -169 -100t-196 -35q-232 0 -396 164t-164 396t164 396t396 164q103 0 196.5 -35t168.5 -100q9 -9 15.5 -22t6.5 -27q0 -26 -18 -44t-44 -18q-24 0 -40 15q-122 107 -285 107q-180 0 -308 -128q-127 -127 -127 -308
t127 -308q128 -128 308 -128q79 0 152.5 29t132.5 78q15 12 37 12z" />
    <glyph glyph-name="afii10084" unicode="&#x442;" horiz-adv-x="1760" 
d="M200 62q0 -26 -18 -44t-44 -18t-44.5 18t-18.5 44v996q0 26 18.5 44t44.5 18t44 -18t18 -44v-67q152 129 311 129q180 0 308 -128q31 -32 65 -78q34 46 66 78q128 128 308 128t308 -128q127 -127 127 -308v-622q0 -26 -18 -44t-44 -18t-44 18t-18 44v622q0 129 -92 220
q-92 92 -219 92q-128 0 -220 -92q-91 -91 -91 -220v-622q0 -26 -18.5 -44t-44.5 -18t-44 18t-18 44v622q0 129 -91 220q-92 92 -220 92t-220 -92q-91 -91 -91 -220v-622z" />
    <glyph glyph-name="afii10085" unicode="&#x443;" horiz-adv-x="1120" 
d="M490 63l-405 970q-4 13 -4 25q0 26 18.5 44t44.5 18t44 -18q9 -9 15 -25l355 -850l355 850q6 16 17 27q16 16 43 16q26 0 44 -18t19 -44q0 -10 -4 -22l-616 -1474q-5 -14 -14 -23q-19 -19 -45 -19t-44 18t-18 44q0 13 4 22z" />
    <glyph glyph-name="afii10086" unicode="&#x444;" horiz-adv-x="1920" 
d="M551 996q-148 0 -252 -130q-101 -127 -101 -306q0 -180 101 -307q103 -129 252 -129q75 0 137 32.5t114 97.5v-1q102 126 102 307t-102 307v-1q-52 65 -114 97.5t-137 32.5zM1381 996q-148 0 -252 -130q-101 -125 -101 -306q0 -182 101 -307q103 -129 252 -129
q147 0 251 130v-1q101 125 101 307t-101 307v-1q-104 130 -251 130zM904 1538q0 26 18 44t44 18t44 -18t18 -44v-597q170 179 353 179q196 0 336 -163q141 -165 141 -397t-141 -397q-140 -163 -336 -163q-183 0 -353 179v-597q0 -26 -18 -44t-44 -18t-44 18t-18 44v597
q-172 -179 -353 -179q-197 0 -337 163q-140 164 -140 397t140 397q140 163 337 163q181 0 353 -179v597z" />
    </font>
</defs>
</svg>
